<svg width="32" height="32" viewBox="0 0 32 32" fill="none" xmlns="http://www.w3.org/2000/svg">
<path d="M16.341 6H17.6692C17.9134 6.03085 18.1575 6.05714 18.4005 6.09256C20.0529 6.33368 21.5807 6.90905 22.9026 7.92953C26.1783 10.4601 27.5123 13.7998 26.8238 17.8765C26.4093 20.3335 25.136 22.3333 23.1714 23.8685C20.9483 25.6038 18.4131 26.2654 15.624 25.9049C13.9888 25.6977 12.4355 25.0692 11.1167 24.0811C8.89751 22.4329 7.56338 20.2426 7.11435 17.5103C7.06861 17.2292 7.03717 16.9458 7 16.6635V15.3351C7.03088 15.0917 7.05718 14.8471 7.09263 14.6037C7.33449 12.9547 7.92798 11.4446 8.92229 10.1059C10.572 7.8901 12.7634 6.55956 15.4965 6.11427C15.7755 6.06685 16.0586 6.03543 16.341 6ZM14.0099 15.3134C14.1048 15.2765 14.202 15.246 14.3009 15.222C14.5748 15.1774 14.8498 15.1117 15.1249 15.1077C15.6137 15.1025 15.8241 15.3248 15.827 15.8173C15.8311 16.0188 15.81 16.2199 15.7641 16.4161C15.5811 17.1395 15.3684 17.8554 15.1923 18.5805C15.0439 19.1573 14.9255 19.7415 14.8378 20.3306C14.7589 20.9203 14.9785 21.4162 15.4839 21.759C16.0608 22.1516 16.7178 22.187 17.3605 22.0561C17.9214 21.9419 18.4577 21.7047 19.0037 21.519C19.0375 21.5076 19.0815 21.4802 19.0895 21.4516C19.1467 21.2448 19.1959 21.0362 19.2542 20.7997C19.1181 20.8454 19.0255 20.8785 18.9334 20.9071C18.6127 21.0054 18.289 21.0528 17.9528 20.9934C17.6372 20.9362 17.4828 20.818 17.4302 20.5049C17.396 20.3262 17.3947 20.1429 17.4262 19.9638C17.5406 19.4187 17.6795 18.8782 17.8133 18.3365C18.0283 17.4692 18.3782 16.6332 18.3994 15.7219C18.4125 15.1597 18.2473 14.6849 17.7704 14.3506C17.2776 14.0078 16.7167 13.9586 16.1438 14.0164C15.4834 14.0832 14.8784 14.3489 14.2661 14.5837C14.226 14.5986 14.1711 14.6277 14.162 14.6609C14.106 14.8694 14.0619 15.0763 14.0099 15.3134ZM17.8808 12.6953C17.9683 12.6902 18.046 12.6862 18.1244 12.6805C18.9866 12.6176 19.611 11.7012 19.3582 10.8784C19.0958 10.035 18.054 9.59736 17.2381 9.98875C16.5148 10.3356 16.2021 11.0486 16.4588 11.7657C16.6463 12.2965 17.2524 12.6902 17.8779 12.6948L17.8808 12.6953Z" fill="#6850F3"/>
</svg>
