<svg width="32" height="32" viewBox="0 0 32 32" fill="none" xmlns="http://www.w3.org/2000/svg">
<path d="M25.9976 10.683C25.9419 14.4181 25.2439 17.9919 23.4631 21.2829C21.8402 24.2825 19.497 26.4738 16.4781 27.893C16.1343 28.0542 15.7926 28.0254 15.4496 27.8592C10.9567 25.6851 8.24611 21.986 6.88976 17.1276C6.2246 14.7228 5.92917 12.2248 6.0143 9.72515C6.03517 9.02564 6.27596 8.68884 6.91899 8.4384C9.80983 7.30997 12.7021 6.17506 15.5985 5.06751C15.8686 4.97533 16.1606 4.97761 16.4294 5.07398C19.3363 6.1837 22.232 7.3222 25.1346 8.44415C25.7018 8.66005 25.9809 9.07098 25.9962 9.68485C26.0039 10.0173 25.9976 10.3498 25.9976 10.683ZM15.6736 16.5461C15.1969 16.0495 14.7474 15.5746 14.2909 15.1068C13.8162 14.621 13.1301 14.6124 12.6902 15.078C12.2504 15.5436 12.2553 16.2295 12.7223 16.7181C13.44 17.4742 14.163 18.2244 14.8914 18.9685C15.373 19.4615 16.0348 19.4543 16.5129 18.9548C16.8122 18.6425 17.101 18.3186 17.3953 18.0005C18.6615 16.6303 19.9271 15.2615 21.1923 13.8942C21.5145 13.5466 21.6363 13.145 21.4985 12.6837C21.4426 12.4963 21.3405 12.3271 21.2023 12.1929C21.0641 12.0586 20.8944 11.9639 20.71 11.918C20.5256 11.8721 20.3329 11.8766 20.1507 11.9311C19.9685 11.9856 19.8032 12.0882 19.671 12.2289C18.9994 12.9305 18.3488 13.6545 17.6883 14.3691L15.6736 16.5461Z" fill="#6850F3"/>
</svg>
