<svg width="32" height="32" viewBox="0 0 32 32" fill="none" xmlns="http://www.w3.org/2000/svg">
<path d="M22.2634 17.2072C22.9568 17.3252 23.6136 17.6013 24.1832 18.014C24.8898 18.5343 25.4273 19.2515 25.7286 20.0758C26.0298 20.9002 26.0814 21.7951 25.8768 22.6486C25.4452 24.4013 24.0266 25.7205 22.2559 25.9822C21.8342 26.0441 21.4008 26.0406 20.971 26.0441C16.5623 26.0484 12.1537 26.0496 7.74506 26.0476C7.3742 26.0476 7.01795 26.0009 6.70199 25.7906C6.25871 25.495 5.99356 25.0866 5.94742 24.5474C5.93808 24.4387 5.93457 24.3289 5.93457 24.219C5.93457 18.7336 5.93457 13.2479 5.93457 7.76202C5.93457 7.31041 6.01458 6.89211 6.31302 6.53515C6.67629 6.10282 7.1476 5.93048 7.70418 5.93165C9.81019 5.9369 11.9156 5.93165 14.0216 5.93165C16.186 5.93165 18.3503 5.93165 20.5143 5.93165C21.3442 5.93165 21.9621 6.35462 22.1823 7.08081C22.236 7.26962 22.262 7.46525 22.2594 7.66153C22.264 10.7513 22.2652 13.8413 22.2629 16.9314L22.2634 17.2072ZM24.5867 21.6023C24.5887 21.2068 24.5128 20.8148 24.3634 20.4486C24.2139 20.0824 23.9938 19.7493 23.7157 19.4682C23.4375 19.1872 23.1067 18.9637 22.7422 18.8105C22.3777 18.6573 21.9866 18.5774 21.5912 18.5754C19.9092 18.5754 18.5496 19.9133 18.5479 21.5742C18.5479 23.2609 19.8824 24.6256 21.5375 24.6274C23.2341 24.6291 24.5855 23.2895 24.5867 21.6023ZM14.0981 11.0827H15.2352C16.2333 11.0827 17.2315 11.0827 18.2296 11.0827C18.7055 11.0827 19.0168 10.7643 18.9888 10.3198C18.9649 9.93767 18.6466 9.67711 18.1939 9.67711H10.0175C9.96671 9.67711 9.91532 9.67711 9.86451 9.67711C9.68786 9.68823 9.52205 9.76612 9.40069 9.89501C9.27934 10.0239 9.21152 10.1941 9.21098 10.3712C9.21098 10.7801 9.52168 11.0763 9.96554 11.0769C11.3439 11.0831 12.7214 11.0851 14.0981 11.0827ZM14.0981 14.8136C15.4609 14.8136 16.8236 14.8136 18.1863 14.8136C18.295 14.8183 18.4037 14.8075 18.5093 14.7815C18.6675 14.7341 18.8032 14.6311 18.8915 14.4916C18.9798 14.352 19.0148 14.1853 18.99 14.022C18.9485 13.6855 18.6676 13.4319 18.2891 13.4313C15.4994 13.4263 12.7095 13.4276 9.91941 13.4354C9.76082 13.4442 9.60804 13.4981 9.47904 13.5908C9.23784 13.7579 9.16017 14.0798 9.25478 14.3556C9.30381 14.494 9.39548 14.6132 9.5166 14.6962C9.63772 14.7791 9.78203 14.8215 9.92875 14.8171C11.3156 14.8159 12.7048 14.8148 14.0964 14.8136H14.0981ZM12.9523 17.1692C11.9695 17.1692 10.9866 17.1692 10.0035 17.1692C9.9021 17.1653 9.80064 17.1757 9.70214 17.2002C9.36691 17.2989 9.17652 17.6091 9.22441 17.9596C9.2723 18.3102 9.55088 18.555 9.96496 18.5556C11.9452 18.5591 13.9258 18.5581 15.9069 18.5526C16.0515 18.5519 16.1939 18.5173 16.3227 18.4516C16.4514 18.3807 16.5529 18.2691 16.6113 18.1343C16.6696 17.9994 16.6815 17.849 16.6451 17.7067C16.5622 17.3824 16.3145 17.1709 15.9886 17.1692C14.9748 17.1663 13.9626 17.1692 12.9505 17.1692H12.9523ZM12.45 22.3034C13.2869 22.3034 14.1238 22.3034 14.9613 22.3034C15.4204 22.3034 15.7358 22.006 15.7293 21.5906C15.7229 21.1857 15.4104 20.9024 14.9607 20.9006C14.3569 20.8977 13.753 20.9006 13.1503 20.9006C12.0873 20.9006 11.025 20.9006 9.96262 20.9006C9.46503 20.9006 9.14498 21.274 9.232 21.7419C9.2904 22.072 9.58242 22.301 9.96262 22.3022C10.7867 22.3034 11.6183 22.3034 12.4483 22.3034H12.45Z" fill="#6850F3"/>
<path d="M21.0872 21.5558C21.5637 21.0756 22 20.6251 22.4485 20.1876C22.848 19.799 23.4659 19.9445 23.6289 20.458C23.6723 20.5794 23.6794 20.7107 23.6494 20.836C23.6195 20.9614 23.5537 21.0752 23.4601 21.1638C22.8398 21.7918 22.219 22.4187 21.5912 23.0374C21.3068 23.3167 20.8962 23.3108 20.6094 23.0339C20.2894 22.7254 19.9752 22.4105 19.6668 22.0892C19.6019 22.0247 19.5504 21.9481 19.5152 21.8636C19.48 21.7791 19.4619 21.6885 19.4619 21.597C19.4619 21.5055 19.48 21.4149 19.5152 21.3304C19.5504 21.2459 19.6019 21.1692 19.6668 21.1048C19.7303 21.0391 19.8062 20.9867 19.8901 20.9506C19.9739 20.9144 20.0641 20.8952 20.1554 20.894C20.2467 20.8929 20.3374 20.9099 20.4221 20.9439C20.5069 20.978 20.584 21.0285 20.6492 21.0925C20.7952 21.2316 20.9277 21.387 21.0872 21.5558Z" fill="#6850F3"/>
</svg>
