<svg width="32" height="32" viewBox="0 0 32 32" fill="none" xmlns="http://www.w3.org/2000/svg">
<path d="M16.1301 21.5245C15.4131 21.5032 14.705 21.3601 14.036 21.1012C13.9427 21.0718 13.8416 21.0795 13.7538 21.1227C13.336 21.3442 12.9183 21.5818 12.5042 21.8128C12.3251 21.9137 12.133 21.9955 11.9438 21.8433C11.7546 21.691 11.7391 21.4952 11.7886 21.275C11.8883 20.8326 11.9874 20.3897 12.0727 19.9443C12.0802 19.9003 12.0787 19.8552 12.0685 19.8117C12.0582 19.7683 12.0394 19.7273 12.013 19.6912C10.9526 18.4818 10.5325 17.0646 10.6405 15.4749C10.8022 13.0554 12.713 10.9518 15.1024 10.5584C17.5062 10.1626 19.7542 11.1726 20.8964 13.182C22.664 16.2921 21.1828 20.5103 17.3212 21.3699C16.9321 21.4564 16.5275 21.4749 16.1301 21.5245ZM18.9199 17.0115C19.0558 17.0127 19.1906 16.9872 19.3166 16.9364C19.4427 16.8855 19.5574 16.8103 19.6544 16.7151C19.7514 16.6198 19.8287 16.5064 19.8818 16.3813C19.935 16.2562 19.963 16.1218 19.9642 15.9859C19.9625 15.7118 19.8534 15.4492 19.6602 15.2548C19.467 15.0603 19.2053 14.9494 18.9312 14.946C18.7956 14.9452 18.6611 14.9712 18.5355 15.0225C18.4099 15.0738 18.2956 15.1494 18.1993 15.245C18.1029 15.3405 18.0264 15.4541 17.974 15.5793C17.9216 15.7045 17.8945 15.8389 17.8941 15.9746C17.892 16.1104 17.9171 16.2453 17.9677 16.3713C18.0184 16.4974 18.0937 16.612 18.1893 16.7086C18.2848 16.8051 18.3986 16.8817 18.5241 16.9337C18.6495 16.9857 18.7841 17.0121 18.9199 17.0115ZM16.1259 17.0115C16.2617 17.0131 16.3964 16.9876 16.5222 16.9364C16.648 16.8853 16.7624 16.8095 16.8586 16.7136C16.9548 16.6178 17.0309 16.5036 17.0824 16.378C17.134 16.2523 17.16 16.1176 17.1589 15.9817C17.1595 15.846 17.1333 15.7116 17.0819 15.586C17.0305 15.4605 16.9548 15.3463 16.8591 15.2501C16.7635 15.1539 16.6498 15.0775 16.5246 15.0253C16.3994 14.9731 16.2651 14.9462 16.1295 14.946C15.9936 14.9457 15.8591 14.9722 15.7335 15.0241C15.608 15.076 15.4939 15.1522 15.3979 15.2484C15.3019 15.3445 15.2258 15.4587 15.1741 15.5844C15.1224 15.71 15.096 15.8446 15.0965 15.9805C15.095 16.1162 15.1205 16.2509 15.1717 16.3766C15.2229 16.5023 15.2986 16.6165 15.3945 16.7125C15.4904 16.8085 15.6045 16.8844 15.7301 16.9358C15.8557 16.9871 15.9902 17.0128 16.1259 17.0115ZM13.3253 17.0115C13.4611 17.0139 13.596 16.989 13.7221 16.9384C13.8482 16.8878 13.9629 16.8125 14.0594 16.7169C14.1559 16.6212 14.2322 16.5072 14.284 16.3816C14.3357 16.2559 14.3618 16.1212 14.3607 15.9853C14.3618 15.8496 14.3362 15.715 14.2852 15.5892C14.2343 15.4635 14.159 15.349 14.0636 15.2524C13.9683 15.1559 13.8549 15.0791 13.7298 15.0265C13.6047 14.9739 13.4705 14.9466 13.3348 14.946C13.0604 14.9463 12.7972 15.0547 12.6022 15.2478C12.4072 15.4409 12.296 15.7031 12.2929 15.9776C12.2927 16.1133 12.3193 16.2477 12.3711 16.3731C12.423 16.4986 12.499 16.6126 12.5949 16.7086C12.6907 16.8046 12.8046 16.8808 12.9299 16.9328C13.0553 16.9847 13.1896 17.0115 13.3253 17.0115Z" fill="#6850F3"/>
<path d="M8.48184 13.7392C8.73374 12.8752 9.13198 12.0609 9.65924 11.3316C11.061 9.42435 12.9337 8.31222 15.2867 8.04836C19.0677 7.63049 22.5719 9.95863 23.7237 13.5589C23.7463 13.6311 23.8335 13.7308 23.8955 13.7344C24.9959 13.8036 25.6261 14.4615 25.9621 15.4357C26.4502 16.8589 26.3291 18.2414 25.5253 19.5308C25.1803 20.0836 24.7119 20.529 24.0304 20.5892C23.7028 20.6185 23.3578 20.5206 23.029 20.4436C22.8333 20.3976 22.7306 20.4293 22.6113 20.5982C21.5109 22.1384 20.0482 23.1639 18.2233 23.6749C18.1595 23.6928 18.0968 23.7143 18.0365 23.7346C18.0269 23.7488 18.0193 23.7643 18.0139 23.7806C17.9691 24.528 17.7334 24.7512 16.9898 24.7512C16.3495 24.7512 15.7098 24.7512 15.0695 24.7512C14.5795 24.7512 14.2585 24.4348 14.2435 23.9471C14.2394 23.7907 14.2382 23.6331 14.2435 23.4773C14.2493 23.2815 14.3297 23.0953 14.4683 22.9569C14.6068 22.8185 14.7931 22.7383 14.9889 22.7329C15.3828 22.7204 15.7778 22.7329 16.1723 22.727C18.7228 22.6935 20.6181 21.5241 21.9656 19.3876C22.4042 18.6915 22.5516 17.9185 22.6489 17.1239C22.696 16.7395 22.7569 16.3568 22.8225 15.9754C22.9324 15.339 22.8017 14.7218 22.6161 14.1284C21.7961 11.5018 20.0297 9.87326 17.3449 9.32167C13.7924 8.59219 10.1999 11.0588 9.49513 14.6179C9.33759 15.4148 9.45993 16.17 9.5751 16.9418C9.69982 17.7734 9.83409 18.6044 9.94986 19.4371C10.0334 20.0394 9.86333 20.2967 9.27373 20.4466C8.967 20.5248 8.64535 20.6078 8.33444 20.5928C7.5127 20.554 6.98994 20.0257 6.62114 19.3577C5.89549 18.0444 5.80179 16.6619 6.36036 15.268C6.67008 14.4961 7.25072 13.9767 8.07545 13.7678C8.14057 13.753 8.20686 13.7438 8.27357 13.7404C8.33683 13.7356 8.3965 13.7392 8.48184 13.7392Z" fill="#6850F3"/>
</svg>
