<svg width="68" height="46" viewBox="0 0 68 46" fill="none" xmlns="http://www.w3.org/2000/svg">
<path d="M0 18.9844C0.28767 18.9844 0.57534 18.9976 0.863009 18.9976H67.9748V19.7395C67.9748 27.0224 67.93 34.3052 67.9998 41.588C68.0231 44.0612 66.1324 46.0052 63.565 46.0002C43.8527 45.9618 24.141 45.9541 4.42978 45.9771C2.16334 45.9771 0.843053 45.0258 0.123048 42.9087C0.0889808 42.8288 0.047803 42.7521 0 42.6795V18.9844ZM24.4968 29.7891H34.0448C34.9078 29.7891 35.7708 29.8105 36.6305 29.7891C37.6382 29.7594 38.2401 28.9548 37.9608 28.0496C37.7828 27.4543 37.2457 27.1411 36.3728 27.1411H12.5743C12.4419 27.1345 12.3093 27.1345 12.1769 27.1411C11.8433 27.1583 11.5284 27.2993 11.2949 27.5362C11.0613 27.773 10.9262 28.0884 10.9164 28.4195C10.9065 28.7506 11.0227 29.0732 11.2417 29.3233C11.4608 29.5734 11.7667 29.7326 12.0988 29.7693C12.3198 29.7903 12.542 29.7964 12.7639 29.7874L24.4968 29.7891ZM18.9845 32.5278C16.7962 32.5278 14.608 32.5278 12.4197 32.5278C11.7545 32.5278 11.2557 32.7553 11.0029 33.3901C10.6238 34.3497 11.3189 35.1807 12.5178 35.184C15.9887 35.1906 19.459 35.1906 22.9288 35.184C23.8566 35.184 24.7862 35.2038 25.7123 35.184C26.7649 35.156 27.3868 34.3382 27.0875 33.4214C26.9046 32.8592 26.3875 32.536 25.6159 32.5344C23.406 32.5245 21.1944 32.5278 18.9845 32.5278Z" fill="#567DF4"/>
<path d="M0 3.35058C0.395956 2.13703 0.983235 1.05034 2.19938 0.497817C2.7301 0.257444 3.32902 0.163966 3.90299 0.0287562C4.12346 -0.00191458 4.34664 -0.00807513 4.56846 0.0103917C24.1999 0.0103917 43.8341 0.00705356 63.471 0.000376534C65.3227 0.000376534 66.7435 0.648048 67.5969 2.33734C67.8196 2.74924 67.9496 3.20504 67.9779 3.67274C68.0145 6.06646 67.9946 8.46352 67.9946 10.9524H0.871766C0.58395 10.9524 0.296133 10.9524 0.00831637 10.9524L0 3.35058Z" fill="#567DF4"/>
</svg>
