<svg width="20" height="20" viewBox="0 0 20 20" fill="none" xmlns="http://www.w3.org/2000/svg">
<path d="M6.59984 11.2251C7.77484 11.2251 8.7165 12.1759 8.7165 13.3592V16.2001C8.7165 17.3751 7.77484 18.3334 6.59984 18.3334H3.78317C2.6165 18.3334 1.6665 17.3751 1.6665 16.2001V13.3592C1.6665 12.1759 2.6165 11.2251 3.78317 11.2251H6.59984ZM16.2166 11.2251C17.3833 11.2251 18.3333 12.1759 18.3333 13.3592V16.2001C18.3333 17.3751 17.3833 18.3334 16.2166 18.3334H13.3999C12.2249 18.3334 11.2833 17.3751 11.2833 16.2001V13.3592C11.2833 12.1759 12.2249 11.2251 13.3999 11.2251H16.2166ZM6.59984 1.66699C7.77484 1.66699 8.7165 2.62533 8.7165 3.80116V6.64199C8.7165 7.82533 7.77484 8.77533 6.59984 8.77533H3.78317C2.6165 8.77533 1.6665 7.82533 1.6665 6.64199V3.80116C1.6665 2.62533 2.6165 1.66699 3.78317 1.66699H6.59984ZM16.2166 1.66699C17.3833 1.66699 18.3333 2.62533 18.3333 3.80116V6.64199C18.3333 7.82533 17.3833 8.77533 16.2166 8.77533H13.3999C12.2249 8.77533 11.2833 7.82533 11.2833 6.64199V3.80116C11.2833 2.62533 12.2249 1.66699 13.3999 1.66699H16.2166Z" fill="white"/>
</svg>
