<svg width="24" height="24" viewBox="0 0 24 24" fill="none" xmlns="http://www.w3.org/2000/svg">
<path d="M12.5155 3C13.7635 3.00064 14.9992 3.24747 16.1517 3.72634C17.3041 4.20522 18.3508 4.90675 19.2318 5.79075C20.1128 6.67475 20.8108 7.72386 21.2858 8.87801C21.7608 10.0322 22.0035 11.2687 22 12.5168C21.9989 13.7646 21.7518 15.0001 21.2728 16.1524C20.7938 17.3046 20.0923 18.3511 19.2084 19.232C18.3245 20.1128 17.2756 20.8106 16.1217 21.2856C14.9678 21.7606 13.7316 22.0033 12.4838 22C7.22555 21.9951 2.98783 17.7327 3.00003 12.4612C3.01223 7.22581 7.26764 2.99512 12.5155 3ZM11.7561 20.4852V4.51353C8.13203 4.77769 4.47624 7.88466 4.46892 12.4869C4.46099 17.0586 8.0753 20.2119 11.7561 20.4852Z" fill="#6850F3"/>
</svg>
