<svg width="20" height="20" viewBox="0 0 20 20" fill="none" xmlns="http://www.w3.org/2000/svg">
<path d="M13.8876 1.6756C15.0863 1.60068 16.2685 2.01692 17.1592 2.83274C17.975 3.72349 18.3913 4.9056 18.3247 6.11268V13.888C18.3996 15.0951 17.975 16.2772 17.1675 17.1679C16.2768 17.9837 15.0863 18.4 13.8876 18.325H6.11223C4.90513 18.4 3.72301 17.9837 2.83226 17.1679C2.01643 16.2772 1.60019 15.0951 1.67512 13.888V6.11268C1.60019 4.9056 2.01643 3.72349 2.83226 2.83274C3.72301 2.01692 4.90513 1.60068 6.11223 1.6756H13.8876ZM13.6711 5.48C13.155 4.96387 12.3225 4.96387 11.8064 5.48L11.2486 6.04608C11.1654 6.12933 11.1654 6.27085 11.2486 6.3541C11.2486 6.3541 11.265 6.37034 11.294 6.39925L11.4988 6.6029C11.6173 6.72075 11.7651 6.86792 11.9136 7.01591L12.417 7.51908C12.522 7.62459 12.5917 7.6953 12.5972 7.7027C12.6888 7.8026 12.7471 7.93579 12.7471 8.08564C12.7471 8.38533 12.5057 8.63507 12.1976 8.63507C12.0561 8.63507 11.9229 8.5768 11.8314 8.48523L10.4411 7.10332C10.3745 7.03673 10.258 7.03673 10.1914 7.10332L6.22045 11.0742C5.94573 11.3489 5.78756 11.7152 5.77924 12.1065L5.72929 14.0794C5.72929 14.1877 5.76259 14.2876 5.83751 14.3625C5.91243 14.4374 6.01233 14.479 6.12055 14.479H8.07688C8.47647 14.479 8.85941 14.3209 9.15078 14.0378L14.7534 8.41863C15.2612 7.9025 15.2612 7.07002 14.7534 6.56222L13.6711 5.48Z" fill="#6850F3"/>
</svg>
