<svg width="302" height="269" viewBox="0 0 302 269" fill="none" xmlns="http://www.w3.org/2000/svg">
<g clip-path="url(#clip0_541_6305)">
<path d="M301.805 158.277C301.782 158.657 301.771 159.048 301.737 159.428C301.315 167.873 300.431 176.289 299.089 184.636C298.964 185.429 298.838 186.223 298.701 187.016C298.644 187.408 298.576 187.787 298.507 188.166C298.358 189.029 298.21 189.892 298.04 190.742C296.521 199.149 294.582 207.499 292.322 215.744C292.22 216.123 292.106 216.503 292.003 216.894C291.729 217.894 291.444 218.883 291.159 219.884C288.911 227.716 286.115 235.789 282.007 242.905C281.597 243.63 281.163 244.344 280.73 245.045H12.3252C11.4471 244.366 10.6026 243.653 9.79179 242.905C5.14837 238.605 1.67897 233.223 0.469358 227.415C0.0184591 225.3 -0.108596 223.129 0.0926051 220.975C0.171326 220.148 0.297117 219.326 0.469358 218.514C2.69428 207.818 12.2451 199.849 19.4554 190.741C21.0188 188.774 22.4798 186.75 23.7117 184.635C24.2902 183.676 24.8158 182.685 25.2862 181.667C28.5494 174.698 29.0863 167.051 28.1504 159.426C27.9219 157.541 27.6063 155.662 27.2033 153.791C26.4735 150.238 25.4805 146.73 24.3509 143.314C23.3579 140.301 22.2743 137.299 21.1789 134.298C17.7555 124.88 14.275 115.449 13.6142 105.548C11.8565 79.5571 32.4986 53.8432 59.4165 48.4952C75.3232 45.3327 91.7431 48.6215 107.718 51.4163C123.693 54.211 140.547 56.4646 155.894 51.405C163.699 48.8286 170.775 43.8722 175.589 37.5024C177.883 34.4551 179.709 31.0624 180.702 27.4395C181.489 24.576 180.188 18.9761 181.42 16.7329C184.718 10.7757 199.392 10.6614 205.189 11.1786C213.576 11.9261 221.769 14.6745 229.186 18.3661C251.768 29.6138 269.581 47.83 281.835 69.1279C282.406 70.1056 282.965 71.0944 283.49 72.0833C283.672 72.4055 283.855 72.7388 284.026 73.061C284.061 73.1161 284.091 73.1738 284.117 73.2336C288.797 82.0181 292.571 91.2628 295.38 100.823C295.494 101.202 295.608 101.582 295.7 101.972C295.916 102.72 296.133 103.467 296.327 104.215C296.635 105.353 296.932 106.492 297.206 107.631C298.951 114.843 300.209 122.166 300.971 129.55C301.016 129.929 301.062 130.32 301.097 130.7C301.998 139.843 302.204 149.055 301.805 158.277Z" fill="#EDEAFF"/>
<path d="M280.416 245.001C280.012 245.725 279.585 246.438 279.159 247.14C275.475 253.051 270.803 258.18 264.637 261.769C254.463 267.703 241.986 268.346 230.082 268.645C170.982 270.116 111.858 267.017 53.228 259.377C41.6948 257.871 29.8663 256.088 19.8542 250.407C18.1546 249.446 16.5311 248.354 14.9979 247.142C14.1332 246.463 13.302 245.75 12.5045 245.002L280.416 245.001Z" fill="#E3E0F5"/>
<path d="M141.115 29.6502C137.795 25.9197 132.6 23.9419 127.662 24.5967C123.583 25.1364 119.757 27.3212 115.643 27.2502C112.221 27.1904 109.011 25.5617 106.2 23.5936C103.389 21.6256 100.838 19.2838 97.9143 17.4922C94.9908 15.7005 91.5407 14.4672 88.1655 15.0368C85.4459 15.4957 83.0177 17.0923 81.0828 19.073C79.2702 20.9275 75.4241 25.8868 75.9855 29.651L141.115 29.6502Z" fill="#F3F1FC"/>
<path d="M108.804 66.1943C106.464 63.564 102.797 62.17 99.3194 62.6312C96.4426 63.0124 93.7459 64.5521 90.8454 64.4998C88.4328 64.4572 86.1693 63.3091 84.1877 61.9219C82.206 60.5346 80.4053 58.8835 78.3458 57.6203C76.2862 56.3571 73.8522 55.487 71.473 55.8892C69.5558 56.2128 67.8434 57.3385 66.4788 58.734C65.2017 60.0413 62.4895 63.5378 62.8855 66.192L108.804 66.1943Z" fill="white"/>
<path d="M230.459 78.2321C230.442 78.2319 230.425 78.2299 230.408 78.2262C230.013 78.138 229.617 78.043 229.225 77.9384C229.164 77.9224 229.113 77.8829 229.081 77.8285C229.05 77.7741 229.041 77.7093 229.057 77.6484C229.064 77.6179 229.078 77.5893 229.096 77.5641C229.115 77.539 229.138 77.5179 229.165 77.5021C229.192 77.4863 229.222 77.476 229.253 77.472C229.284 77.468 229.315 77.4703 229.345 77.4787C229.732 77.5814 230.12 77.6758 230.509 77.762C230.567 77.7743 230.617 77.8074 230.651 77.8551C230.686 77.9027 230.701 77.9615 230.695 78.02C230.688 78.0785 230.661 78.1326 230.617 78.1717C230.574 78.2109 230.517 78.2324 230.459 78.2321ZM224.834 76.3792C224.802 76.3791 224.769 76.3719 224.74 76.3583C223.651 75.8758 222.592 75.3303 221.566 74.7243C221.515 74.6909 221.479 74.639 221.465 74.5793C221.451 74.5196 221.46 74.4568 221.491 74.4039C221.521 74.3509 221.571 74.312 221.63 74.2951C221.688 74.2782 221.751 74.2847 221.805 74.3132C222.815 74.9102 223.858 75.4481 224.929 75.924C224.987 75.9492 225.031 75.9963 225.054 76.0549C225.077 76.1134 225.076 76.1787 225.051 76.2364C225.032 76.2787 225.002 76.3147 224.964 76.3401C224.925 76.3654 224.88 76.379 224.834 76.3792ZM217.815 72.044C217.761 72.0441 217.708 72.025 217.666 71.9902C216.745 71.2326 215.868 70.421 215.041 69.5594C215 69.5138 214.977 69.4536 214.979 69.3917C214.981 69.3297 215.007 69.271 215.051 69.2279C215.095 69.1848 215.154 69.1609 215.216 69.1611C215.277 69.1613 215.336 69.1857 215.38 69.2291C216.194 70.0769 217.057 70.8756 217.965 71.6209C218.002 71.652 218.03 71.694 218.043 71.7413C218.056 71.7885 218.054 71.8387 218.038 71.885C218.022 71.9312 217.992 71.9713 217.952 71.9998C217.912 72.0283 217.865 72.0437 217.816 72.044H217.815ZM212.214 65.962C212.176 65.9619 212.138 65.9525 212.105 65.9347C212.071 65.9169 212.042 65.8911 212.02 65.8596C211.341 64.8757 210.72 63.8524 210.16 62.795C210.145 62.7674 210.136 62.7372 210.133 62.706C210.129 62.6749 210.132 62.6434 210.141 62.6134C210.15 62.5834 210.165 62.5555 210.185 62.5313C210.204 62.507 210.229 62.4869 210.256 62.4721C210.311 62.4432 210.376 62.4372 210.435 62.4553C210.495 62.4735 210.545 62.5143 210.576 62.5693C211.127 63.6103 211.738 64.6177 212.408 65.586C212.443 65.6378 212.457 65.7017 212.446 65.7637C212.435 65.8258 212.4 65.8809 212.349 65.9171C212.31 65.9467 212.263 65.9632 212.214 65.9642V65.962ZM208.477 58.5756C208.428 58.5753 208.38 58.5598 208.341 58.5313C208.301 58.5029 208.271 58.4627 208.254 58.4164C207.862 57.2852 207.534 56.1323 207.273 54.9632C207.259 54.9016 207.27 54.8371 207.304 54.7837C207.337 54.7304 207.39 54.6927 207.451 54.6788C207.513 54.6649 207.577 54.676 207.63 54.7098C207.682 54.7435 207.72 54.797 207.734 54.8585C207.99 56.0097 208.312 57.145 208.698 58.2587C208.717 58.3182 208.713 58.383 208.685 58.439C208.657 58.4951 208.608 58.5377 208.549 58.5577C208.526 58.5676 208.502 58.5736 208.477 58.5756ZM206.832 50.4456C206.772 50.4457 206.714 50.4225 206.67 50.3807C206.626 50.339 206.6 50.282 206.597 50.2213C206.569 49.7793 206.55 49.3381 206.541 48.8976C206.541 48.7145 206.537 48.5306 206.537 48.3475C206.537 47.7667 206.554 47.1874 206.589 46.6283C206.592 46.5678 206.619 46.5109 206.663 46.4693C206.706 46.4277 206.764 46.4044 206.824 46.4041C206.829 46.4034 206.834 46.4034 206.839 46.4041C206.87 46.4058 206.9 46.4137 206.928 46.4273C206.956 46.4409 206.981 46.46 207.002 46.4834C207.022 46.5068 207.038 46.5341 207.048 46.5637C207.059 46.5934 207.063 46.6247 207.061 46.656C207.027 47.2061 207.01 47.7772 207.01 48.3467C207.01 48.5276 207.011 48.7083 207.014 48.8886C207.023 49.3212 207.041 49.7549 207.068 50.19C207.07 50.2213 207.066 50.2527 207.056 50.2824C207.046 50.3122 207.03 50.3395 207.009 50.363C206.989 50.3865 206.964 50.4057 206.936 50.4193C206.908 50.433 206.877 50.4409 206.846 50.4426L206.832 50.4456ZM207.566 42.193C207.545 42.1931 207.525 42.1904 207.505 42.1847C207.444 42.1681 207.393 42.1281 207.362 42.0736C207.33 42.019 207.322 41.9542 207.338 41.8932C207.644 40.7292 208.055 39.5957 208.564 38.5065C208.578 38.4783 208.596 38.453 208.619 38.432C208.642 38.4111 208.669 38.3949 208.698 38.3845C208.728 38.374 208.759 38.3694 208.789 38.371C208.82 38.3726 208.851 38.3803 208.879 38.3937C208.907 38.4071 208.932 38.4259 208.953 38.4491C208.973 38.4722 208.99 38.4993 209 38.5287C209.01 38.5582 209.015 38.5894 209.013 38.6206C209.012 38.6518 209.004 38.6824 208.991 38.7106C208.493 39.7736 208.092 40.8802 207.794 42.0166C207.779 42.0671 207.749 42.1114 207.707 42.1427C207.665 42.1741 207.614 42.1907 207.562 42.19L207.566 42.193ZM211.376 34.8978C211.33 34.8978 211.286 34.8845 211.247 34.8594C211.209 34.8344 211.179 34.7987 211.16 34.7567C211.142 34.7147 211.136 34.6682 211.143 34.6228C211.15 34.5774 211.17 34.5351 211.201 34.5009C212.005 33.6033 212.912 32.8047 213.902 32.1218C213.954 32.0862 214.017 32.0727 214.079 32.0844C214.14 32.096 214.194 32.1318 214.23 32.1838C214.265 32.2359 214.278 32.2999 214.267 32.3619C214.255 32.4238 214.22 32.4786 214.168 32.5142C213.209 33.1762 212.331 33.9496 211.552 34.8186C211.529 34.8443 211.501 34.8648 211.469 34.8784C211.438 34.8921 211.404 34.8987 211.369 34.8978H211.376ZM237.673 34.7805C237.666 34.7812 237.66 34.7812 237.653 34.7805C236.461 34.6643 235.285 34.4221 234.144 34.0577C234.114 34.0486 234.086 34.0336 234.062 34.0138C234.038 33.9939 234.019 33.9695 234.004 33.9419C233.989 33.9143 233.98 33.8841 233.977 33.853C233.974 33.8219 233.978 33.7905 233.987 33.7606C233.996 33.7307 234.011 33.7029 234.03 33.6788C234.05 33.6546 234.074 33.6347 234.102 33.62C234.129 33.6053 234.159 33.5962 234.19 33.5932C234.221 33.5902 234.252 33.5934 234.281 33.6025C235.391 33.9574 236.534 34.1937 237.693 34.3073C237.754 34.3122 237.811 34.3407 237.851 34.3867C237.891 34.4328 237.913 34.4929 237.91 34.5544C237.907 34.6159 237.881 34.6739 237.837 34.7164C237.793 34.7588 237.734 34.7823 237.673 34.782V34.7805ZM242.263 34.0039C242.21 34.0035 242.159 33.9856 242.118 33.9528C242.077 33.92 242.048 33.8743 242.035 33.8229C242.022 33.7715 242.027 33.7173 242.048 33.6688C242.069 33.6204 242.106 33.5805 242.153 33.5554C242.342 33.454 242.525 33.3427 242.703 33.222C243.43 32.728 244.067 32.05 244.598 31.2039C244.615 31.1776 244.637 31.1548 244.662 31.1368C244.687 31.1189 244.716 31.1061 244.746 31.0993C244.776 31.0925 244.808 31.0918 244.838 31.0972C244.869 31.1025 244.898 31.1139 244.924 31.1307C244.95 31.1474 244.973 31.1692 244.991 31.1947C245.008 31.2203 245.021 31.2491 245.028 31.2796C245.035 31.31 245.035 31.3415 245.03 31.3723C245.025 31.403 245.013 31.4324 244.997 31.4588C244.474 32.3117 243.781 33.0464 242.963 33.6167C242.772 33.7471 242.574 33.8671 242.37 33.9762C242.336 33.994 242.298 34.0035 242.259 34.0039H242.263ZM229.776 32.4469C229.747 32.4466 229.719 32.441 229.692 32.4305C228.637 32.0239 227.512 31.5971 226.373 31.2346C226.342 31.2263 226.313 31.2118 226.288 31.192C226.263 31.1722 226.242 31.1475 226.227 31.1193C226.212 31.0912 226.202 31.0602 226.199 31.0283C226.196 30.9963 226.199 30.9641 226.209 30.9335C226.218 30.9029 226.234 30.8745 226.255 30.8502C226.275 30.8258 226.301 30.806 226.329 30.7918C226.358 30.7776 226.389 30.7693 226.421 30.7676C226.453 30.7659 226.484 30.7706 226.514 30.7816C227.666 31.1464 228.799 31.5769 229.86 31.9872C229.911 32.0071 229.954 32.0444 229.981 32.0928C230.008 32.1412 230.017 32.1976 230.007 32.2522C229.998 32.3068 229.969 32.3561 229.927 32.3917C229.884 32.4273 229.831 32.4468 229.776 32.4469ZM218.315 30.6157C218.258 30.6153 218.202 30.5937 218.16 30.555C218.117 30.5163 218.089 30.4631 218.083 30.4055C218.076 30.3478 218.091 30.2898 218.123 30.2422C218.156 30.1946 218.205 30.1607 218.261 30.147C218.806 30.0164 219.359 29.9243 219.917 29.8712C220.307 29.8353 220.707 29.8353 221.114 29.8189C221.355 29.8189 221.599 29.8271 221.842 29.8421C221.873 29.8438 221.903 29.8516 221.931 29.8652C221.959 29.8788 221.984 29.8977 222.005 29.9211C222.026 29.9444 222.041 29.9716 222.052 30.0012C222.062 30.0307 222.066 30.062 222.064 30.0932C222.056 30.2248 221.942 30.3466 221.815 30.3174C221.565 30.304 221.309 30.2958 221.067 30.2965C220.696 30.2965 220.32 30.313 219.96 30.3466C219.425 30.3968 218.894 30.485 218.37 30.6104C218.351 30.6148 218.331 30.6165 218.312 30.6157H218.315ZM249.349 30.1672C248.342 30.1672 247.247 30.0394 246 29.777C245.969 29.7715 245.939 29.7597 245.913 29.7424C245.886 29.725 245.863 29.7025 245.846 29.6761C245.828 29.6496 245.816 29.6199 245.81 29.5886C245.803 29.5573 245.804 29.5251 245.81 29.4939C245.817 29.4627 245.829 29.4332 245.848 29.407C245.866 29.3809 245.889 29.3587 245.916 29.3417C245.942 29.3247 245.972 29.3134 246.003 29.3083C246.035 29.3032 246.067 29.3045 246.097 29.3121C247.311 29.5662 248.375 29.6911 249.349 29.6911H249.556H249.561C249.621 29.694 249.678 29.7201 249.72 29.764C249.762 29.808 249.786 29.8664 249.786 29.9274C249.787 29.9883 249.764 30.0471 249.723 30.0917C249.681 30.1363 249.625 30.1633 249.564 30.1672H249.349ZM254.039 28.8816C253.988 28.8816 253.938 28.8649 253.897 28.834C253.856 28.803 253.826 28.7595 253.812 28.71C253.798 28.6605 253.8 28.6076 253.818 28.5594C253.836 28.5112 253.869 28.4703 253.913 28.4428C254.879 27.8081 255.719 26.9969 256.389 26.051C256.426 26 256.482 25.966 256.543 25.9563C256.605 25.9466 256.669 25.9621 256.719 25.9994C256.77 26.0367 256.803 26.0926 256.813 26.155C256.823 26.2174 256.807 26.2811 256.77 26.332C256.065 27.3264 255.182 28.179 254.166 28.8457C254.127 28.8714 254.081 28.8851 254.035 28.8853L254.039 28.8816ZM241.501 28.5243C241.475 28.5244 241.45 28.5204 241.426 28.5123C240.291 28.152 239.18 27.7175 238.1 27.2118C238.044 27.1848 238 27.1363 237.979 27.0769C237.958 27.0176 237.961 26.9522 237.988 26.8952C238.015 26.8382 238.063 26.7943 238.122 26.773C238.181 26.7518 238.245 26.755 238.302 26.782C239.363 27.2788 240.456 27.7055 241.572 28.0594C241.625 28.0771 241.671 28.1135 241.7 28.1619C241.729 28.2103 241.74 28.2677 241.731 28.3237C241.722 28.3797 241.694 28.4306 241.651 28.4674C241.608 28.5042 241.554 28.5243 241.498 28.5243H241.501ZM246.447 27.1415C246.431 27.1413 246.415 27.1393 246.399 27.1355C246.338 27.1226 246.284 27.0857 246.25 27.033C246.216 26.9803 246.204 26.9161 246.217 26.8545C246.462 25.7051 246.604 24.5359 246.642 23.3609C246.643 23.299 246.669 23.2403 246.713 23.1971C246.757 23.154 246.816 23.1299 246.878 23.1299H246.884C246.915 23.1308 246.946 23.1378 246.974 23.1506C247.002 23.1633 247.028 23.1816 247.049 23.2043C247.07 23.227 247.087 23.2537 247.098 23.2829C247.109 23.312 247.114 23.3431 247.113 23.3743C247.074 24.5774 246.929 25.7746 246.679 26.9517C246.668 27.0064 246.639 27.0558 246.596 27.091C246.553 27.1262 246.499 27.1452 246.444 27.1445L246.447 27.1415ZM234.279 24.5777C234.229 24.5769 234.181 24.5566 234.146 24.5209L234.092 24.4671C233.25 23.6204 232.571 22.6236 232.09 21.5274C232.065 21.4697 232.063 21.4042 232.085 21.3453C232.108 21.2865 232.153 21.239 232.21 21.2135C232.267 21.1879 232.332 21.1863 232.391 21.209C232.449 21.2317 232.496 21.2769 232.522 21.3345C232.979 22.3781 233.624 23.3271 234.425 24.1338C234.519 24.2249 234.544 24.3976 234.454 24.4918C234.431 24.518 234.404 24.5394 234.374 24.5547C234.343 24.57 234.31 24.5789 234.276 24.5807L234.279 24.5777ZM258.595 22.1582C258.573 22.1579 258.55 22.1544 258.529 22.1478C258.499 22.139 258.471 22.1242 258.446 22.1043C258.422 22.0844 258.402 22.0599 258.387 22.032C258.372 22.0042 258.363 21.9736 258.36 21.9422C258.357 21.9107 258.36 21.879 258.369 21.8488C258.692 20.7162 258.937 19.5627 259.103 18.3963C259.114 18.3348 259.149 18.2801 259.199 18.2439C259.25 18.2076 259.312 18.1928 259.373 18.2026C259.435 18.2124 259.49 18.246 259.527 18.2962C259.563 18.3464 259.579 18.4092 259.571 18.4711C259.401 19.6578 259.15 20.8315 258.822 21.9841C258.808 22.034 258.779 22.0779 258.738 22.1094C258.697 22.1408 258.647 22.1579 258.595 22.1582ZM246.267 18.9143C246.217 18.9136 246.169 18.8972 246.129 18.8674C246.089 18.8376 246.06 18.796 246.045 18.7484C246.013 18.6475 245.979 18.5473 245.945 18.4494C245.6 17.4488 245.109 16.506 244.487 15.6524C244.45 15.6016 244.435 15.538 244.444 15.4757C244.454 15.4134 244.488 15.3574 244.538 15.3202C244.588 15.2829 244.652 15.2674 244.713 15.277C244.775 15.2866 244.831 15.3205 244.868 15.3714C245.518 16.2632 246.031 17.2484 246.39 18.2939C246.426 18.3971 246.464 18.5017 246.494 18.6078C246.504 18.6376 246.507 18.6689 246.505 18.7001C246.502 18.7312 246.494 18.7616 246.479 18.7894C246.465 18.8172 246.446 18.8419 246.422 18.862C246.398 18.8822 246.371 18.8974 246.341 18.9068C246.317 18.9135 246.292 18.916 246.267 18.9143ZM231.69 17.0315C231.675 17.0315 231.659 17.0298 231.644 17.0262C231.614 17.0202 231.585 17.0081 231.559 16.9908C231.533 16.9734 231.511 16.9511 231.494 16.9252C231.477 16.8992 231.465 16.8701 231.459 16.8395C231.453 16.8088 231.453 16.7773 231.459 16.7467C231.596 16.0326 231.859 15.3491 232.236 14.7286C232.504 14.2906 232.828 13.89 233.2 13.5371C233.246 13.4948 233.307 13.4721 233.369 13.474C233.432 13.4758 233.491 13.5019 233.535 13.5468C233.577 13.5929 233.6 13.654 233.598 13.717C233.597 13.78 233.57 13.8397 233.525 13.8832C233.184 14.2091 232.886 14.5787 232.64 14.9827C232.294 15.5543 232.051 16.1839 231.925 16.8416C231.913 16.8957 231.884 16.9441 231.841 16.9787C231.798 17.0133 231.745 17.032 231.69 17.0315ZM241.073 12.7553C241.04 12.755 241.008 12.7478 240.978 12.7344C240.71 12.6143 240.435 12.5102 240.155 12.4227C239.34 12.1776 238.488 12.0814 237.64 12.1386C237.608 12.1428 237.576 12.1401 237.546 12.1307C237.515 12.1213 237.487 12.1055 237.463 12.0842C237.439 12.063 237.42 12.0368 237.407 12.0075C237.394 11.9782 237.388 11.9465 237.388 11.9144C237.386 11.883 237.39 11.8514 237.4 11.8216C237.41 11.7917 237.426 11.7642 237.447 11.7406C237.467 11.717 237.493 11.6978 237.521 11.6842C237.549 11.6705 237.579 11.6626 237.611 11.661C238.517 11.5929 239.428 11.6958 240.297 11.9645C240.595 12.0574 240.887 12.1683 241.172 12.2963C241.222 12.3184 241.262 12.3569 241.287 12.4055C241.312 12.454 241.319 12.5097 241.308 12.5631C241.296 12.6165 241.267 12.6644 241.225 12.6987C241.183 12.733 241.131 12.7517 241.076 12.7515L241.073 12.7553Z" fill="#567DF4"/>
<path d="M259.563 9.82617L259.541 13.8721L259.306 13.8781L259.454 15.4418L259.969 15.4709V15.4657C260.048 15.475 260.128 15.4638 260.201 15.4334C260.275 15.4029 260.339 15.3541 260.389 15.2915L263.339 11.6679L259.563 9.82617Z" fill="#9090AD"/>
<path d="M274.498 0.942534L268.793 13.0229C268.763 13.1138 268.714 13.1975 268.651 13.2692C268.588 13.3408 268.511 13.3988 268.425 13.4397C268.338 13.4806 268.245 13.5036 268.15 13.5072C268.055 13.5108 267.96 13.4951 267.871 13.4609L261.31 10.8844L268.105 4.29486C268.147 4.25383 268.173 4.19928 268.179 4.14066C268.186 4.08204 268.172 4.02304 268.139 3.97388C268.107 3.92472 268.059 3.8885 268.003 3.8715C267.947 3.85449 267.886 3.85777 267.832 3.88077L256.198 8.92159L253.237 7.78546C253.1 7.73238 252.983 7.63772 252.902 7.51459C252.821 7.39146 252.779 7.24594 252.784 7.09817C252.788 6.9504 252.838 6.8077 252.927 6.68979C253.015 6.57188 253.138 6.48461 253.278 6.44005L273.617 0.0343768C273.742 -0.00482029 273.875 -0.0085538 274.001 0.0235874C274.127 0.0557287 274.243 0.12249 274.334 0.216491C274.425 0.310491 274.488 0.428065 274.517 0.556202C274.546 0.68434 274.539 0.818049 274.498 0.942534Z" fill="#6850F3"/>
<path d="M268.105 4.29466L261.299 10.8842L259.939 15.0871C259.907 15.1862 259.846 15.2731 259.764 15.3365C259.682 15.4 259.583 15.4369 259.479 15.4426C259.376 15.4482 259.274 15.4223 259.185 15.3682C259.097 15.3141 259.027 15.2344 258.984 15.1395L256.195 8.92064L267.832 3.88131C267.886 3.85767 267.947 3.8539 268.003 3.87066C268.059 3.88741 268.108 3.92363 268.141 3.97296C268.173 4.02228 268.187 4.08156 268.181 4.14039C268.174 4.19921 268.147 4.25383 268.105 4.29466Z" fill="#6850F3"/>
<path d="M261.295 47.0947H170.579C165.051 47.0947 160.57 51.6111 160.57 57.1823V228.97C160.57 234.541 165.051 239.058 170.579 239.058H261.295C266.823 239.058 271.304 234.541 271.304 228.97V57.1823C271.304 51.6111 266.823 47.0947 261.295 47.0947Z" fill="#6850F3"/>
<path d="M266.589 57.184V228.973C266.585 230.386 266.025 231.74 265.033 232.738C264.04 233.737 262.695 234.298 261.293 234.299H170.579C169.178 234.297 167.834 233.736 166.844 232.737C165.853 231.739 165.295 230.385 165.294 228.973V57.184C165.295 55.7706 165.852 54.4153 166.842 53.4148C167.833 52.4143 169.176 51.8501 170.579 51.8457H195.694V54.686C195.694 55.5638 196.039 56.4058 196.653 57.0276C197.268 57.6494 198.102 58.0003 198.973 58.0032H232.901C233.333 58.0028 233.76 57.9167 234.158 57.7497C234.557 57.5827 234.919 57.3381 235.223 57.03C235.528 56.7219 235.769 56.3563 235.934 55.9541C236.098 55.5519 236.182 55.121 236.181 54.686V51.8457H261.296C262.699 51.8506 264.043 52.4148 265.035 53.4149C266.027 54.4151 266.586 55.7701 266.589 57.184Z" fill="white"/>
<path d="M227.92 52.5472C227.92 52.9053 227.779 53.2487 227.527 53.502C227.276 53.7552 226.936 53.8976 226.58 53.8978H212.919C212.563 53.8978 212.222 53.7555 211.971 53.5022C211.72 53.2489 211.578 52.9054 211.578 52.5472C211.579 52.1891 211.72 51.8457 211.971 51.5926C212.222 51.3395 212.563 51.1973 212.919 51.1973H226.58C226.935 51.1975 227.276 51.3398 227.527 51.5929C227.778 51.846 227.919 52.1892 227.92 52.5472Z" fill="white"/>
<path d="M207.482 52.5472C207.482 52.9053 207.341 53.2487 207.09 53.502C206.839 53.7552 206.498 53.8976 206.143 53.8978H205.293C204.938 53.8978 204.597 53.7555 204.346 53.5022C204.094 53.2489 203.953 52.9054 203.953 52.5472C203.954 52.1891 204.095 51.8457 204.346 51.5926C204.597 51.3395 204.938 51.1973 205.293 51.1973H206.143C206.498 51.1975 206.838 51.3398 207.09 51.5929C207.341 51.846 207.482 52.1892 207.482 52.5472Z" fill="white"/>
<path d="M222.659 224.545H212.202C210.688 224.545 209.461 225.782 209.461 227.308C209.461 228.833 210.688 230.07 212.202 230.07H222.659C224.173 230.07 225.4 228.833 225.4 227.308C225.4 225.782 224.173 224.545 222.659 224.545Z" fill="white"/>
<path d="M98.3481 144.635C98.2361 144.825 98.1256 145.065 98.2332 145.258C98.3311 145.428 98.5535 145.467 98.7479 145.488C99.3115 145.55 99.9345 145.595 100.388 145.247C100.694 145.009 100.859 144.622 100.907 144.235C100.954 143.848 100.907 143.455 100.859 143.068C100.82 142.76 100.736 142.396 100.445 142.287C100.055 142.147 99.5637 142.64 99.3479 142.933C98.9674 143.454 98.6759 144.076 98.3481 144.635Z" fill="#FEE1BC"/>
<path d="M163.38 100.236L143.528 132.096C143.139 132.719 142.323 133.224 141.705 133.224H138.367C138.985 133.224 139.802 132.719 140.19 132.096L160.042 100.236C160.431 99.6134 160.244 99.1074 159.626 99.1074H162.964C163.582 99.1074 163.768 99.6134 163.38 100.236Z" fill="#51383C"/>
<path d="M160.042 100.236L140.189 132.096C139.801 132.72 138.985 133.225 138.366 133.225H121.235C120.616 133.225 120.429 132.72 120.818 132.096L140.671 100.236C141.059 99.6127 141.875 99.1074 142.494 99.1074H159.626C160.244 99.1074 160.43 99.6127 160.042 100.236Z" fill="#8A4852"/>
<path d="M126.241 126.165L140.062 103.983C140.412 103.422 141.147 102.967 141.704 102.967H155.604C156.161 102.967 156.329 103.422 155.975 103.983L142.153 126.165C141.804 126.725 141.069 127.181 140.512 127.181H126.615C126.059 127.181 125.89 126.728 126.241 126.165Z" fill="white"/>
<path d="M147.084 112.196C145.742 114.973 142.338 117.222 139.481 117.222C136.624 117.222 135.395 114.973 136.737 112.196C138.079 109.419 141.484 107.17 144.341 107.17C147.199 107.17 148.428 109.419 147.084 112.196Z" fill="#D0CEF2"/>
<path d="M145.539 112.196C144.598 114.14 142.211 115.72 140.207 115.72C138.203 115.72 137.341 114.143 138.283 112.196C139.225 110.249 141.61 108.672 143.615 108.672C145.62 108.672 146.481 110.249 145.539 112.196Z" fill="#6EB954"/>
<path d="M140.722 113.309C140.683 113.309 140.645 113.305 140.608 113.295C140.554 113.284 140.505 113.256 140.467 113.216C140.43 113.176 140.405 113.125 140.397 113.071L140.269 112.174C140.235 111.937 140.461 111.629 140.774 111.484C141.087 111.34 141.367 111.415 141.403 111.651L141.469 112.115L143.398 111.225C143.71 111.081 143.991 111.155 144.027 111.391C144.064 111.627 143.837 111.936 143.523 112.08L141.027 113.233C140.932 113.28 140.828 113.306 140.722 113.309Z" fill="#36712D"/>
<path d="M133.92 130.118C133.623 130.598 132.994 130.986 132.518 130.986H129.233C128.758 130.986 128.614 130.598 128.913 130.118C129.209 129.639 129.84 129.25 130.315 129.25H133.6C134.076 129.25 134.219 129.639 133.92 130.118Z" fill="#51383C"/>
<path d="M152.162 101.412C152.028 101.627 151.747 101.8 151.534 101.8H149.245C149.032 101.8 148.967 101.627 149.102 101.412C149.235 101.198 149.516 101.024 149.728 101.024H152.019C152.231 101.024 152.295 101.198 152.162 101.412Z" fill="#51383C"/>
<path d="M148.174 101.411C148.041 101.626 147.759 101.799 147.547 101.799H147.228C147.015 101.799 146.95 101.626 147.085 101.411C147.218 101.197 147.498 101.023 147.711 101.023H148.03C148.243 101.023 148.308 101.197 148.174 101.411Z" fill="#51383C"/>
<path d="M112.442 245.001H78.4559C76.7501 238.537 74.9783 231.837 74.9175 231.805L70.7881 245.001H36.1393C36.2929 241.178 36.568 236.8 37.0167 232.412C38.0461 222.598 40.0144 212.794 43.7656 209.341C43.9792 209.146 44.1936 208.961 44.4175 208.786C50.3833 203.884 61.9255 201.386 73.5907 201.294C78.1585 201.253 82.747 201.582 87.03 202.292C94.4464 203.504 100.908 205.826 104.721 209.269H104.732C104.762 209.29 104.782 209.321 104.813 209.344C106.903 211.256 108.433 215.13 109.554 219.888C111.371 227.511 112.126 237.375 112.442 245.001Z" fill="#22215B"/>
<path d="M109.556 219.886C109.334 220.157 109.073 220.392 108.781 220.584C107.967 221.089 107.042 221.386 106.088 221.448C104.1 221.602 102.163 220.944 100.246 220.379C88.0199 216.741 74.7949 216.576 62.477 219.886C60.3463 220.461 58.1755 221.17 56.5632 222.681C53.6708 225.383 53.3615 230.155 55.1051 233.728C56.8487 237.301 60.2224 239.812 63.8031 241.487C65.2307 242.155 66.7296 242.73 67.9837 243.686C68.4795 244.056 68.9162 244.499 69.2786 245.002H36.1391C36.2926 241.179 36.5678 236.801 37.0165 232.413C38.0459 222.598 40.0142 212.795 43.7654 209.342C43.979 209.146 44.1934 208.962 44.4173 208.787C47.2422 208.889 50.0976 209.208 52.8609 208.633C56.2458 207.934 59.2027 205.971 62.3228 204.491C65.8763 202.802 69.6845 201.722 73.5905 201.295C78.0935 200.783 82.6518 201.122 87.0313 202.295C88.7149 202.738 90.3616 203.313 91.9565 204.014C96.1839 205.864 100.205 208.574 104.722 209.276H104.733C104.763 209.297 104.783 209.327 104.814 209.35C106.904 211.253 108.434 215.128 109.556 219.886Z" fill="#22215B"/>
<path d="M93.9362 86.3533C93.9362 86.3533 95.5456 94.0184 93.9444 95.4349C93.0381 96.2376 90.3704 94.9864 90.3704 94.9864C90.2687 95.6898 90.1201 96.3855 89.9254 97.0688C89.7537 97.7009 89.5305 98.3177 89.2579 98.9128C88.7751 99.9457 88.1232 100.902 87.2169 101.397C84.837 102.702 78.7392 99.3994 78.7392 99.3994L76.5032 109.881L58.1461 105.515L60.7374 92.6439C60.7374 92.6439 59.111 85.9609 62.3378 69.265C65.5647 52.5692 88.0669 62.7697 93.3859 67.5922C97.7727 71.5612 93.9362 86.3533 93.9362 86.3533Z" fill="url(#paint0_linear_541_6305)"/>
<path d="M53.7916 110.59C53.7916 110.59 51.646 100.234 59.6238 101.499C67.6017 102.763 78.3028 107.161 80.8622 110.59C81.8182 111.87 82.6548 116.738 82.6548 116.738L53.7916 110.59Z" fill="#FF902A"/>
<path d="M107.001 212.34C99.4277 218.785 33.8251 216.825 37.9545 210.176C43.0503 201.985 32.0214 150.361 36.739 127.486C37.1201 125.581 37.7055 123.722 38.4848 121.944C46.094 104.678 68.39 109.341 68.39 109.341C68.39 109.341 84.6319 111.434 96.1363 128.138C101.091 135.344 105.55 154.925 107.898 173.449C110.245 191.938 110.481 209.368 107.001 212.34Z" fill="#6850F3"/>
<path d="M107.001 212.341C99.4277 218.785 33.8251 216.825 37.9545 210.177C43.0503 201.985 32.0214 150.362 36.739 127.487C37.1201 125.581 37.7055 123.723 38.4848 121.944C40.6356 125.383 41.8474 129.922 42.7908 133.371C44.5639 139.887 45.324 146.641 45.0439 153.392C44.808 158.694 43.9351 164.045 44.7613 169.288C45.5771 174.531 48.5593 179.87 53.5616 181.569C58.1272 183.115 63.9187 181.557 67.3636 184.97C71.41 188.989 68.5435 196.039 70.3131 201.473C71.5991 205.455 75.3147 208.19 79.2076 209.652C86.4275 212.351 95.0861 211.305 100.996 206.347C106.907 201.377 109.467 192.472 106.435 185.351C103.792 179.12 97.8435 174.922 91.7947 171.963C77.0909 164.77 76.9997 158.569 72.8473 153.23C79.0771 153.588 87.7483 162.2 93.5294 164.568C98.755 166.708 103.69 169.68 107.898 173.45C110.245 191.939 110.481 209.369 107.001 212.341Z" fill="#6850F3"/>
<path d="M154.1 126.359C154.1 130.302 152.076 133.016 150.187 134.698C147.19 137.361 146.487 138.884 146.487 138.884C139.559 153.914 120.089 171.608 111.323 172.658C108.647 172.983 103.328 170.798 97.0778 167.119V140.854L110.154 148.758L113.584 150.832L137.502 133.075C137.502 133.075 138.688 131.676 138.086 125.232C137.484 118.787 143.447 117.413 145.175 116.953C146.902 116.492 148.986 109.27 150.857 113C152.728 116.73 148.385 119.582 147.538 121.749C146.691 123.917 147.271 126.093 147.271 126.093L151.995 118.511C153.857 121.719 154.1 124.036 154.1 126.359Z" fill="#F7A386"/>
<path d="M154.1 126.359C154.1 130.302 152.076 133.017 150.187 134.699C147.19 137.361 146.487 138.884 146.487 138.884C139.559 153.915 120.089 171.609 111.323 172.659C108.647 172.983 103.328 170.798 97.0778 167.119V140.855L110.154 148.758C110.194 149.518 110.126 150.28 109.951 151.02C109.35 153.546 107.875 155.834 107.529 158.403C107.183 160.971 108.613 164.165 111.196 164.225C112.976 164.267 114.448 162.79 115.261 161.203C116.074 159.615 116.472 157.814 117.387 156.278C119.995 151.908 125.729 150.971 130.328 148.835C134.036 147.119 137.204 144.44 140.33 141.785C144.877 137.936 149.544 133.932 152.27 128.606C152.72 127.724 153.245 126.717 154.1 126.359Z" fill="url(#paint1_linear_541_6305)"/>
<path d="M145.437 117.865C143.709 118.327 137.747 119.709 138.349 126.145C138.95 132.581 137.764 133.989 137.764 133.989L113.848 151.743L110.418 149.669L97.3411 141.765V167.268C97.2566 167.218 97.1639 167.167 97.0786 167.119V140.854L110.155 148.758L113.585 150.832L137.502 133.075C137.502 133.075 138.688 131.676 138.086 125.232C137.484 118.787 143.447 117.413 145.175 116.953C146.902 116.492 148.986 109.27 150.857 113C151.056 113.39 151.196 113.807 151.273 114.238C151.23 114.136 151.179 114.025 151.12 113.914C149.248 110.184 147.165 117.396 145.437 117.865Z" fill="#FEE1BC"/>
<path d="M81.2113 121.341C81.2113 121.341 101.114 133.866 105.523 146.627C108.526 155.319 102.522 173.087 96.277 172.689C90.0324 172.29 72.6869 159.322 66.9384 138.883L81.2113 121.341Z" fill="#6850F3"/>
<path d="M101.914 70.061C101.89 70.203 101.866 70.3338 101.84 70.4653C101.722 71.0476 101.58 71.594 101.439 72.1097C98.3718 82.4171 88.0615 77.7328 77.1022 75.557C76.5831 75.4503 76.0758 75.3554 75.5804 75.2722C78.01 77.5549 73.3621 86.1506 73.3503 82.7624C72.3476 80.0275 70.3422 76.3896 66.7445 77.007C63.3937 77.5781 62.509 85.0915 67.6293 90.1809C67.7116 90.2639 67.8058 90.3468 67.9007 90.4418L70.0826 92.6535C71.4865 94.2702 72.6546 96.2323 71.4042 97.7182C68.9501 100.679 58.9231 99.8582 55.6436 97.8849C54.0624 96.9334 53.0249 95.1978 52.3989 92.8672C52.3047 92.5107 52.2105 92.1302 52.1401 91.7378C51.0781 86.4234 51.8331 78.5886 53.4491 70.0042C54.2983 65.5456 55.7853 62.0386 57.7551 59.3395C59.0742 57.4971 60.7321 55.9272 62.6388 54.715C77.3381 45.4167 101.415 59.3754 101.958 68.8508C102.002 69.2542 101.987 69.6619 101.914 70.061Z" fill="#22215B"/>
<path d="M89.6502 85.3032C89.6493 85.4985 89.706 85.6897 89.8129 85.8526C89.9199 86.0155 90.0723 86.1427 90.2511 86.2183C90.4298 86.2938 90.6267 86.3142 90.817 86.2769C91.0072 86.2396 91.1822 86.1463 91.3198 86.0088C91.4574 85.8713 91.5514 85.6957 91.59 85.5043C91.6286 85.3129 91.61 85.1142 91.5365 84.9335C91.4631 84.7527 91.3381 84.598 91.1774 84.4889C91.0167 84.3797 90.8274 84.3211 90.6336 84.3203C90.505 84.3196 90.3775 84.3445 90.2584 84.3936C90.1393 84.4426 90.031 84.5149 89.9396 84.6062C89.8483 84.6975 89.7757 84.806 89.726 84.9257C89.6764 85.0453 89.6506 85.1736 89.6502 85.3032Z" fill="#111D33"/>
<path d="M92.8162 85.1824C92.8059 85.2026 92.7866 85.2123 92.7762 85.2026C92.1547 85.0232 91.2551 84.707 90.6529 84.5082C90.2079 84.7668 88.7246 85.657 88.1446 85.6974C88.1343 85.6967 88.1246 85.6921 88.1174 85.6847C88.1101 85.6773 88.1059 85.6674 88.1053 85.657C88.1047 85.6516 88.1053 85.6462 88.107 85.641C88.1086 85.6359 88.1114 85.6311 88.115 85.6271C88.4902 85.1786 90.0217 84.2593 90.5149 84.041L90.5446 84.0306C90.5708 84.0181 90.5994 84.0117 90.6284 84.0117C90.6574 84.0117 90.686 84.0181 90.7122 84.0306C91.3241 84.3385 92.1955 84.8139 92.7962 85.1428C92.8162 85.1525 92.8259 85.1697 92.8162 85.1824Z" fill="#111D33"/>
<path d="M90.7493 85.3697C90.749 85.4207 90.7638 85.4707 90.7917 85.5133C90.8196 85.5558 90.8594 85.5891 90.9061 85.6089C90.9528 85.6287 91.0042 85.634 91.0539 85.6243C91.1036 85.6146 91.1494 85.5902 91.1853 85.5543C91.2213 85.5184 91.2459 85.4725 91.2559 85.4225C91.266 85.3725 91.2611 85.3206 91.2419 85.2733C91.2227 85.2261 91.1901 85.1857 91.148 85.1572C91.106 85.1287 91.0566 85.1134 91.0059 85.1133C90.9724 85.1131 90.9391 85.1196 90.908 85.1324C90.877 85.1451 90.8487 85.164 90.8248 85.1878C90.801 85.2116 90.7821 85.2399 90.7691 85.2711C90.7561 85.3024 90.7494 85.3358 90.7493 85.3697Z" fill="#FCFCFC"/>
<path d="M89.8788 81.7516C88.7411 81.8532 87.6768 82.3331 86.62 82.7689C86.4301 82.8436 86.1809 82.9124 86.0437 82.7584C85.9466 82.6485 85.9614 82.4796 85.9963 82.3368C86.2002 81.5012 86.8677 80.8539 87.599 80.4092C88.3377 79.9644 89.1586 79.6758 90.0116 79.5611C90.8646 79.4463 91.7319 79.5078 92.5605 79.7417C92.8477 79.8206 93.1251 79.9319 93.3875 80.0735C93.6823 80.2269 93.9323 80.4552 94.1128 80.7358C94.2017 80.8765 94.2597 81.0347 94.2829 81.1999C94.3061 81.365 94.2938 81.5333 94.247 81.6933C93.937 82.6268 93.0307 82.1769 92.3751 82.0147C91.5608 81.8129 90.719 81.6761 89.8788 81.7516Z" fill="#111D33"/>
<path d="M89.9219 97.0642C89.7502 97.6963 89.527 98.3131 89.2544 98.9081L89.1276 98.8827C87.7385 98.6181 87.1993 97.5171 86.9338 96.4416C86.9228 96.3904 86.927 96.3371 86.946 96.2883C86.9649 96.2396 86.9976 96.1975 87.0401 96.1675C87.0827 96.1374 87.133 96.1206 87.185 96.1192C87.2369 96.1179 87.2881 96.132 87.3321 96.1598C88.1261 96.6339 89.007 96.9415 89.9219 97.0642Z" fill="#E27659"/>
<path d="M194.12 143.844H182.223C181.888 143.844 181.568 143.71 181.331 143.472C181.095 143.233 180.962 142.91 180.962 142.573V131.418C180.962 131.081 181.095 130.758 181.331 130.52C181.568 130.281 181.888 130.147 182.223 130.147C182.557 130.147 182.878 130.281 183.114 130.52C183.351 130.758 183.483 131.081 183.483 131.418V141.302H194.123C194.457 141.302 194.778 141.436 195.014 141.675C195.251 141.913 195.384 142.236 195.384 142.573C195.384 142.91 195.251 143.233 195.014 143.472C194.778 143.71 194.457 143.844 194.123 143.844H194.12Z" fill="#4C5C75"/>
<path d="M182.223 89.3416C181.888 89.3416 181.568 89.2078 181.331 88.9695C181.095 88.7312 180.962 88.408 180.962 88.071V76.925C180.962 76.588 181.095 76.2648 181.331 76.0265C181.568 75.7882 181.888 75.6543 182.223 75.6543H194.124C194.458 75.6543 194.779 75.7882 195.015 76.0265C195.252 76.2648 195.385 76.588 195.385 76.925C195.385 77.262 195.252 77.5852 195.015 77.8235C194.779 78.0618 194.458 78.1956 194.124 78.1956H183.483V88.0702C183.483 88.2372 183.451 88.4025 183.388 88.5567C183.324 88.711 183.231 88.8511 183.114 88.9692C182.997 89.0873 182.858 89.181 182.705 89.2449C182.552 89.3088 182.388 89.3416 182.223 89.3416Z" fill="#4C5C75"/>
<path d="M252.317 89.3416C251.982 89.3416 251.662 89.2078 251.425 88.9695C251.189 88.7312 251.056 88.408 251.056 88.071V78.1956H240.404C240.07 78.1956 239.749 78.0618 239.513 77.8235C239.276 77.5852 239.144 77.262 239.144 76.925C239.144 76.588 239.276 76.2648 239.513 76.0265C239.749 75.7882 240.07 75.6543 240.404 75.6543H252.317C252.651 75.6543 252.972 75.7882 253.208 76.0265C253.445 76.2648 253.577 76.588 253.577 76.925V88.0702C253.578 88.2372 253.545 88.4025 253.482 88.5567C253.418 88.711 253.325 88.8511 253.208 88.9692C253.091 89.0873 252.952 89.181 252.799 89.2449C252.646 89.3088 252.482 89.3416 252.317 89.3416Z" fill="#4C5C75"/>
<path d="M252.317 143.844H240.404C240.07 143.844 239.749 143.71 239.513 143.472C239.276 143.233 239.144 142.91 239.144 142.573C239.144 142.236 239.276 141.913 239.513 141.675C239.749 141.436 240.07 141.302 240.404 141.302H251.055V131.418C251.055 131.081 251.188 130.758 251.424 130.52C251.661 130.281 251.981 130.147 252.316 130.147C252.65 130.147 252.971 130.281 253.207 130.52C253.444 130.758 253.577 131.081 253.577 131.418V142.573C253.577 142.91 253.444 143.233 253.208 143.471C252.971 143.71 252.651 143.844 252.317 143.844Z" fill="#4C5C75"/>
<path d="M195.336 100.092H203.239C204.44 100.09 205.591 99.6089 206.441 98.7532C207.29 97.8975 207.768 96.7372 207.769 95.527V87.5561C207.768 86.3459 207.29 85.1858 206.441 84.3302C205.591 83.4746 204.44 82.9934 203.239 82.9922H195.336C194.135 82.9934 192.983 83.4746 192.134 84.3302C191.285 85.1858 190.807 86.3459 190.806 87.5561V95.527C190.807 96.7372 191.285 97.8975 192.134 98.7532C192.983 99.6089 194.135 100.09 195.336 100.092ZM193.881 87.5561C193.882 87.1675 194.035 86.7949 194.308 86.5201C194.58 86.2453 194.95 86.0908 195.336 86.0904H203.239C203.625 86.0908 203.995 86.2453 204.267 86.5201C204.54 86.7949 204.694 87.1674 204.694 87.5561V95.527C204.694 95.9157 204.54 96.2883 204.267 96.563C203.995 96.8378 203.625 96.9923 203.239 96.9927H195.336C194.95 96.9923 194.58 96.8378 194.308 96.563C194.035 96.2882 193.882 95.9156 193.881 95.527V87.5561Z" fill="#D0CEF2"/>
<path d="M203.239 119.407H195.336C194.135 119.409 192.983 119.89 192.134 120.746C191.285 121.602 190.807 122.762 190.806 123.973V131.942C190.807 133.152 191.285 134.313 192.134 135.169C192.983 136.025 194.135 136.506 195.336 136.507H203.239C204.44 136.506 205.592 136.025 206.441 135.169C207.29 134.313 207.768 133.152 207.769 131.942V123.973C207.768 122.762 207.29 121.602 206.441 120.746C205.592 119.89 204.44 119.409 203.239 119.407ZM204.694 131.942C204.694 132.331 204.54 132.703 204.268 132.978C203.995 133.253 203.625 133.408 203.239 133.408H195.336C194.95 133.408 194.58 133.253 194.307 132.978C194.035 132.703 193.881 132.331 193.881 131.942V123.973C193.881 123.584 194.035 123.211 194.307 122.936C194.58 122.662 194.95 122.507 195.336 122.507H203.239C203.625 122.507 203.995 122.662 204.268 122.936C204.54 123.211 204.694 123.584 204.694 123.973V131.942Z" fill="#D0CEF2"/>
<path d="M239.192 82.9922H231.288C230.087 82.9934 228.936 83.4746 228.087 84.3302C227.238 85.1858 226.76 86.3459 226.758 87.5561V95.527C226.76 96.7372 227.238 97.8975 228.087 98.7532C228.936 99.6089 230.087 100.09 231.288 100.092H239.192C240.393 100.09 241.544 99.6089 242.393 98.7532C243.242 97.8975 243.72 96.7372 243.722 95.527V87.5561C243.72 86.3459 243.242 85.1858 242.393 84.3302C241.544 83.4746 240.393 82.9934 239.192 82.9922ZM240.646 95.527C240.646 95.9156 240.492 96.2882 240.22 96.563C239.947 96.8378 239.577 96.9923 239.192 96.9927H231.288C230.903 96.9923 230.533 96.8378 230.26 96.563C229.988 96.2882 229.834 95.9156 229.834 95.527V87.5561C229.834 87.1675 229.988 86.7949 230.26 86.5201C230.533 86.2453 230.903 86.0908 231.288 86.0904H239.192C239.577 86.0908 239.947 86.2453 240.22 86.5201C240.492 86.7949 240.646 87.1675 240.646 87.5561V95.527Z" fill="#D0CEF2"/>
<path d="M239.147 89.7031V93.3821C239.147 93.9385 238.927 94.472 238.536 94.8655C238.146 95.259 237.617 95.4803 237.065 95.4809H233.414C232.862 95.4803 232.333 95.259 231.942 94.8656C231.551 94.4721 231.332 93.9386 231.331 93.3821V89.7031C231.331 89.1464 231.551 88.6126 231.942 88.2189C232.332 87.8252 232.862 87.6039 233.414 87.6035H237.065C237.617 87.6041 238.146 87.8255 238.537 88.2192C238.927 88.6128 239.147 89.1465 239.147 89.7031Z" fill="#D0CEF2"/>
<path d="M203.195 89.7031V93.3821C203.195 93.9385 202.975 94.472 202.585 94.8655C202.194 95.259 201.665 95.4803 201.113 95.4809H197.463C196.91 95.4803 196.381 95.259 195.99 94.8656C195.6 94.4721 195.38 93.9386 195.379 93.3821V89.7031C195.38 89.1464 195.599 88.6126 195.99 88.2189C196.381 87.8252 196.91 87.6039 197.463 87.6035H201.113C201.665 87.6041 202.195 87.8255 202.585 88.2192C202.976 88.6128 203.195 89.1465 203.195 89.7031Z" fill="#D0CEF2"/>
<path d="M203.195 126.118V129.797C203.195 130.354 202.976 130.887 202.585 131.281C202.195 131.675 201.665 131.896 201.113 131.897H197.463C196.91 131.896 196.381 131.675 195.99 131.281C195.6 130.887 195.38 130.354 195.379 129.797V126.118C195.38 125.561 195.6 125.028 195.99 124.634C196.381 124.241 196.91 124.019 197.463 124.019H201.113C201.665 124.019 202.195 124.241 202.585 124.634C202.976 125.028 203.195 125.562 203.195 126.118Z" fill="#D0CEF2"/>
<path d="M222.816 84.6182H210.862C210.454 84.6182 210.063 84.7814 209.775 85.072C209.486 85.3626 209.324 85.7567 209.324 86.1676C209.324 86.5786 209.486 86.9727 209.775 87.2633C210.063 87.5539 210.454 87.7171 210.862 87.7171H221.278V95.1169C221.278 95.5278 221.44 95.9219 221.728 96.2125C222.017 96.5031 222.408 96.6664 222.816 96.6664C223.223 96.6664 223.614 96.5031 223.903 96.2125C224.191 95.9219 224.353 95.5278 224.353 95.1169V86.1676C224.353 85.7567 224.191 85.3626 223.903 85.072C223.614 84.7814 223.223 84.6182 222.816 84.6182Z" fill="#D0CEF2"/>
<path d="M215.805 94.886C216.213 94.886 216.604 94.7228 216.892 94.4322C217.18 94.1416 217.342 93.7475 217.342 93.3366C217.342 92.9256 217.18 92.5315 216.892 92.2409C216.604 91.9504 216.213 91.7871 215.805 91.7871H210.862C210.454 91.7871 210.063 91.9504 209.775 92.2409C209.486 92.5315 209.324 92.9256 209.324 93.3366C209.324 93.7475 209.486 94.1416 209.775 94.4322C210.063 94.7228 210.454 94.886 210.862 94.886H215.805Z" fill="#D0CEF2"/>
<path d="M222.816 98.5967H212.376C211.968 98.5967 211.577 98.7599 211.288 99.0505C211 99.3411 210.838 99.7352 210.838 100.146C210.838 100.557 211 100.951 211.288 101.242C211.577 101.532 211.968 101.696 212.376 101.696H217.715V106.159H214.039C213.631 106.159 213.24 106.323 212.952 106.613C212.664 106.904 212.502 107.298 212.502 107.709C212.502 108.12 212.664 108.514 212.952 108.805C213.24 109.095 213.631 109.258 214.039 109.258H222.607C223.015 109.258 223.406 109.095 223.694 108.805C223.983 108.514 224.145 108.12 224.145 107.709C224.145 107.298 223.983 106.904 223.694 106.613C223.406 106.323 223.015 106.159 222.607 106.159H220.792V101.696H222.813C223.221 101.696 223.612 101.532 223.9 101.242C224.189 100.951 224.351 100.557 224.351 100.146C224.351 99.7352 224.189 99.3411 223.9 99.0505C223.612 98.7599 223.221 98.5967 222.813 98.5967H222.816Z" fill="#D0CEF2"/>
<path d="M229.91 113.81C230.318 113.81 230.709 113.646 230.997 113.356C231.286 113.065 231.448 112.671 231.448 112.26V103.23C231.448 102.819 231.286 102.425 230.997 102.135C230.709 101.844 230.318 101.681 229.91 101.681C229.502 101.681 229.111 101.844 228.823 102.135C228.535 102.425 228.373 102.819 228.373 103.23V112.26C228.373 112.671 228.535 113.065 228.823 113.356C229.111 113.646 229.502 113.81 229.91 113.81Z" fill="#D0CEF2"/>
<path d="M240.862 113.809C241.27 113.809 241.661 113.646 241.949 113.356C242.238 113.065 242.4 112.671 242.4 112.26V103.23C242.391 102.825 242.225 102.439 241.937 102.156C241.65 101.873 241.264 101.714 240.862 101.714C240.46 101.714 240.074 101.873 239.786 102.156C239.499 102.439 239.333 102.825 239.324 103.23V106.433H236.984C236.576 106.433 236.185 106.596 235.897 106.887C235.609 107.177 235.447 107.571 235.447 107.982C235.447 108.393 235.609 108.787 235.897 109.078C236.185 109.369 236.576 109.532 236.984 109.532H239.324V112.26C239.324 112.671 239.486 113.065 239.775 113.356C240.063 113.646 240.454 113.809 240.862 113.809Z" fill="#D0CEF2"/>
<path d="M193.76 110.143C194.167 110.143 194.558 109.98 194.847 109.689C195.135 109.399 195.297 109.004 195.297 108.594V102.808C195.297 102.397 195.135 102.003 194.847 101.713C194.558 101.422 194.167 101.259 193.76 101.259C193.352 101.259 192.961 101.422 192.672 101.713C192.384 102.003 192.222 102.397 192.222 102.808V108.595C192.223 109.006 192.385 109.399 192.673 109.69C192.961 109.98 193.352 110.143 193.76 110.143Z" fill="#D0CEF2"/>
<path d="M206.591 103.93C206.591 103.519 206.429 103.125 206.141 102.835C205.853 102.544 205.462 102.381 205.054 102.381H200.583C200.176 102.381 199.785 102.544 199.496 102.835C199.208 103.125 199.046 103.519 199.046 103.93C199.046 104.341 199.208 104.735 199.496 105.026C199.785 105.317 200.176 105.48 200.583 105.48H203.517V107.498C203.517 107.909 203.679 108.303 203.967 108.594C204.255 108.884 204.646 109.047 205.054 109.047H208.848C209.255 109.047 209.646 108.884 209.935 108.594C210.223 108.303 210.385 107.909 210.385 107.498C210.385 107.087 210.223 106.693 209.935 106.402C209.646 106.112 209.255 105.948 208.848 105.948H206.589L206.591 103.93Z" fill="#D0CEF2"/>
<path d="M193.464 116.693H201.407C201.612 116.698 201.815 116.661 202.006 116.585C202.196 116.509 202.37 116.396 202.516 116.252C202.662 116.108 202.779 115.935 202.858 115.745C202.938 115.555 202.978 115.351 202.978 115.144C202.978 114.938 202.938 114.734 202.858 114.543C202.779 114.353 202.662 114.181 202.516 114.037C202.37 113.892 202.196 113.779 202.006 113.703C201.815 113.627 201.612 113.591 201.407 113.595H193.464C193.259 113.591 193.055 113.627 192.865 113.703C192.674 113.779 192.501 113.892 192.355 114.037C192.208 114.181 192.092 114.353 192.013 114.543C191.933 114.734 191.892 114.938 191.892 115.144C191.892 115.351 191.933 115.555 192.013 115.745C192.092 115.935 192.208 116.108 192.355 116.252C192.501 116.396 192.674 116.509 192.865 116.585C193.055 116.661 193.259 116.698 193.464 116.693Z" fill="#D0CEF2"/>
<path d="M206.084 115.143C206.084 115.553 206.247 115.947 206.535 116.238C206.823 116.528 207.214 116.691 207.622 116.691H212.376C212.58 116.696 212.784 116.659 212.974 116.583C213.165 116.508 213.338 116.394 213.485 116.25C213.631 116.106 213.747 115.933 213.827 115.743C213.906 115.553 213.947 115.349 213.947 115.142C213.947 114.936 213.906 114.732 213.827 114.541C213.747 114.351 213.631 114.179 213.485 114.035C213.338 113.89 213.165 113.777 212.974 113.701C212.784 113.625 212.58 113.589 212.376 113.593H207.622C207.214 113.593 206.823 113.756 206.535 114.047C206.246 114.338 206.084 114.732 206.084 115.143Z" fill="#D0CEF2"/>
<path d="M222.816 113.595H218.326C218.121 113.591 217.918 113.627 217.727 113.703C217.537 113.779 217.363 113.892 217.217 114.037C217.07 114.181 216.954 114.353 216.875 114.543C216.795 114.734 216.755 114.938 216.755 115.144C216.755 115.351 216.795 115.555 216.875 115.745C216.954 115.935 217.07 116.108 217.217 116.252C217.363 116.396 217.537 116.509 217.727 116.585C217.918 116.661 218.121 116.698 218.326 116.693H221.278V121.149H212.379C211.971 121.149 211.58 121.312 211.291 121.603C211.003 121.893 210.841 122.287 210.841 122.698C210.841 123.109 211.003 123.503 211.291 123.794C211.58 124.085 211.971 124.248 212.379 124.248H222.819C223.226 124.248 223.617 124.085 223.906 123.794C224.194 123.503 224.356 123.109 224.356 122.698V115.142C224.356 114.939 224.316 114.737 224.238 114.549C224.16 114.361 224.047 114.191 223.904 114.047C223.761 113.903 223.591 113.79 223.404 113.712C223.218 113.634 223.018 113.595 222.816 113.595Z" fill="#D0CEF2"/>
<path d="M241.447 117.016H236.984C236.576 117.016 236.185 117.179 235.897 117.47C235.609 117.761 235.447 118.155 235.447 118.566V121.665H231.448V118.178C231.448 117.767 231.286 117.373 230.997 117.083C230.709 116.792 230.318 116.629 229.91 116.629C229.503 116.629 229.112 116.792 228.823 117.083C228.535 117.373 228.373 117.767 228.373 118.178V123.214C228.373 123.625 228.535 124.019 228.823 124.31C229.111 124.601 229.503 124.764 229.91 124.764H236.984C237.392 124.764 237.783 124.601 238.071 124.31C238.36 124.019 238.522 123.625 238.522 123.214V120.115H241.447C241.855 120.115 242.246 119.952 242.534 119.661C242.823 119.371 242.985 118.977 242.985 118.566C242.985 118.155 242.823 117.761 242.534 117.47C242.246 117.179 241.855 117.016 241.447 117.016Z" fill="#D0CEF2"/>
<path d="M240.862 127.54C240.454 127.54 240.063 127.703 239.775 127.994C239.486 128.285 239.324 128.679 239.324 129.09V131.673H235.133V129.09C235.137 128.884 235.101 128.679 235.026 128.487C234.95 128.295 234.838 128.12 234.695 127.972C234.551 127.824 234.38 127.707 234.191 127.627C234.003 127.547 233.8 127.506 233.595 127.506C233.39 127.506 233.187 127.547 232.999 127.627C232.81 127.707 232.639 127.824 232.495 127.972C232.352 128.12 232.24 128.295 232.164 128.487C232.089 128.679 232.053 128.884 232.057 129.09V131.673H227.865V129.09C227.865 128.679 227.703 128.285 227.415 127.994C227.127 127.704 226.736 127.541 226.328 127.541C225.92 127.541 225.529 127.704 225.241 127.994C224.953 128.285 224.791 128.679 224.791 129.09V133.222C224.79 133.426 224.83 133.627 224.907 133.815C224.985 134.003 225.098 134.174 225.241 134.318C225.383 134.462 225.553 134.576 225.74 134.654C225.926 134.732 226.126 134.772 226.328 134.772H240.864C241.066 134.772 241.266 134.732 241.453 134.654C241.639 134.576 241.809 134.462 241.952 134.318C242.094 134.174 242.208 134.003 242.285 133.815C242.362 133.627 242.402 133.426 242.402 133.222V129.09C242.402 128.886 242.362 128.685 242.284 128.497C242.207 128.308 242.094 128.137 241.951 127.993C241.808 127.849 241.638 127.735 241.451 127.657C241.264 127.58 241.064 127.54 240.862 127.54Z" fill="#D0CEF2"/>
<path d="M219.257 127.928H211.915C211.507 127.928 211.116 128.091 210.828 128.382C210.539 128.672 210.377 129.066 210.377 129.477V133.932C210.377 134.343 210.539 134.737 210.828 135.028C211.116 135.318 211.507 135.481 211.915 135.481C212.323 135.481 212.714 135.318 213.002 135.028C213.29 134.737 213.452 134.343 213.452 133.932V131.027H219.259C219.666 131.027 220.057 130.863 220.346 130.573C220.634 130.282 220.796 129.888 220.796 129.477C220.796 129.066 220.634 128.672 220.346 128.382C220.057 128.091 219.666 127.928 219.259 127.928H219.257Z" fill="#D0CEF2"/>
<g opacity="0.5">
<path d="M191.926 98.4971C192.346 98.995 192.869 99.3952 193.458 99.6702C194.047 99.9453 194.688 100.089 195.337 100.091H203.241C203.89 100.089 204.531 99.9452 205.12 99.6701C205.708 99.395 206.231 98.9949 206.652 98.4971H191.926Z" fill="white"/>
<path d="M203.239 119.407H195.336C194.135 119.409 192.983 119.89 192.134 120.746C191.285 121.602 190.807 122.762 190.806 123.973V131.942C190.807 133.152 191.285 134.313 192.134 135.169C192.983 136.025 194.135 136.506 195.336 136.507H203.239C204.44 136.506 205.592 136.025 206.441 135.169C207.29 134.313 207.768 133.152 207.769 131.942V123.973C207.768 122.762 207.29 121.602 206.441 120.746C205.592 119.89 204.44 119.409 203.239 119.407ZM204.694 131.942C204.694 132.331 204.541 132.703 204.268 132.978C203.995 133.253 203.625 133.408 203.239 133.408H195.336C194.95 133.408 194.58 133.253 194.307 132.978C194.035 132.703 193.881 132.331 193.881 131.942V123.973C193.881 123.584 194.035 123.211 194.307 122.936C194.58 122.662 194.95 122.507 195.336 122.507H203.239C203.625 122.507 203.995 122.662 204.268 122.936C204.541 123.211 204.694 123.584 204.694 123.973V131.942Z" fill="white"/>
<path d="M227.878 98.4971C228.299 98.995 228.822 99.3953 229.411 99.6704C230 99.9455 230.641 100.089 231.29 100.091H239.193C239.842 100.089 240.483 99.9455 241.072 99.6704C241.661 99.3953 242.184 98.995 242.605 98.4971H227.878Z" fill="white"/>
<path d="M203.195 126.117V129.796C203.195 130.353 202.976 130.886 202.585 131.28C202.195 131.674 201.665 131.895 201.113 131.896H197.463C196.91 131.895 196.381 131.674 195.99 131.28C195.6 130.886 195.38 130.353 195.379 129.796V126.117C195.38 125.561 195.6 125.027 195.99 124.633C196.381 124.24 196.91 124.018 197.463 124.018H201.113C201.665 124.018 202.195 124.24 202.585 124.633C202.976 125.027 203.195 125.561 203.195 126.117Z" fill="white"/>
<path d="M222.816 98.5967H212.376C211.968 98.5967 211.577 98.7599 211.289 99.0505C211 99.3411 210.838 99.7352 210.838 100.146C210.838 100.557 211 100.951 211.289 101.242C211.577 101.532 211.968 101.696 212.376 101.696H217.716V106.159H214.039C213.631 106.159 213.24 106.323 212.952 106.613C212.664 106.904 212.502 107.298 212.502 107.709C212.502 108.12 212.664 108.514 212.952 108.805C213.24 109.095 213.631 109.258 214.039 109.258H222.607C223.015 109.258 223.406 109.095 223.694 108.805C223.983 108.514 224.145 108.12 224.145 107.709C224.145 107.298 223.983 106.904 223.694 106.613C223.406 106.323 223.015 106.159 222.607 106.159H220.793V101.696H222.814C223.221 101.696 223.612 101.532 223.901 101.242C224.189 100.951 224.351 100.557 224.351 100.146C224.351 99.7352 224.189 99.3411 223.901 99.0505C223.612 98.7599 223.221 98.5967 222.814 98.5967H222.816Z" fill="white"/>
<path d="M229.91 113.809C230.318 113.809 230.709 113.645 230.997 113.355C231.286 113.064 231.448 112.67 231.448 112.259V103.229C231.448 102.818 231.286 102.424 230.997 102.134C230.709 101.843 230.318 101.68 229.91 101.68C229.503 101.68 229.112 101.843 228.823 102.134C228.535 102.424 228.373 102.818 228.373 103.229V112.259C228.373 112.67 228.535 113.064 228.823 113.355C229.112 113.645 229.503 113.809 229.91 113.809Z" fill="white"/>
<path d="M240.862 113.809C241.27 113.809 241.661 113.645 241.949 113.355C242.237 113.064 242.399 112.67 242.399 112.259V103.229C242.391 102.824 242.225 102.438 241.937 102.155C241.65 101.872 241.264 101.713 240.862 101.713C240.46 101.713 240.073 101.872 239.786 102.155C239.499 102.438 239.333 102.824 239.324 103.229V106.432H236.984C236.576 106.432 236.185 106.595 235.897 106.886C235.608 107.176 235.447 107.57 235.447 107.981C235.447 108.392 235.608 108.786 235.897 109.077C236.185 109.368 236.576 109.531 236.984 109.531H239.324V112.259C239.324 112.67 239.486 113.064 239.775 113.355C240.063 113.645 240.454 113.809 240.862 113.809Z" fill="white"/>
<path d="M193.76 110.143C194.167 110.143 194.558 109.98 194.847 109.689C195.135 109.399 195.297 109.004 195.297 108.594V102.808C195.297 102.397 195.135 102.003 194.847 101.713C194.558 101.422 194.167 101.259 193.76 101.259C193.352 101.259 192.961 101.422 192.672 101.713C192.384 102.003 192.222 102.397 192.222 102.808V108.595C192.223 109.006 192.385 109.399 192.673 109.69C192.961 109.98 193.352 110.143 193.76 110.143Z" fill="white"/>
<path d="M206.592 103.93C206.592 103.519 206.43 103.125 206.141 102.835C205.853 102.544 205.462 102.381 205.054 102.381H200.584C200.176 102.381 199.785 102.544 199.496 102.835C199.208 103.125 199.046 103.519 199.046 103.93C199.046 104.341 199.208 104.735 199.496 105.026C199.785 105.317 200.176 105.48 200.584 105.48H203.517V107.498C203.517 107.909 203.679 108.303 203.967 108.594C204.255 108.884 204.646 109.047 205.054 109.047H208.848C209.255 109.047 209.647 108.884 209.935 108.594C210.223 108.303 210.385 107.909 210.385 107.498C210.385 107.087 210.223 106.693 209.935 106.402C209.647 106.112 209.255 105.948 208.848 105.948H206.589L206.592 103.93Z" fill="white"/>
<path d="M193.464 116.692H201.407C201.612 116.697 201.816 116.66 202.006 116.584C202.196 116.509 202.37 116.395 202.516 116.251C202.663 116.107 202.779 115.934 202.858 115.744C202.938 115.554 202.979 115.35 202.979 115.143C202.979 114.937 202.938 114.733 202.858 114.542C202.779 114.352 202.663 114.18 202.516 114.036C202.37 113.891 202.196 113.778 202.006 113.702C201.816 113.626 201.612 113.59 201.407 113.594H193.464C193.259 113.59 193.055 113.626 192.865 113.702C192.675 113.778 192.501 113.891 192.355 114.036C192.208 114.18 192.092 114.352 192.013 114.542C191.933 114.733 191.892 114.937 191.892 115.143C191.892 115.35 191.933 115.554 192.013 115.744C192.092 115.934 192.208 116.107 192.355 116.251C192.501 116.395 192.675 116.509 192.865 116.584C193.055 116.66 193.259 116.697 193.464 116.692Z" fill="white"/>
<path d="M206.084 115.141C206.084 115.551 206.247 115.945 206.535 116.236C206.823 116.526 207.214 116.689 207.622 116.689H212.376C212.58 116.694 212.784 116.657 212.974 116.581C213.165 116.506 213.338 116.392 213.484 116.248C213.631 116.104 213.747 115.931 213.827 115.741C213.906 115.551 213.947 115.347 213.947 115.14C213.947 114.934 213.906 114.73 213.827 114.539C213.747 114.349 213.631 114.177 213.484 114.033C213.338 113.888 213.165 113.775 212.974 113.699C212.784 113.623 212.58 113.587 212.376 113.591H207.622C207.214 113.591 206.823 113.754 206.535 114.045C206.246 114.336 206.084 114.73 206.084 115.141Z" fill="white"/>
<path d="M222.816 113.594H218.326C218.121 113.59 217.918 113.626 217.727 113.702C217.537 113.778 217.363 113.891 217.217 114.036C217.07 114.18 216.954 114.352 216.875 114.542C216.795 114.733 216.755 114.937 216.755 115.143C216.755 115.35 216.795 115.554 216.875 115.744C216.954 115.934 217.07 116.107 217.217 116.251C217.363 116.395 217.537 116.509 217.727 116.584C217.918 116.66 218.121 116.697 218.326 116.692H221.278V121.148H212.379C211.971 121.148 211.58 121.311 211.291 121.602C211.003 121.892 210.841 122.286 210.841 122.697C210.841 123.108 211.003 123.502 211.291 123.793C211.58 124.084 211.971 124.247 212.379 124.247H222.819C223.226 124.247 223.617 124.084 223.906 123.793C224.194 123.502 224.356 123.108 224.356 122.697V115.141C224.356 114.938 224.316 114.736 224.238 114.548C224.16 114.36 224.047 114.19 223.904 114.046C223.761 113.902 223.591 113.789 223.404 113.711C223.218 113.633 223.018 113.594 222.816 113.594Z" fill="white"/>
<path d="M241.447 117.016H236.984C236.576 117.016 236.185 117.179 235.897 117.47C235.608 117.761 235.447 118.155 235.447 118.566V121.665H231.448V118.178C231.448 117.767 231.286 117.373 230.997 117.083C230.709 116.792 230.318 116.629 229.91 116.629C229.502 116.629 229.111 116.792 228.823 117.083C228.535 117.373 228.373 117.767 228.373 118.178V123.214C228.373 123.625 228.535 124.019 228.823 124.31C229.111 124.601 229.502 124.764 229.91 124.764H236.984C237.392 124.764 237.783 124.601 238.071 124.31C238.359 124.019 238.521 123.625 238.521 123.214V120.115H241.447C241.855 120.115 242.246 119.952 242.534 119.661C242.823 119.371 242.985 118.977 242.985 118.566C242.985 118.155 242.823 117.761 242.534 117.47C242.246 117.179 241.855 117.016 241.447 117.016Z" fill="white"/>
<path d="M240.862 127.539C240.454 127.539 240.063 127.703 239.775 127.993C239.486 128.284 239.324 128.678 239.324 129.089V131.672H235.133V129.089C235.137 128.883 235.101 128.678 235.026 128.486C234.95 128.294 234.838 128.119 234.695 127.971C234.551 127.823 234.38 127.706 234.191 127.626C234.003 127.546 233.8 127.505 233.595 127.505C233.39 127.505 233.187 127.546 232.999 127.626C232.81 127.706 232.639 127.823 232.495 127.971C232.352 128.119 232.24 128.294 232.164 128.486C232.089 128.678 232.053 128.883 232.057 129.089V131.672H227.865V129.089C227.865 128.678 227.703 128.284 227.415 127.994C227.127 127.703 226.736 127.54 226.328 127.54C225.92 127.54 225.529 127.703 225.241 127.994C224.953 128.284 224.791 128.678 224.791 129.089V133.221C224.791 133.425 224.83 133.626 224.907 133.814C224.985 134.002 225.098 134.173 225.241 134.317C225.383 134.461 225.553 134.575 225.74 134.653C225.926 134.731 226.126 134.771 226.328 134.771H240.864C241.066 134.771 241.266 134.731 241.453 134.653C241.639 134.575 241.809 134.461 241.952 134.317C242.094 134.173 242.208 134.002 242.285 133.814C242.362 133.626 242.402 133.425 242.402 133.221V129.089C242.402 128.885 242.362 128.684 242.284 128.496C242.207 128.307 242.094 128.136 241.951 127.992C241.808 127.848 241.638 127.734 241.451 127.657C241.264 127.579 241.064 127.539 240.862 127.539Z" fill="white"/>
<path d="M219.257 127.927H211.915C211.507 127.927 211.116 128.09 210.828 128.381C210.539 128.671 210.377 129.065 210.377 129.476V133.931C210.377 134.342 210.539 134.736 210.828 135.027C211.116 135.317 211.507 135.481 211.915 135.481C212.323 135.481 212.714 135.317 213.002 135.027C213.29 134.736 213.452 134.342 213.452 133.931V131.026H219.259C219.666 131.026 220.057 130.862 220.346 130.572C220.634 130.281 220.796 129.887 220.796 129.476C220.796 129.065 220.634 128.671 220.346 128.381C220.057 128.09 219.666 127.927 219.259 127.927H219.257Z" fill="white"/>
</g>
<path d="M251.863 99.7511C251.863 100.117 251.719 100.468 251.462 100.726C251.205 100.985 250.857 101.13 250.494 101.13H184.036C183.673 101.13 183.325 100.985 183.068 100.726C182.812 100.468 182.668 100.117 182.668 99.7511C182.668 99.3854 182.812 99.0346 183.068 98.776C183.325 98.5174 183.673 98.3721 184.036 98.3721H250.494C250.857 98.3721 251.205 98.5174 251.462 98.776C251.719 99.0346 251.863 99.3854 251.863 99.7511Z" fill="white"/>
<path d="M251.863 98.3722C251.863 98.738 251.719 99.0887 251.462 99.3474C251.205 99.606 250.857 99.7513 250.494 99.7513H184.036C183.673 99.7513 183.325 99.606 183.068 99.3474C182.812 99.0887 182.668 98.738 182.668 98.3722C182.668 98.0065 182.812 97.6557 183.068 97.3971C183.325 97.1385 183.673 96.9932 184.036 96.9932H250.494C250.857 96.9932 251.205 97.1385 251.462 97.3971C251.719 97.6557 251.863 98.0065 251.863 98.3722Z" fill="#6850F3"/>
<path d="M240.255 187.505V202.485C240.255 203.125 240.003 203.739 239.554 204.191C239.105 204.644 238.496 204.898 237.861 204.898H189.506C189.192 204.898 188.88 204.835 188.59 204.714C188.299 204.593 188.035 204.415 187.813 204.191C187.591 203.967 187.414 203.701 187.294 203.408C187.174 203.116 187.112 202.802 187.112 202.485V187.505C187.112 187.188 187.174 186.874 187.294 186.581C187.414 186.289 187.591 186.023 187.813 185.798C188.035 185.574 188.299 185.397 188.59 185.275C188.88 185.154 189.192 185.092 189.506 185.092H237.861C238.496 185.092 239.105 185.346 239.554 185.798C240.003 186.251 240.255 186.865 240.255 187.505Z" fill="#9090AD"/>
<path d="M240.253 199.757V202.48C240.253 203.12 240 203.733 239.551 204.186C239.102 204.639 238.493 204.893 237.858 204.893H189.503C188.868 204.893 188.26 204.639 187.811 204.186C187.362 203.733 187.109 203.12 187.109 202.48V201.623C193.796 202.297 200.513 202.631 207.234 202.623C219.525 202.623 230.91 201.564 240.253 199.757Z" fill="#7D7D7D"/>
<path d="M203.854 193.199C203.262 192.978 202.657 192.795 202.042 192.653C201.591 192.555 201.145 192.432 200.707 192.285C200.423 192.191 200.162 192.036 199.943 191.83C199.851 191.74 199.779 191.631 199.731 191.511C199.684 191.391 199.663 191.262 199.668 191.133C199.668 190.688 199.868 190.349 200.278 190.099C200.709 189.835 201.284 189.702 201.984 189.702C202.729 189.701 203.469 189.825 204.174 190.069C204.266 190.111 204.365 190.135 204.465 190.139C204.568 190.141 204.67 190.12 204.764 190.078C204.857 190.035 204.94 189.972 205.007 189.893C205.132 189.748 205.202 189.562 205.203 189.37C205.211 189.208 205.166 189.048 205.074 188.915C204.982 188.782 204.848 188.684 204.695 188.637C203.849 188.322 202.89 188.16 201.844 188.16C201.055 188.16 200.367 188.297 199.8 188.565C199.232 188.834 198.783 189.211 198.486 189.675C198.189 190.14 198.033 190.682 198.038 191.234C198.038 191.891 198.223 192.424 198.589 192.824C198.941 193.209 199.376 193.507 199.86 193.696C200.466 193.924 201.086 194.117 201.714 194.274C202.274 194.424 202.712 194.552 203.018 194.659C203.282 194.746 203.526 194.885 203.736 195.068C203.819 195.138 203.885 195.226 203.929 195.325C203.973 195.424 203.995 195.532 203.992 195.641C203.992 196.612 203.251 197.086 201.717 197.086C200.792 197.092 199.876 196.9 199.029 196.524C198.883 196.456 198.72 196.435 198.562 196.464C198.404 196.493 198.259 196.57 198.146 196.686C198.024 196.817 197.952 196.987 197.94 197.167C197.928 197.347 197.979 197.525 198.082 197.671C198.17 197.803 198.293 197.905 198.438 197.966C199.514 198.43 200.673 198.667 201.843 198.66C202.511 198.671 203.173 198.546 203.791 198.291C204.323 198.075 204.785 197.714 205.126 197.25C205.444 196.807 205.613 196.273 205.608 195.726C205.608 195.045 205.432 194.493 205.082 194.081C204.75 193.69 204.329 193.387 203.854 193.199Z" fill="white"/>
<path d="M210.565 192.371C210.824 192.364 211.082 192.396 211.33 192.467C211.593 192.557 211.847 192.669 212.091 192.801C212.405 192.975 212.749 192.937 212.986 192.673C213.119 192.537 213.194 192.354 213.195 192.164C213.195 192.034 213.162 191.906 213.098 191.793C213.035 191.68 212.943 191.586 212.832 191.519C212.507 191.311 212.158 191.141 211.794 191.013C211.361 190.871 210.908 190.803 210.453 190.812C209.776 190.808 209.107 190.97 208.506 191.285C207.913 191.598 207.416 192.07 207.071 192.65C206.715 193.24 206.534 193.943 206.534 194.735C206.534 195.527 206.715 196.23 207.071 196.819C207.415 197.398 207.912 197.871 208.506 198.183C209.107 198.499 209.775 198.662 210.453 198.657C210.908 198.665 211.361 198.597 211.794 198.455C212.158 198.327 212.506 198.158 212.832 197.95C212.943 197.883 213.034 197.789 213.098 197.676C213.161 197.563 213.194 197.435 213.193 197.305C213.192 197.115 213.117 196.932 212.985 196.796C212.747 196.534 212.41 196.497 212.095 196.666C211.849 196.798 211.593 196.91 211.33 197.001C211.081 197.072 210.823 197.105 210.564 197.098C209.814 197.098 209.219 196.882 208.798 196.452C208.377 196.022 208.162 195.455 208.162 194.733C208.162 194.01 208.371 193.449 208.798 193.014C209.225 192.578 209.812 192.371 210.565 192.371Z" fill="white"/>
<path d="M219.142 191.234C218.673 190.955 218.093 190.813 217.42 190.813C216.562 190.817 215.714 190.995 214.926 191.337C214.784 191.388 214.662 191.484 214.577 191.61C214.492 191.736 214.449 191.886 214.454 192.039C214.452 192.133 214.47 192.227 214.505 192.314C214.54 192.401 214.593 192.48 214.659 192.547C214.723 192.613 214.799 192.665 214.883 192.701C214.967 192.737 215.057 192.755 215.149 192.754C215.229 192.751 215.309 192.738 215.387 192.716C215.681 192.615 215.981 192.532 216.285 192.467C216.585 192.41 216.89 192.383 217.195 192.387C217.788 192.387 218.233 192.509 218.5 192.751C218.752 192.975 218.885 193.362 218.896 193.894H217.377C216.286 193.894 215.441 194.118 214.866 194.551C214.583 194.756 214.353 195.029 214.198 195.345C214.043 195.66 213.967 196.009 213.976 196.361C213.969 196.791 214.086 197.214 214.312 197.579C214.532 197.929 214.846 198.209 215.218 198.386C215.599 198.568 216.016 198.661 216.437 198.658C217.401 198.658 218.223 198.373 218.896 197.811C218.902 198.015 218.985 198.208 219.129 198.352C219.284 198.501 219.491 198.584 219.705 198.584C219.92 198.584 220.126 198.501 220.282 198.352C220.36 198.277 220.422 198.187 220.464 198.087C220.506 197.988 220.527 197.88 220.525 197.772V193.773C220.528 193.273 220.413 192.778 220.19 192.331C219.953 191.871 219.589 191.49 219.142 191.234ZM216.917 197.169C216.432 197.169 216.087 197.081 215.893 196.906C215.798 196.82 215.723 196.713 215.674 196.594C215.625 196.475 215.602 196.347 215.608 196.218C215.608 195.596 216.26 195.282 217.547 195.282H218.898V196.221C218.648 196.492 218.353 196.718 218.026 196.887C217.684 197.071 217.302 197.168 216.915 197.169H216.917Z" fill="white"/>
<path d="M228.741 192.288C228.538 191.847 228.215 191.474 227.809 191.211C227.379 190.942 226.881 190.804 226.375 190.815C225.782 190.815 225.262 190.942 224.83 191.189C224.51 191.374 224.212 191.597 223.945 191.854V191.711C223.946 191.602 223.926 191.495 223.884 191.394C223.843 191.294 223.782 191.203 223.704 191.127C223.628 191.05 223.538 190.989 223.439 190.948C223.34 190.906 223.234 190.885 223.126 190.885C223.019 190.885 222.912 190.906 222.813 190.948C222.714 190.989 222.624 191.05 222.548 191.127C222.473 191.203 222.413 191.295 222.374 191.395C222.334 191.495 222.314 191.602 222.316 191.71V197.769C222.314 197.877 222.334 197.983 222.374 198.082C222.414 198.182 222.474 198.272 222.55 198.347C222.704 198.497 222.911 198.581 223.125 198.581C223.34 198.581 223.546 198.497 223.701 198.347C223.78 198.273 223.842 198.183 223.883 198.083C223.925 197.983 223.946 197.876 223.944 197.767V193.593C224.218 193.244 224.543 192.94 224.908 192.69C225.251 192.463 225.654 192.345 226.065 192.353C226.996 192.353 227.43 192.843 227.43 193.897V197.767C227.428 197.874 227.448 197.981 227.488 198.08C227.528 198.18 227.588 198.27 227.663 198.346C227.738 198.422 227.828 198.482 227.927 198.522C228.025 198.563 228.131 198.583 228.237 198.582C228.344 198.583 228.451 198.563 228.55 198.523C228.65 198.483 228.74 198.423 228.816 198.347C228.895 198.273 228.957 198.183 228.998 198.083C229.04 197.983 229.061 197.875 229.059 197.767V193.756C229.063 193.248 228.955 192.747 228.741 192.288Z" fill="white"/>
<path d="M147.012 29.2385V50.0924C147.017 52.0576 146.584 53.9987 145.745 55.7729C144.907 57.5472 143.685 59.1093 142.168 60.3445L129.389 70.7983C128.646 71.4005 127.722 71.7288 126.769 71.7288C125.816 71.7288 124.892 71.4005 124.15 70.7983L111.371 60.3445C109.854 59.1093 108.632 57.5471 107.793 55.7729C106.955 53.9986 106.522 52.0575 106.527 50.0924V29.2385C106.527 28.8132 106.695 28.4053 106.993 28.1045C107.291 27.8037 107.696 27.6346 108.118 27.6344C109.59 27.6332 111.001 27.0434 112.042 25.9945C113.083 24.9455 113.668 23.5232 113.669 22.0397C113.67 21.615 113.838 21.2079 114.136 20.9079C114.435 20.6079 114.839 20.4395 115.26 20.4395H138.278C138.7 20.4395 139.105 20.6083 139.403 20.909C139.702 21.2097 139.869 21.6175 139.87 22.0427C139.871 23.5262 140.456 24.9485 141.497 25.9975C142.538 27.0464 143.949 27.6362 145.421 27.6374C145.842 27.6376 146.247 27.8063 146.545 28.1064C146.843 28.4065 147.011 28.8136 147.012 29.2385Z" fill="#FF8C34"/>
<path d="M147.014 31.9434V50.0863C147.019 52.0514 146.586 53.9926 145.747 55.7665C144.908 57.5404 143.684 59.1015 142.166 60.3346L129.39 70.7989C128.647 71.3993 127.723 71.7265 126.771 71.7265C125.819 71.7265 124.895 71.3993 124.152 70.7989L118.516 66.1834C134.313 65.8635 147.014 50.6566 147.014 31.9434Z" fill="#EB7820"/>
<path d="M129.226 43.8218L130.73 49.3963C130.756 49.4924 130.76 49.5933 130.741 49.691C130.722 49.7888 130.681 49.8808 130.621 49.96C130.561 50.0391 130.483 50.1033 130.395 50.1474C130.306 50.1916 130.209 50.2147 130.11 50.2147H123.435C123.336 50.2148 123.238 50.1919 123.15 50.1477C123.061 50.1036 122.984 50.0394 122.924 49.9603C122.864 49.8811 122.823 49.789 122.804 49.6912C122.785 49.5934 122.788 49.4925 122.814 49.3963L124.319 43.8218C123.197 43.2584 122.3 42.326 121.776 41.1789C121.251 40.0318 121.131 38.7386 121.434 37.5132C121.738 36.2878 122.448 35.2035 123.446 34.4397C124.444 33.6759 125.671 33.2783 126.924 33.3126C129.972 33.4 132.441 36.1215 132.267 39.1898C132.213 40.1643 131.903 41.1066 131.368 41.9205C130.834 42.7344 130.094 43.3906 129.226 43.8218Z" fill="white"/>
<path d="M131.079 35.4751C130.04 34.6033 128.718 34.149 127.366 34.1992C126.015 34.2494 124.73 34.8006 123.757 35.7471C122.784 36.6936 122.192 37.9687 122.095 39.328C121.997 40.6873 122.401 42.0349 123.229 43.1126C122.356 42.3712 121.733 41.3749 121.446 40.2615C121.16 39.148 121.223 37.9722 121.628 36.8966C122.033 35.821 122.759 34.8986 123.706 34.2569C124.653 33.6152 125.775 33.2858 126.916 33.3142C128.595 33.3628 130.099 34.2134 131.079 35.4751Z" fill="#36712D"/>
<path d="M101.914 70.0606C101.89 70.2026 101.867 70.3334 101.84 70.4649C101.722 71.0472 101.58 71.5936 101.439 72.1093C98.3719 82.4167 88.0616 77.7324 77.1024 75.5566C76.5832 75.4499 76.076 75.355 75.5805 75.2718C78.0102 77.5545 73.3623 86.1502 73.3504 82.762C72.3477 80.0271 70.3423 76.3892 66.7446 77.0066C63.3939 77.5777 62.5091 85.0911 67.6294 90.1805C67.7117 90.2635 67.8059 90.3464 67.9008 90.4414L70.0827 92.6531C71.4867 94.2698 72.6548 96.2319 71.4044 97.7178C68.9503 100.678 58.9233 99.8578 55.6437 97.8845C54.0626 96.933 53.025 95.1974 52.3991 92.8668C52.3049 92.5103 52.2107 92.1299 52.1402 91.7374C52.9451 91.5557 53.7751 91.5155 54.5936 91.6186C57.3896 91.9751 59.8318 93.5919 62.3326 94.9358C63.3353 95.471 64.4559 95.9822 65.5765 95.7804C66.6972 95.5659 67.6643 94.2937 67.157 93.2712C66.6267 92.2009 65.1286 92.2487 63.9842 91.9161C62.0493 91.3689 60.7752 89.3837 60.4451 87.3738C60.1151 85.3639 60.5393 83.3204 60.9643 81.3194C61.3062 79.7378 61.6481 78.145 61.99 76.5522C62.3445 74.9235 62.7101 73.235 63.7009 71.8911C65.317 69.6921 68.2783 68.8953 70.9913 69.0612C73.6931 69.2159 76.2881 70.1675 78.9187 70.8215C81.5493 71.4635 84.4068 71.8081 86.9173 70.7736C89.1585 69.858 90.9866 67.9086 93.3814 67.5402C94.9033 67.3159 96.437 67.7644 97.9232 68.2061C99.2448 68.5978 100.601 68.9783 101.958 68.8474C102.003 69.2518 101.988 69.6606 101.914 70.0606Z" fill="#22215B"/>
</g>
<defs>
<linearGradient id="paint0_linear_541_6305" x1="104.993" y1="92.8345" x2="30.3671" y2="73.23" gradientUnits="userSpaceOnUse">
<stop stop-color="#FEE1BC"/>
<stop offset="1" stop-color="#FD6B58"/>
</linearGradient>
<linearGradient id="paint1_linear_541_6305" x1="97.0778" y1="149.523" x2="154.1" y2="149.523" gradientUnits="userSpaceOnUse">
<stop stop-color="#F7A386"/>
<stop offset="1" stop-color="#FD6B58"/>
</linearGradient>
<clipPath id="clip0_541_6305">
<rect width="302" height="269" fill="white"/>
</clipPath>
</defs>
</svg>
