<svg width="334" height="168" viewBox="0 0 334 168" fill="none" xmlns="http://www.w3.org/2000/svg">
<g clip-path="url(#clip0_550_6983)">
<path d="M290.603 163.896L324.585 164.162L324.922 121.464L290.94 121.199L290.603 163.896Z" fill="#EBEBEB"/>
<path d="M311.629 122.731L311.021 164.075L305.654 164.032L306.803 122.692L311.629 122.731Z" fill="#FAFAFA"/>
<path d="M271.424 122.419L290.923 122.573L324.902 122.837L290.885 127.29L290.6 163.917L271.111 163.763L271.424 122.419Z" fill="#E0E0E0"/>
<path d="M282.038 122.5L281.266 163.844L275.479 163.796L276.424 122.457L282.038 122.5Z" fill="#FAFAFA"/>
<path d="M297.468 109.919C297.468 110.005 296.894 110.111 295.846 110.212C294.366 110.355 292.879 110.421 291.392 110.409C289.145 110.418 286.908 110.126 284.741 109.539C284.404 109.431 284.08 109.286 283.775 109.107C283.417 108.902 283.113 108.616 282.887 108.271C282.654 107.901 282.531 107.473 282.53 107.036C282.531 106.654 282.58 106.273 282.675 105.903C282.979 104.515 283.4 103.155 283.935 101.838C284.23 101.151 284.599 100.497 285.035 99.8879C285.47 99.2623 286.018 98.723 286.652 98.2977C286.992 98.0696 287.372 97.9067 287.772 97.8173C288.179 97.7289 288.6 97.7289 289.007 97.8173C289.701 98.0149 290.342 98.3627 290.885 98.8358C292.641 100.251 294.137 101.96 295.306 103.885C296.092 105.168 296.694 106.554 297.096 108.002C297.362 109.03 297.391 109.616 297.318 109.635C297.106 109.698 296.628 107.387 294.558 104.351C293.342 102.599 291.859 101.048 290.161 99.7534C289.737 99.4004 289.244 99.1402 288.713 98.9895C288.467 98.9413 288.214 98.9436 287.969 98.9965C287.724 99.0494 287.493 99.1517 287.289 99.297C286.793 99.647 286.365 100.083 286.024 100.585C285.644 101.123 285.321 101.7 285.059 102.304C284.558 103.553 284.153 104.838 283.848 106.148C283.671 106.614 283.683 107.131 283.881 107.589C284.188 107.986 284.617 108.273 285.103 108.406C285.652 108.583 286.211 108.731 286.777 108.848C287.332 108.972 287.883 109.069 288.418 109.15C289.485 109.318 290.489 109.414 291.416 109.477C293.264 109.602 294.794 109.626 295.822 109.679C296.85 109.732 297.463 109.832 297.468 109.919Z" fill="#E0E0E0"/>
<path d="M296.763 110.231C296.763 110.144 297.381 109.962 298.525 109.702C299.669 109.443 301.339 109.102 303.352 108.617C305.719 108.073 308.04 107.344 310.292 106.436C310.91 106.203 311.496 105.893 312.035 105.513C312.264 105.351 312.455 105.141 312.594 104.898C312.706 104.682 312.74 104.435 312.691 104.197C312.619 103.88 312.507 103.573 312.358 103.284C312.199 102.943 312.035 102.597 311.875 102.251C311.551 101.564 311.18 100.899 310.765 100.262C310.357 99.6438 309.87 99.0802 309.317 98.5856C308.816 98.1114 308.23 97.7349 307.589 97.4759C307.018 97.2528 306.388 97.2257 305.799 97.399C305.203 97.6079 304.656 97.9348 304.191 98.3598C302.38 99.9388 300.814 101.776 299.544 103.813C298.687 105.192 297.994 106.665 297.478 108.203C297.116 109.304 296.971 109.933 296.874 109.919C296.778 109.904 296.783 109.251 297.005 108.083C297.353 106.432 297.948 104.841 298.771 103.366C299.993 101.17 301.566 99.1874 303.429 97.4951C304.001 96.9444 304.684 96.5203 305.432 96.2508C306.272 95.9851 307.178 96.0071 308.004 96.3133C308.409 96.458 308.794 96.6499 309.153 96.885C309.504 97.116 309.837 97.3713 310.152 97.6488C310.781 98.2145 311.331 98.8607 311.788 99.5705C312.233 100.256 312.632 100.97 312.981 101.708L313.463 102.77C313.658 103.159 313.797 103.573 313.878 104C313.969 104.502 313.886 105.021 313.642 105.47C313.416 105.864 313.107 106.203 312.734 106.464C312.107 106.897 311.426 107.246 310.707 107.502C308.376 108.385 305.967 109.047 303.511 109.481C301.431 109.866 299.737 110.063 298.569 110.183C297.401 110.303 296.778 110.312 296.763 110.231Z" fill="#FAFAFA"/>
<path d="M265.244 122.358L315.196 122.748L315.308 108.615L265.355 108.224L265.244 122.358Z" fill="#E0E0E0"/>
<path d="M283.615 122.497L328.765 122.85L328.877 108.716L283.726 108.363L283.615 122.497Z" fill="#EBEBEB"/>
<path d="M315.017 108.626L314.699 122.822L309.433 122.717L309.8 108.588L315.017 108.626Z" fill="#FAFAFA"/>
<path d="M277.602 108.405L277.091 122.477L271.304 122.429L271.612 108.29L277.602 108.405Z" fill="#FAFAFA"/>
<path d="M316.529 164.402L332.051 164.523L332.205 145.019L316.683 144.898L316.529 164.402Z" fill="#EBEBEB"/>
<path d="M326.123 145.603L325.848 164.488L323.396 164.469L323.922 145.584L326.123 145.603Z" fill="#FAFAFA"/>
<path d="M307.758 145.459L316.663 145.531L332.185 145.651L316.649 147.683L316.518 164.416L307.614 164.344L307.758 145.459Z" fill="#E0E0E0"/>
<path d="M312.609 145.498L312.252 164.383L309.612 164.359L310.041 145.479L312.609 145.498Z" fill="#FAFAFA"/>
<path d="M319.656 139.753C319.656 139.911 318.618 140.151 316.871 140.233C315.815 140.272 314.76 140.157 313.738 139.892C313.325 139.784 312.963 139.536 312.715 139.19C312.575 138.971 312.499 138.716 312.498 138.455C312.498 138.253 312.521 138.052 312.565 137.855C312.705 137.198 312.902 136.555 313.154 135.933C313.299 135.594 313.48 135.272 313.695 134.972C313.917 134.648 314.201 134.369 314.53 134.151C314.723 134.024 314.941 133.938 315.169 133.897C315.397 133.857 315.631 133.863 315.857 133.916C316.215 134.022 316.545 134.206 316.822 134.454C317.641 135.125 318.329 135.939 318.854 136.856C319.728 138.446 319.718 139.594 319.569 139.613C319.419 139.632 319.086 138.652 318.121 137.336C317.556 136.582 316.883 135.915 316.123 135.357C315.967 135.225 315.784 135.128 315.587 135.073C315.517 135.063 315.446 135.067 315.378 135.085C315.31 135.103 315.246 135.135 315.191 135.179C315.002 135.318 314.839 135.489 314.708 135.683C314.55 135.911 314.416 136.154 314.308 136.409C314.084 136.96 313.904 137.527 313.767 138.105C313.695 138.374 313.709 138.494 313.733 138.523C313.832 138.642 313.965 138.728 314.115 138.768C314.588 138.923 315.072 139.044 315.563 139.128C316.045 139.215 316.489 139.272 316.904 139.315C318.574 139.488 319.651 139.565 319.656 139.753Z" fill="#E0E0E0"/>
<path d="M319.332 139.915C319.303 139.733 320.466 139.435 322.296 138.954C323.353 138.675 324.39 138.323 325.399 137.902C325.654 137.802 325.895 137.671 326.118 137.513C326.183 137.466 326.238 137.405 326.278 137.335C326.278 137.297 326.278 137.297 326.278 137.225C326.184 136.95 326.068 136.683 325.93 136.427C325.787 136.128 325.626 135.838 325.447 135.558C325.278 135.301 325.079 135.066 324.854 134.856C324.657 134.67 324.428 134.521 324.178 134.414C323.986 134.333 323.771 134.32 323.57 134.376C323.339 134.454 323.127 134.578 322.947 134.741C322.133 135.433 321.418 136.233 320.824 137.119C319.805 138.647 319.593 139.819 319.376 139.79C319.298 139.79 319.245 139.468 319.308 138.916C319.42 138.134 319.666 137.376 320.037 136.677C320.579 135.628 321.299 134.681 322.165 133.876C322.456 133.592 322.805 133.374 323.189 133.237C323.64 133.089 324.128 133.097 324.574 133.261C324.785 133.333 324.987 133.431 325.172 133.555C325.342 133.668 325.503 133.793 325.655 133.929C325.965 134.213 326.236 134.536 326.461 134.89C326.672 135.215 326.861 135.554 327.026 135.904C327.103 136.072 327.175 136.235 327.253 136.384C327.352 136.59 327.423 136.808 327.465 137.033C327.515 137.334 327.464 137.642 327.32 137.912C327.192 138.132 327.018 138.322 326.808 138.469C326.498 138.675 326.16 138.837 325.805 138.95C324.719 139.346 323.595 139.631 322.45 139.8C320.563 140.064 319.361 140.05 319.332 139.915Z" fill="#FAFAFA"/>
<path d="M304.942 145.426L327.757 145.604L327.808 139.148L304.993 138.97L304.942 145.426Z" fill="#E0E0E0"/>
<path d="M313.332 145.488L333.955 145.649L334.006 139.193L313.383 139.032L313.332 145.488Z" fill="#EBEBEB"/>
<path d="M327.673 139.161L327.528 145.646L325.119 145.594L325.288 139.142L327.673 139.161Z" fill="#FAFAFA"/>
<path d="M310.582 139.061L310.345 145.484L307.705 145.465L307.845 139.008L310.582 139.061Z" fill="#FAFAFA"/>
<path d="M21.1842 164.331L49.0227 164.549L49.2987 129.571L21.4602 129.353L21.1842 164.331Z" fill="#EBEBEB"/>
<path d="M38.3999 130.6L37.9076 164.464L33.5106 164.431L34.4518 130.566L38.3999 130.6Z" fill="#FAFAFA"/>
<path d="M5.46852 130.341L21.4395 130.466L49.2788 130.682L21.4105 134.333L21.174 164.335L5.20789 164.21L5.46852 130.341Z" fill="#E0E0E0"/>
<path d="M14.1611 130.408L13.5288 164.277L8.78918 164.238L9.56625 130.374L14.1611 130.408Z" fill="#FAFAFA"/>
<path d="M26.8017 120.103C26.8017 120.276 26.3191 120.454 25.4841 120.627C23.4167 121.015 21.3068 121.128 19.2096 120.963C18.727 120.92 18.2443 120.867 17.7616 120.781C17.2237 120.7 16.6917 120.585 16.1689 120.435C15.8407 120.335 15.5249 120.198 15.2277 120.027C14.8398 119.806 14.5092 119.499 14.2624 119.128C14.0009 118.715 13.859 118.238 13.8522 117.749C13.8495 117.377 13.8933 117.006 13.9825 116.645C14.2317 115.463 14.5854 114.305 15.0395 113.186C15.2989 112.577 15.6225 111.997 16.0048 111.456C16.209 111.183 16.4298 110.924 16.666 110.678C16.9258 110.406 17.2194 110.169 17.5396 109.972C17.8948 109.742 18.289 109.58 18.7028 109.491C19.1388 109.404 19.5887 109.414 20.0205 109.52C20.6878 109.711 21.3032 110.049 21.8208 110.51C23.2965 111.73 24.5335 113.21 25.4696 114.877C26.0984 115.985 26.5371 117.189 26.7679 118.441C26.9079 119.325 26.8355 119.834 26.6762 119.882C26.3046 119.974 25.7109 118.158 23.9734 115.847C22.954 114.514 21.748 113.333 20.3921 112.34C20.126 112.117 19.8149 111.953 19.4799 111.86C19.3705 111.845 19.2592 111.852 19.1528 111.882C19.0465 111.912 18.9475 111.963 18.8621 112.033C18.7134 112.137 18.5759 112.256 18.4518 112.388C18.3167 112.537 18.1671 112.724 18.0319 112.907C17.7552 113.307 17.5191 113.733 17.3273 114.18C16.9335 115.163 16.6109 116.173 16.362 117.202C16.3109 117.367 16.2801 117.538 16.2703 117.711C16.2703 117.822 16.2703 117.831 16.2703 117.855C16.4318 118.047 16.6494 118.185 16.8929 118.249C17.3123 118.396 17.7392 118.521 18.1719 118.624C18.6111 118.734 19.0455 118.821 19.4654 118.902C20.3101 119.056 21.1161 119.167 21.8787 119.253C23.3652 119.421 24.6008 119.522 25.4551 119.652C26.3094 119.782 26.7969 119.931 26.8017 120.103Z" fill="#E0E0E0"/>
<path d="M26.2274 120.353C26.1646 119.998 28.2497 119.421 31.5366 118.523C33.4243 118.01 35.274 117.368 37.0726 116.601C37.5189 116.427 37.9407 116.196 38.3275 115.914C38.4333 115.842 38.5209 115.747 38.5833 115.636C38.5833 115.592 38.5833 115.636 38.5833 115.516C38.5291 115.323 38.4547 115.136 38.3613 114.958L37.9607 114.127C37.7049 113.596 37.4164 113.081 37.0967 112.585C36.8023 112.132 36.4521 111.717 36.0542 111.35C35.8675 111.175 35.6674 111.014 35.4557 110.87C35.2791 110.746 35.0878 110.644 34.8862 110.567C34.5677 110.431 34.2122 110.406 33.8774 110.495C33.4787 110.631 33.1123 110.847 32.8011 111.129C31.3455 112.355 30.0644 113.773 28.993 115.343C27.1541 118.052 26.739 120.147 26.3577 120.089C26.1936 120.089 26.0778 119.508 26.1839 118.508C26.3686 117.095 26.7998 115.724 27.4581 114.459C28.4233 112.563 29.7137 110.849 31.2711 109.395C31.8059 108.875 32.446 108.473 33.1486 108.218C33.9869 107.946 34.8926 107.961 35.7211 108.261C36.1069 108.396 36.4749 108.576 36.8168 108.799C37.1366 109.005 37.44 109.234 37.7242 109.486C38.2802 109.989 38.7671 110.562 39.1721 111.192C39.5541 111.782 39.8959 112.396 40.1953 113.032L40.6008 113.916C40.7849 114.295 40.9164 114.697 40.9917 115.112C41.0876 115.68 40.989 116.264 40.7118 116.769C40.4724 117.184 40.1425 117.541 39.7465 117.812C39.1797 118.199 38.5627 118.508 37.9124 118.729C35.9582 119.439 33.9344 119.941 31.8744 120.228C30.5114 120.436 29.136 120.554 27.7574 120.579C26.8066 120.608 26.2515 120.526 26.2274 120.353Z" fill="#FAFAFA"/>
<path d="M0.409173 130.302L41.3271 130.622L41.4185 119.045L0.500529 118.725L0.409173 130.302Z" fill="#E0E0E0"/>
<path d="M15.4545 130.417L52.4438 130.706L52.5352 119.128L15.5459 118.839L15.4545 130.417Z" fill="#EBEBEB"/>
<path d="M41.1799 119.041L40.9193 130.672L36.6044 130.586L36.9036 119.008L41.1799 119.041Z" fill="#FAFAFA"/>
<path d="M10.5267 118.864L10.1117 130.389L5.36719 130.35L5.62299 118.768L10.5267 118.864Z" fill="#FAFAFA"/>
<path d="M53.6082 98.5376C45.2052 89.9815 32.0433 86.3832 20.4307 89.477C30.3335 96.1912 42.0175 99.8248 53.9991 99.9164" fill="url(#paint0_linear_550_6983)"/>
<path d="M42.3526 58.8745C43.7378 49.1413 39.9394 38.2168 32.6175 31.1211C32.3762 40.7678 36.4787 51.6203 42.3526 58.8745Z" fill="url(#paint1_linear_550_6983)"/>
<path d="M48.2072 77.2553C42.9137 67.2592 34.4906 59.253 24.2146 54.4502C27.2698 65.6534 36.8987 74.8197 48.2796 77.361" fill="url(#paint2_linear_550_6983)"/>
<path d="M49.4188 80.824C43.5159 80.9874 37.5359 80.7808 31.8261 79.2771C26.1163 77.7734 20.6479 74.8813 16.8639 70.3799C28.4177 70.4201 39.7037 73.8472 49.3126 80.2331" fill="url(#paint3_linear_550_6983)"/>
<path d="M46.4166 69.1217C49.4139 57.9377 54.3611 50.203 63.1888 43.9385C63.8649 49.4366 62.547 54.9943 59.4721 59.6111C56.3973 64.228 51.7676 67.6005 46.4166 69.1217Z" fill="url(#paint4_linear_550_6983)"/>
<path d="M68.7103 88.4051C68.7322 85.1433 67.7849 81.9477 65.9876 79.2202C64.1902 76.4926 61.6229 74.3547 58.6084 73.0752C59.0911 78.8401 63.6569 85.5275 68.7103 88.4051Z" fill="url(#paint5_linear_550_6983)"/>
<path d="M71.5145 78.9747C72.1854 69.6355 78.8508 60.9929 87.7461 57.9375C85.7238 67.2815 80.2988 75.0594 71.5145 78.9747Z" fill="url(#paint6_linear_550_6983)"/>
<path d="M67.2816 95.7177C69.3618 92.7536 72.7597 90.9136 76.2782 89.9912C79.7968 89.0688 83.4698 88.9968 87.1041 88.9199C84.6274 91.596 81.5975 93.7061 78.2231 95.1052C74.8486 96.5043 71.2097 97.159 67.5567 97.0245" fill="url(#paint7_linear_550_6983)"/>
<path d="M63.0585 119.541C69.6854 117.506 76.8377 118.017 83.1051 120.972C89.3725 123.927 94.3002 129.112 96.9165 135.505C84.6185 133.189 72.4798 127.746 63.0585 119.541Z" fill="url(#paint8_linear_550_6983)"/>
<path d="M49.5636 111.259C51.6052 117.269 51.2142 124.537 46.6676 129.716C45.763 126.616 45.5535 123.356 46.0539 120.167C46.5543 116.978 47.7524 113.937 49.5636 111.259Z" fill="url(#paint9_linear_550_6983)"/>
<path d="M41.5901 107.92C41.2589 111.794 39.9301 115.518 37.7321 118.733C35.534 121.947 32.5408 124.544 29.0412 126.272C28.8783 126.376 28.6957 126.445 28.5047 126.475C28.3137 126.506 28.1185 126.497 27.9311 126.449C27.376 126.228 27.3278 125.489 27.3953 124.883C28.2834 117.197 34.0173 109.736 41.5901 107.92Z" fill="url(#paint10_linear_550_6983)"/>
<path d="M36.3726 107.137C34.639 109.001 32.5393 110.49 30.2037 111.513C27.8681 112.536 25.3463 113.07 22.7946 113.083C20.243 113.096 17.7158 112.588 15.3697 111.589C13.0237 110.59 10.9087 109.122 9.15588 107.276C17.805 106.315 27.7911 105.705 36.3726 107.137Z" fill="url(#paint11_linear_550_6983)"/>
<path d="M35.0791 38.2939C35.0976 38.3808 35.1234 38.466 35.1563 38.5486C35.2239 38.7263 35.3108 38.9665 35.4218 39.274C35.6679 39.9273 36.0154 40.8642 36.4643 42.0652C36.9132 43.2662 37.4682 44.7555 38.0908 46.485L39.0899 49.2473C39.4326 50.2082 39.7946 51.2747 40.1711 52.3652C41.7059 56.7273 43.4048 61.9734 45.2438 67.7864C47.0827 73.5994 48.9457 80.0705 50.8087 86.8684C52.6718 93.6662 54.279 100.195 55.6642 106.147C57.0494 112.1 58.174 117.485 59.009 122.03C59.2246 123.163 59.4289 124.243 59.622 125.268C59.8005 126.291 59.9646 127.261 60.1046 128.15C60.4183 129.957 60.6838 131.513 60.8672 132.796C61.0506 134.078 61.2147 135.049 61.3209 135.736C61.374 136.058 61.4174 136.312 61.4464 136.5C61.4569 136.587 61.4747 136.674 61.4995 136.759C61.507 136.671 61.507 136.583 61.4995 136.495C61.4753 136.308 61.4464 136.053 61.4029 135.726C61.3112 135.034 61.1809 134.045 61.012 132.777C60.8431 131.508 60.6017 129.932 60.3073 128.121C60.1577 127.213 60.0032 126.243 59.8247 125.215C59.6461 124.187 59.4434 123.111 59.2358 121.972C58.425 117.418 57.3052 112.032 55.9586 106.066C54.612 100.099 52.9614 93.5749 51.1321 86.7675C49.3029 79.96 47.3626 73.5177 45.5382 67.6807C43.7137 61.8437 41.9617 56.6313 40.3979 52.2739C40.0118 51.185 39.6434 50.1489 39.2927 49.1657L38.2694 46.4081C37.6275 44.6834 37.0725 43.2038 36.5898 42.0027C36.1071 40.8017 35.7452 39.8841 35.4894 39.2355L35.1949 38.5197C35.1615 38.442 35.1228 38.3665 35.0791 38.2939Z" fill="#707070"/>
<path d="M82.6155 62.9287C82.5606 62.9695 82.5104 63.0162 82.4659 63.068L82.0508 63.5004C81.6888 63.8847 81.1675 64.4612 80.516 65.2107C78.6596 67.3435 76.9565 69.6039 75.4192 71.9749C73.1298 75.4925 71.343 79.3099 70.11 83.3174C68.662 87.8285 67.7933 92.9641 66.9148 98.3254C65.1532 109.063 62.9957 118.68 61.4319 125.637C60.6452 129.101 59.9839 131.906 59.5592 133.876C59.3468 134.837 59.1779 135.581 59.0766 136.115C59.0235 136.36 58.9849 136.552 58.9511 136.701C58.9348 136.767 58.9251 136.834 58.9221 136.903C58.9501 136.839 58.9711 136.773 58.9849 136.706C59.0235 136.561 59.0766 136.369 59.1393 136.129C59.2745 135.601 59.4579 134.856 59.6992 133.905C60.1818 131.945 60.8431 129.144 61.6732 125.69C63.2949 118.748 65.491 109.13 67.2527 98.3783C68.1359 93.0169 69.0095 87.9005 70.4141 83.4039C71.6346 79.417 73.3947 75.614 75.646 72.0998C77.16 69.726 78.8287 67.4536 80.6415 65.2971C81.2786 64.5285 81.7853 63.9424 82.1328 63.5436C82.2921 63.3563 82.4224 63.2074 82.519 63.0872C82.5556 63.0372 82.5879 62.9842 82.6155 62.9287Z" fill="#707070"/>
<path d="M33.7904 106.767C33.8899 106.802 33.994 106.821 34.0993 106.825L34.997 106.921L35.6438 106.988L36.4064 107.099C36.9566 107.18 37.5841 107.262 38.2646 107.411L39.3409 107.627L40.4896 107.915C41.2908 108.093 42.1162 108.396 42.9994 108.65C44.8879 109.302 46.72 110.105 48.4775 111.052C50.2226 112.024 51.8682 113.164 53.3909 114.454C54.0503 115.02 54.6787 115.622 55.2732 116.255C55.8044 116.797 56.3024 117.369 56.7646 117.97C57.1603 118.454 57.5293 118.96 57.8699 119.484C58.1464 119.873 58.3995 120.279 58.6277 120.699L59.0862 121.473C59.1341 121.566 59.1941 121.654 59.2648 121.732C59.2395 121.629 59.1988 121.53 59.1441 121.439L58.7387 120.637C58.5315 120.208 58.2928 119.795 58.0244 119.402C57.6972 118.863 57.3395 118.344 56.9529 117.845C56.4956 117.231 56.0024 116.644 55.476 116.087C54.8817 115.439 54.2516 114.825 53.5888 114.247C52.0613 112.93 50.402 111.772 48.6368 110.793C46.8622 109.836 45.0085 109.032 43.0959 108.391C42.203 108.131 41.368 107.848 40.5572 107.68L39.394 107.406L38.308 107.214C37.6178 107.075 36.9856 107.012 36.4305 106.945L35.6583 106.858L35.0067 106.825L34.1041 106.767C34 106.753 33.8945 106.753 33.7904 106.767Z" fill="#707070"/>
<path d="M31.3241 63.1309C31.5073 63.3513 31.7127 63.5525 31.9371 63.7314L33.7181 65.2687C35.2336 66.5562 37.3379 68.3145 39.674 70.2458C42.01 72.177 44.1433 73.9113 45.6926 75.1508L47.5412 76.592C47.7581 76.7769 47.9943 76.9379 48.2459 77.0724C48.0596 76.8515 47.851 76.6503 47.6233 76.4719L45.8423 74.9346C44.3267 73.6471 42.2224 71.8888 39.8863 69.9575C37.5503 68.0263 35.4218 66.2968 33.8725 65.0573L32.0239 63.6161C31.8057 63.4339 31.5714 63.2715 31.3241 63.1309Z" fill="#707070"/>
<path d="M29.1956 74.5266C29.1956 74.6131 33.7132 76.0255 39.3312 77.6829C44.9493 79.3403 49.549 80.6086 49.5731 80.5221C49.5973 80.4357 45.0555 79.0185 39.4374 77.3658C33.8194 75.7132 29.2245 74.4401 29.1956 74.5266Z" fill="#707070"/>
<path d="M45.9725 69.9912C46.1547 69.7915 46.3163 69.5742 46.4552 69.3426L47.6522 67.5267C48.6657 65.9942 50.1089 63.9092 51.8175 61.6849C53.526 59.4606 55.1671 57.5293 56.3785 56.1505C56.948 55.4972 57.4307 54.9495 57.8265 54.5171C58.0069 54.3247 58.1685 54.1156 58.3091 53.8926C58.0878 54.0444 57.8867 54.2236 57.7106 54.4258C57.339 54.7861 56.8225 55.3194 56.1903 55.992C54.9354 57.3371 53.2557 59.2588 51.5423 61.4879C49.8289 63.717 48.4148 65.8356 47.4446 67.397C46.962 68.18 46.5807 68.8382 46.3345 69.2754C46.1859 69.4989 46.0644 69.7392 45.9725 69.9912Z" fill="#707070"/>
<path d="M61.7456 76.3135C62.0626 76.9173 62.4189 77.4998 62.8123 78.0574C63.4928 79.1191 64.4147 80.5939 65.3655 82.261C66.3163 83.928 67.1223 85.4749 67.6967 86.5847C67.978 87.2058 68.3005 87.8077 68.662 88.3862C68.4739 87.723 68.2218 87.0794 67.9091 86.4646C67.3926 85.3116 66.6156 83.7454 65.6599 82.064C64.7043 80.3826 63.7293 78.9269 63.015 77.894C62.6436 77.328 62.2185 76.7987 61.7456 76.3135Z" fill="#707070"/>
<path d="M67.1707 96.0196C67.1948 96.0629 68.0587 95.6401 69.4777 95.0059C70.8967 94.3718 72.8563 93.5647 75.1151 92.7576C77.3739 91.9505 79.4252 91.3981 80.9311 91.0185C82.4369 90.639 83.3781 90.4228 83.3443 90.3748C83.1169 90.3693 82.8897 90.3935 82.6686 90.4468C82.2342 90.5093 81.6164 90.6246 80.8538 90.7879C78.8635 91.2217 76.9018 91.7768 74.98 92.4502C73.0583 93.1181 71.179 93.9009 69.3522 94.7946C68.6524 95.1405 68.0973 95.4335 67.7161 95.6545C67.5204 95.7543 67.3373 95.8768 67.1707 96.0196Z" fill="#707070"/>
<path d="M62.8944 119.579C62.9832 119.622 63.0774 119.653 63.1743 119.67L63.9949 119.877L67.0163 120.574C70.3472 121.27 73.64 122.135 76.8817 123.168C80.1102 124.247 83.2008 125.698 86.0907 127.491C87.1911 128.188 88.0502 128.803 88.6294 129.25C88.9196 129.492 89.2243 129.717 89.5416 129.922C89.5416 129.922 89.4789 129.841 89.3389 129.706C89.1989 129.572 88.9914 129.379 88.7066 129.149C87.9135 128.483 87.082 127.864 86.2162 127.295C83.3426 125.438 80.2432 123.952 76.9927 122.875C73.7393 121.833 70.4234 120.995 67.0645 120.367L64.019 119.738C63.6486 119.657 63.2727 119.604 62.8944 119.579Z" fill="#707070"/>
<path d="M47.5315 125.382C47.6184 125.382 48.159 122.226 48.7382 118.301C49.3173 114.376 49.7035 111.181 49.6166 111.167C49.5297 111.153 48.9891 114.328 48.41 118.253C47.8308 122.178 47.4398 125.373 47.5315 125.382Z" fill="#707070"/>
<path d="M31.5316 119.603C32.0513 119.067 32.535 118.497 32.9796 117.898C33.8435 116.827 35.0405 115.352 36.3967 113.747C37.753 112.143 39.0031 110.711 39.9153 109.678C40.4374 109.144 40.9212 108.574 41.3632 107.973C41.1854 108.08 41.0231 108.211 40.8806 108.362C40.6006 108.631 40.2097 109.025 39.727 109.524C38.7617 110.519 37.4875 111.926 36.1265 113.536C34.7654 115.145 33.5974 116.644 32.7769 117.754C32.3666 118.311 32.0432 118.768 31.8116 119.085C31.6937 119.243 31.5994 119.418 31.5316 119.603Z" fill="#707070"/>
<path d="M73.8699 134.371V142.24H71.8958L64.8684 164.315H49.2836L42.4782 142.456L39.8429 142.24V134.371H73.8699Z" fill="#808080"/>
<path d="M41.1605 142.456C41.1605 142.548 48.0383 142.624 56.5233 142.624C65.0084 142.624 71.891 142.548 71.891 142.456C71.891 142.365 65.0132 142.293 56.5233 142.293C48.0335 142.293 41.1605 142.365 41.1605 142.456Z" fill="white"/>
<path d="M29.9534 91.8447C30.2783 91.9619 30.6125 92.0519 30.9525 92.1138L33.6843 92.7719C35.9913 93.3388 39.1575 94.2132 42.5892 95.3469C46.0209 96.4807 49.0712 97.7154 51.2769 98.6522L53.8543 99.7715C54.1653 99.9263 54.488 100.056 54.8196 100.161C54.5344 99.9662 54.2323 99.7974 53.917 99.6562C53.3282 99.3488 52.4691 98.9308 51.3783 98.436C45.7297 95.8706 39.8291 93.8952 33.7711 92.5413C32.6128 92.2867 31.6668 92.0993 31.0104 91.9888C30.6627 91.9118 30.3091 91.8636 29.9534 91.8447Z" fill="#707070"/>
<path d="M46.3346 154.717C46.3346 154.808 51.1611 154.88 57.1122 154.88C63.0633 154.88 67.8947 154.808 67.8947 154.717C67.8947 154.626 63.0681 154.554 57.1122 154.554C51.1563 154.554 46.3346 154.626 46.3346 154.717Z" fill="#FAFAFA"/>
<path d="M45.7264 152.886C45.7264 152.977 50.8426 153.049 57.1508 153.049C63.4591 153.049 68.58 152.977 68.58 152.886C68.58 152.795 63.4639 152.723 57.1508 152.723C50.8377 152.723 45.7264 152.8 45.7264 152.886Z" fill="#FAFAFA"/>
<path d="M293.549 107.539L261.444 73.955C260.179 72.6328 258.631 71.5721 256.899 70.8415C255.167 70.1109 253.29 69.7265 251.389 69.7133L145.691 69.0004C143.895 68.9879 142.114 69.307 140.451 69.9393C138.789 70.5716 137.277 71.5045 136.004 72.6841C134.731 73.8636 133.721 75.2664 133.034 76.8114C132.347 78.3564 131.995 80.0129 132 81.6852L132.178 151.373C132.182 153.037 132.538 154.684 133.226 156.22C133.915 157.755 134.921 159.15 136.189 160.322C137.457 161.495 138.96 162.424 140.614 163.055C142.268 163.686 144.039 164.007 145.826 164L251.158 163.587C253.103 163.583 255.025 163.19 256.793 162.434C258.561 161.678 260.134 160.577 261.405 159.207L293.704 124.233C295.856 121.906 297.028 118.93 296.999 115.859C296.971 112.788 295.745 109.831 293.549 107.539ZM275.683 119.646C274.849 121.558 273.424 123.198 271.588 124.356C269.753 125.515 267.59 126.14 265.372 126.154C263.155 126.168 260.983 125.569 259.131 124.434C257.28 123.298 255.831 121.677 254.969 119.775C254.107 117.872 253.87 115.775 254.288 113.747C254.706 111.72 255.761 109.853 257.318 108.384C258.876 106.914 260.866 105.908 263.038 105.492C265.21 105.076 267.465 105.268 269.52 106.046C272.269 107.089 274.462 109.104 275.617 111.65C276.773 114.196 276.797 117.065 275.683 119.628V119.646Z" fill="#AA6D03"/>
<path d="M299.518 107.539L267.208 73.955C265.936 72.6332 264.378 71.5729 262.636 70.8423C260.894 70.1117 259.006 69.7271 257.093 69.7133L150.772 69.0004C148.965 68.9873 147.173 69.3061 145.5 69.9381C143.828 70.5702 142.307 71.5031 141.026 72.6827C139.745 73.8624 138.73 75.2655 138.039 76.8107C137.348 78.356 136.995 80.0127 137 81.6852L137.174 151.373C137.179 153.041 137.539 154.691 138.235 156.229C138.93 157.768 139.947 159.163 141.227 160.337C142.508 161.51 144.026 162.438 145.694 163.066C147.363 163.695 149.149 164.012 150.951 164L256.9 163.587C258.856 163.582 260.789 163.188 262.568 162.433C264.346 161.677 265.928 160.577 267.208 159.206L299.692 124.232C301.856 121.904 303.031 118.927 302.999 115.855C302.967 112.784 301.73 109.828 299.518 107.539ZM281.551 119.645C280.711 121.558 279.278 123.197 277.432 124.356C275.585 125.514 273.41 126.14 271.179 126.154C268.949 126.168 266.764 125.569 264.901 124.433C263.039 123.298 261.581 121.677 260.714 119.774C259.847 117.872 259.609 115.775 260.029 113.747C260.45 111.72 261.511 109.853 263.077 108.384C264.644 106.914 266.646 105.908 268.831 105.492C271.016 105.075 273.284 105.268 275.351 106.046C278.116 107.089 280.322 109.104 281.485 111.65C282.647 114.196 282.671 117.065 281.551 119.628V119.645Z" fill="#FF902A"/>
<path d="M295.658 125.984C296.042 126.187 296.398 126.441 296.715 126.738C297.376 127.262 298.342 128.049 299.563 129.092C300.784 130.134 302.27 131.422 303.94 132.974C305.61 134.525 307.483 136.336 309.418 138.484C311.546 140.811 313.472 143.314 315.177 145.964L315.862 147.054L316.509 148.193C316.96 148.971 317.37 149.773 317.735 150.595C318.546 152.338 319.015 154.22 319.115 156.139C319.146 157.164 318.996 158.187 318.671 159.161C318.332 160.167 317.79 161.094 317.078 161.885C315.618 163.487 313.685 164.587 311.557 165.027C309.398 165.451 307.172 165.399 305.036 164.873C302.89 164.357 300.812 163.594 298.844 162.601C294.974 160.636 291.464 158.038 288.462 154.914C287.03 153.451 285.691 151.901 284.451 150.273C283.241 148.694 282.089 147.123 280.995 145.56C276.651 139.315 273.273 133.31 271.149 127.939C270.618 126.599 270.16 125.311 269.764 124.072C269.571 123.452 269.387 122.847 269.238 122.246C269.073 121.665 268.955 121.073 268.885 120.473C268.717 119.336 269.003 118.179 269.682 117.25C270.266 116.504 271.064 115.951 271.97 115.664C272.343 115.541 272.728 115.453 273.118 115.4C273.461 115.364 273.807 115.356 274.151 115.376C274.691 115.402 275.223 115.517 275.725 115.717C276.03 115.844 276.313 116.018 276.564 116.231C276.728 116.38 276.801 116.462 276.786 116.481C276.772 116.5 276.671 116.447 276.487 116.337C276.221 116.175 275.936 116.048 275.638 115.957C275.153 115.811 274.648 115.74 274.141 115.746C273.818 115.749 273.496 115.775 273.176 115.823C272.819 115.892 272.469 115.991 272.129 116.121C271.34 116.409 270.655 116.924 270.16 117.6C269.607 118.418 269.399 119.418 269.58 120.387C269.66 120.952 269.786 121.509 269.957 122.054C270.116 122.63 270.314 123.216 270.517 123.822C270.938 125.032 271.421 126.294 271.965 127.607C274.151 132.844 277.568 138.758 281.931 144.902C283.025 146.44 284.179 147.988 285.392 149.548C286.613 151.132 287.93 152.64 289.335 154.064C292.251 157.08 295.65 159.593 299.394 161.5C301.282 162.451 303.274 163.183 305.33 163.682C307.289 164.17 309.332 164.227 311.315 163.85C313.192 163.469 314.9 162.511 316.2 161.111C317.405 159.756 318.04 157.991 317.976 156.182C317.884 154.402 317.452 152.656 316.702 151.037C316.359 150.242 315.974 149.466 315.548 148.712L314.945 147.602L314.288 146.516C312.647 143.889 310.793 141.4 308.743 139.075C306.88 136.923 305.07 135.078 303.434 133.483C301.797 131.888 300.383 130.552 299.21 129.462L296.546 126.944C296.211 126.662 295.913 126.339 295.658 125.984Z" fill="#171717"/>
<path d="M244.51 59.4179C244.443 59.4179 243.091 50.0259 241.489 38.4191C239.886 26.8124 238.646 17.3963 238.718 17.3867C238.791 17.3771 240.137 26.7788 241.74 38.3855C243.342 49.9923 244.583 59.4083 244.51 59.4179Z" fill="#525252"/>
<path d="M284.305 8C284.297 8.04965 284.282 8.09807 284.262 8.14412L284.107 8.56208L283.494 10.1619L281.197 16.0325C279.266 20.9903 276.621 27.8506 273.812 35.4747C271.003 43.0989 268.566 50.0312 266.828 55.0611C265.964 57.5641 265.264 59.5962 264.777 61.0231C264.536 61.71 264.347 62.2529 264.212 62.642C264.15 62.815 264.096 62.9495 264.058 63.06C264.044 63.1083 264.024 63.1551 264 63.1993C264.003 63.1483 264.015 63.098 264.034 63.0504L264.164 62.6228C264.285 62.2337 264.458 61.662 264.68 60.9894C265.134 59.5722 265.81 57.5257 266.659 55.0035C268.358 49.9592 270.772 42.9932 273.581 35.3883C276.39 27.7834 279.049 20.9087 281.028 15.9652C281.993 13.4959 282.833 11.4974 283.407 10.1234L284.069 8.54286C284.141 8.37472 284.204 8.24021 284.247 8.13451L284.305 8Z" fill="#525252"/>
<path d="M312.82 44.9731C312.864 45.026 305.957 50.4114 297.375 56.9834C288.794 63.5554 281.834 68.8688 281.79 68.8112C281.747 68.7535 288.659 63.3729 297.235 56.8009C305.812 50.2288 312.781 44.9155 312.82 44.9731Z" fill="#525252"/>
<path d="M227.758 61.1726C227.7 61.2159 225.031 57.8097 221.792 53.6013C218.553 49.3929 215.966 45.9147 216 45.8811C216.034 45.8475 218.727 49.244 221.966 53.4524C225.204 57.6608 227.811 61.1294 227.758 61.1726Z" fill="#525252"/>
<path d="M309.557 87.6525C309.557 87.7197 305.305 86.5475 300.102 85.039C294.899 83.5305 290.7 82.2526 290.719 82.1854C290.739 82.1181 294.972 83.2903 300.175 84.7988C305.378 86.3073 309.581 87.5852 309.557 87.6525Z" fill="#525252"/>
<path d="M253 82.9963L256.137 81.1995L257.807 78L259.612 81.1227L262.827 82.7849L259.689 84.5816L258.019 87.7812L256.214 84.6585L253 82.9963Z" fill="white"/>
<path d="M238 77.7487L239.1 77.1194L239.684 76L240.317 77.0905L241.441 77.6718L240.346 78.3012L239.762 79.4253L239.129 78.33L238 77.7487Z" fill="white"/>
<path d="M248.831 98.6067L250.954 97.3913L252.084 95.2246L253.305 97.3384L255.482 98.4626L253.358 99.678L252.229 101.845L251.007 99.7309L248.831 98.6067Z" fill="white"/>
<path d="M332.538 164.315C332.538 164.383 258.088 164.44 166.274 164.44C74.4587 164.44 0 164.383 0 164.315C0 164.248 74.4298 164.19 166.274 164.19C258.117 164.19 332.538 164.243 332.538 164.315Z" fill="#263238"/>
<path d="M96.9551 155.798C96.9551 155.798 76.8237 161.351 75.9887 161.635C74.7772 162.058 74.98 166.487 76.8719 166.439C77.7649 166.405 92.3506 166.977 94.1943 166.862C96.0381 166.746 101 164.801 101 164.801L96.9551 155.798Z" fill="#404040"/>
<path d="M88.5571 163.455C88.4557 163.455 88.3206 162.408 87.669 161.303C87.0174 160.198 86.1824 159.535 86.2452 159.458C86.3079 159.381 87.2829 159.939 87.9634 161.135C88.6439 162.331 88.6439 163.455 88.5571 163.455Z" fill="white"/>
<path d="M90.6614 162.495C90.56 162.495 90.3573 161.563 89.8216 160.515C89.2858 159.468 88.6487 158.733 88.7211 158.666C88.7935 158.599 89.5658 159.257 90.1208 160.366C90.6759 161.476 90.7482 162.495 90.6614 162.495Z" fill="#263238"/>
<path d="M92.6306 161.98C92.5292 161.98 92.6064 160.971 92.1479 159.857C91.6894 158.742 90.9751 158.055 91.0475 157.983C91.1199 157.911 92.0128 158.526 92.4616 159.737C92.9105 160.947 92.7126 162.014 92.6306 161.98Z" fill="#263238"/>
<path d="M92.2686 159.386C92.0923 158.911 92.0183 158.403 92.0514 157.897C92.0597 157.341 92.1326 156.788 92.2686 156.249C92.344 155.931 92.4441 155.62 92.5678 155.317C92.6307 155.131 92.7423 154.965 92.8912 154.837C92.9917 154.761 93.1162 154.722 93.2425 154.728C93.3688 154.734 93.4889 154.785 93.5814 154.871C93.7367 155.021 93.8326 155.222 93.8517 155.437C93.8635 155.613 93.8635 155.79 93.8517 155.966C93.8462 156.29 93.8041 156.612 93.7262 156.927C93.592 157.463 93.3841 157.979 93.1084 158.459C92.884 158.914 92.5763 159.323 92.201 159.665C92.1576 159.636 92.4954 159.185 92.896 158.349C93.1318 157.876 93.3084 157.375 93.4221 156.859C93.4882 156.558 93.5221 156.25 93.5235 155.942C93.5235 155.634 93.5235 155.25 93.3353 155.101C93.3026 155.064 93.2568 155.041 93.2074 155.036C93.1579 155.032 93.1087 155.046 93.0698 155.077C92.9672 155.173 92.8908 155.294 92.8478 155.428C92.7264 155.715 92.6248 156.011 92.5437 156.312C92.4022 156.824 92.3132 157.348 92.2783 157.878C92.2348 158.81 92.3265 159.382 92.2686 159.386Z" fill="#263238"/>
<path d="M92.2976 159.185C92.7093 159.013 93.1557 158.941 93.6008 158.973C94.089 158.972 94.5755 159.032 95.0487 159.151C95.3373 159.211 95.6155 159.313 95.8741 159.454C96.0396 159.536 96.1736 159.669 96.2556 159.834C96.3375 159.999 96.3629 160.186 96.3278 160.367C96.2815 160.54 96.1895 160.697 96.0614 160.823C95.9332 160.949 95.7735 161.039 95.5989 161.082C95.3028 161.157 94.9926 161.157 94.6964 161.082C93.7974 160.819 93.0093 160.271 92.4521 159.521C92.8261 159.737 93.1842 159.98 93.5235 160.246C93.8979 160.5 94.3171 160.681 94.7591 160.78C95.0049 160.84 95.2615 160.84 95.5072 160.78C95.6226 160.748 95.7278 160.687 95.8124 160.603C95.897 160.519 95.9582 160.414 95.9899 160.299C96.0095 160.186 95.9907 160.07 95.9365 159.969C95.8823 159.869 95.7957 159.788 95.6907 159.742C95.46 159.615 95.2132 159.52 94.957 159.459C94.5145 159.333 94.0599 159.254 93.6008 159.223C92.7996 159.156 92.3073 159.238 92.2976 159.185Z" fill="#263238"/>
<path d="M85.4632 163.667C85.3619 163.667 85.4632 162.797 85.0626 161.86C84.662 160.923 84.0153 160.366 84.0973 160.289C84.1794 160.212 84.9709 160.683 85.3957 161.731C85.8204 162.778 85.5453 163.705 85.4632 163.667Z" fill="white"/>
<path d="M99.5083 164.594C99.2593 164.739 98.9976 164.861 98.7264 164.959C97.9945 165.239 97.2448 165.47 96.4821 165.651C93.9568 166.204 91.3732 166.447 88.7886 166.377C85.7672 166.343 83.0451 166.208 81.0662 166.127L78.7302 166.007C78.443 166.005 78.1568 165.974 77.8759 165.915C78.1655 165.863 78.4602 165.844 78.7543 165.858H81.0951L88.8176 166.007C91.3793 166.072 93.9406 165.864 96.458 165.387C98.3789 165.027 99.5083 164.532 99.5083 164.594Z" fill="white"/>
<path d="M100.121 165.05C99.6065 164.848 99.1022 164.621 98.6107 164.368C97.4231 163.81 96.1028 163.592 94.7977 163.739C93.2774 163.969 92.2011 164.988 91.5012 165.689C91.1432 166.111 90.7544 166.506 90.338 166.871C90.6067 166.382 90.9395 165.932 91.3275 165.531C91.7233 165.066 92.1719 164.648 92.6644 164.286C93.2774 163.832 93.9907 163.531 94.7446 163.407C96.1131 163.243 97.4991 163.505 98.712 164.157C99.226 164.379 99.7016 164.68 100.121 165.05Z" fill="white"/>
<path d="M79.9031 165.92C79.9868 165.662 80.0851 165.408 80.1975 165.161C80.409 164.556 80.4588 163.906 80.3421 163.276C80.2253 162.646 79.9459 162.057 79.5314 161.567C79.2129 161.183 78.9571 161.001 78.9812 160.962C79.0053 160.924 79.2997 161.068 79.6714 161.442C80.159 161.931 80.4871 162.555 80.6129 163.232C80.7386 163.909 80.6561 164.608 80.3761 165.238C80.1589 165.709 79.9272 165.939 79.9031 165.92Z" fill="white"/>
<path d="M117.984 156.394C117.984 156.394 138.661 159.521 139.496 159.708C140.756 159.987 141.079 164.407 139.197 164.561C138.304 164.633 123.887 166.929 122.043 167.035C120.2 167.14 114.417 165.632 114.417 165.632L117.984 156.394Z" fill="#404040"/>
<path d="M127.237 162.998C127.338 162.998 127.348 161.932 127.859 160.755C128.371 159.578 129.129 158.833 129.056 158.752C128.984 158.67 128.091 159.362 127.55 160.625C127.01 161.889 127.155 163.018 127.237 162.998Z" fill="white"/>
<path d="M125.036 162.307C125.137 162.307 125.224 161.346 125.634 160.241C126.045 159.136 126.6 158.319 126.503 158.276C126.407 158.233 125.736 158.958 125.316 160.126C124.896 161.293 124.949 162.312 125.036 162.307Z" fill="white"/>
<path d="M123.018 162.014C123.115 162.014 122.922 161.01 123.231 159.852C123.54 158.694 124.196 157.93 124.099 157.858C124.003 157.786 123.226 158.512 122.907 159.78C122.589 161.048 122.941 162.057 123.018 162.014Z" fill="white"/>
<path d="M123.062 159.401C123.185 158.908 123.198 158.395 123.1 157.897C123.031 157.35 122.897 156.813 122.7 156.297C122.585 155.99 122.448 155.691 122.29 155.404C122.207 155.224 122.076 155.07 121.913 154.957C121.803 154.893 121.675 154.869 121.549 154.89C121.424 154.911 121.31 154.976 121.228 155.072C121.092 155.241 121.022 155.452 121.03 155.668C121.03 155.845 121.043 156.021 121.068 156.196C121.112 156.525 121.193 156.847 121.31 157.157C121.508 157.672 121.776 158.156 122.106 158.598C122.384 159.024 122.737 159.395 123.149 159.694C123.192 159.655 122.801 159.213 122.304 158.469C122.012 158.018 121.775 157.534 121.599 157.027C121.5 156.736 121.432 156.435 121.397 156.129C121.368 155.822 121.319 155.442 121.479 155.274C121.507 155.234 121.55 155.206 121.598 155.196C121.647 155.186 121.697 155.195 121.739 155.221C121.854 155.304 121.945 155.415 122.005 155.543C122.159 155.814 122.295 156.094 122.41 156.384C122.611 156.875 122.763 157.385 122.864 157.907C123.028 158.829 123.009 159.401 123.062 159.401Z" fill="white"/>
<path d="M123.014 159.203C122.591 159.078 122.144 159.054 121.71 159.131C121.232 159.188 120.762 159.303 120.311 159.472C120.033 159.568 119.77 159.703 119.529 159.871C119.374 159.972 119.257 160.121 119.196 160.294C119.134 160.468 119.13 160.656 119.186 160.832C119.253 160.999 119.364 161.145 119.506 161.255C119.649 161.366 119.818 161.437 119.997 161.461C120.301 161.497 120.609 161.459 120.895 161.351C121.754 160.98 122.47 160.343 122.936 159.535C122.595 159.794 122.272 160.076 121.971 160.38C121.63 160.678 121.235 160.908 120.808 161.058C120.569 161.141 120.315 161.167 120.065 161.135C119.946 161.118 119.833 161.071 119.738 160.999C119.642 160.927 119.567 160.831 119.519 160.721C119.487 160.61 119.492 160.492 119.534 160.385C119.576 160.277 119.652 160.186 119.751 160.126C119.965 159.976 120.197 159.853 120.441 159.761C120.866 159.582 121.31 159.45 121.763 159.367C122.512 159.237 123.014 159.256 123.014 159.203Z" fill="white"/>
<path d="M130.335 162.845C130.437 162.821 130.234 161.985 130.514 161.001C130.794 160.016 131.383 159.396 131.31 159.329C131.238 159.262 130.485 159.809 130.191 160.914C129.896 162.019 130.263 162.893 130.335 162.845Z" fill="white"/>
<path d="M116.483 165.43C116.747 165.547 117.022 165.637 117.304 165.699C118.062 165.892 118.833 166.033 119.611 166.122C122.183 166.372 124.776 166.309 127.333 165.934C130.331 165.54 133.014 165.084 134.964 164.772L137.271 164.373C137.556 164.339 137.836 164.275 138.106 164.181C137.82 164.171 137.534 164.192 137.252 164.243L134.93 164.536L127.29 165.598C124.754 165.965 122.186 166.062 119.63 165.886C117.675 165.723 116.498 165.377 116.483 165.43Z" fill="white"/>
<path d="M115.948 165.953C115.981 165.996 116.488 165.612 117.367 165.098C118.477 164.399 119.764 164.026 121.078 164.022C122.613 164.07 123.8 164.954 124.582 165.569C124.99 165.943 125.422 166.29 125.876 166.606C125.554 166.151 125.171 165.742 124.737 165.391C124.288 164.975 123.792 164.612 123.26 164.31C122.596 163.934 121.851 163.72 121.088 163.686C119.706 163.682 118.357 164.105 117.227 164.896C116.747 165.18 116.316 165.536 115.948 165.953Z" fill="white"/>
<path d="M182.288 71.8359C182.161 71.576 181.948 71.3674 181.685 71.2449L182.167 70.2841C182.134 69.9396 182.038 69.6041 181.883 69.2945C181.641 68.8813 180.797 68.915 180.797 68.915L180.927 68.6411C181.015 68.4472 181.052 68.234 181.033 68.022C181.015 67.8099 180.941 67.6062 180.821 67.4305C180.782 67.3776 180.744 67.3248 180.695 67.2671C180.403 66.9844 180.031 66.7967 179.629 66.7291C179.629 66.7291 180.111 65.8067 179.894 65.4176C179.668 65.0976 179.353 64.8505 178.988 64.7071C178.622 64.5636 178.222 64.53 177.838 64.6105C176.55 65.1139 175.3 65.7079 174.097 66.388C173.985 66.4488 173.861 66.4845 173.733 66.4928C173.606 66.5011 173.478 66.4818 173.359 66.4361C173.239 66.3904 173.131 66.3195 173.042 66.2283C172.953 66.137 172.885 66.0276 172.843 65.9076C172.413 64.6806 171.796 63.5268 171.013 62.487C170.106 61.4013 169.256 61.4878 168.759 61.6799C168.704 61.7015 168.653 61.735 168.612 61.7779C168.571 61.8208 168.539 61.8722 168.52 61.9285C168.501 61.9848 168.494 62.0446 168.5 62.1037C168.507 62.1628 168.526 62.2199 168.557 62.2709C169.044 63.0436 169.482 63.8458 169.869 64.6729C170.106 65.3023 170.352 70.0391 170.352 70.0391L169.049 72.5084L155.906 93.1709C155.906 93.1709 136.045 79.8491 136.118 79.5176L135.181 94.7947L150.143 104.691C151.425 105.538 152.878 106.096 154.399 106.325C155.92 106.554 157.473 106.448 158.949 106.016C160.425 105.584 161.788 104.835 162.943 103.823C164.097 102.811 165.015 101.559 165.632 100.156L175.705 78.3935L176.926 76.6159L181.67 73.5894C181.67 73.5894 182.457 72.2346 182.288 71.8359Z" fill="#FFCBB0"/>
<path d="M180.111 66.7337C180.111 66.7337 180.082 66.7673 180.02 66.8201L179.735 67.0507C179.469 67.2525 179.107 67.5311 178.673 67.8722L177.085 69.0733C176.786 69.2943 176.487 69.5537 176.12 69.7651C175.938 69.8904 175.729 69.971 175.51 70.0002C175.291 70.0295 175.068 70.0065 174.86 69.9332C174.646 69.8369 174.474 69.6661 174.377 69.4528C174.291 69.2546 174.253 69.039 174.266 68.8235C174.303 68.4213 174.472 68.0427 174.749 67.7473C174.993 67.4866 175.258 67.2457 175.541 67.0267L176.255 66.4358L177.297 65.5855L177.582 65.3597C177.65 65.3116 177.684 65.2828 177.688 65.2876L177.597 65.3789L177.326 65.6239L176.313 66.4983L175.608 67.0988C175.332 67.3184 175.074 67.5593 174.836 67.8194C174.564 68.0913 174.394 68.4471 174.353 68.8283C174.328 69.0254 174.363 69.2256 174.453 69.4028C174.544 69.5801 174.685 69.7263 174.86 69.8227C175.048 69.8993 175.254 69.9194 175.454 69.8804C175.652 69.8422 175.841 69.7689 176.014 69.6642C176.351 69.4576 176.66 69.1838 176.979 68.9868L178.576 67.8002L179.662 67.0123L179.962 66.8009L180.111 66.7337Z" fill="#A86C4C"/>
<path d="M181.163 68.958C181.097 69.0271 181.022 69.0883 180.941 69.1406C180.797 69.2511 180.579 69.4096 180.309 69.5921C179.773 69.9669 179.016 70.4665 178.152 70.9709C177.935 71.0958 177.727 71.2255 177.505 71.3264C177.29 71.4274 177.052 71.472 176.815 71.4561C176.613 71.4322 176.423 71.3523 176.265 71.2257C176.107 71.0992 175.988 70.931 175.922 70.7403C175.841 70.4831 175.861 70.2046 175.98 69.9621C176.013 69.8987 176.054 69.8391 176.1 69.7843C176.134 69.7459 176.154 69.7315 176.158 69.7315C176.163 69.7315 176.096 69.8179 176.023 69.9813C175.936 70.2169 175.936 70.4759 176.023 70.7115C176.085 70.8841 176.195 71.0354 176.34 71.1478C176.486 71.2602 176.66 71.3288 176.844 71.3457C177.062 71.3557 177.279 71.3111 177.476 71.2159C177.693 71.1116 177.904 70.9962 178.108 70.87C178.972 70.3656 179.735 69.8804 180.285 69.5249L180.932 69.1021C181.005 69.0479 181.082 68.9997 181.163 68.958Z" fill="#A86C4C"/>
<path d="M181.776 71.1299C181.706 71.181 181.63 71.2245 181.55 71.2596L180.908 71.5815C180.362 71.8505 179.605 72.2108 178.77 72.6048C178.566 72.7065 178.356 72.7963 178.142 72.8738C177.934 72.9505 177.708 72.9688 177.491 72.9266C177.389 72.9078 177.294 72.867 177.21 72.8072C177.127 72.7475 177.058 72.6701 177.008 72.5807C176.927 72.4238 176.9 72.2451 176.931 72.0715C176.984 71.8279 177.118 71.6094 177.312 71.4518C177.442 71.3413 177.529 71.298 177.534 71.3076C177.539 71.3172 177.462 71.3701 177.341 71.4854C177.173 71.6474 177.06 71.8572 177.017 72.0859C176.994 72.2392 177.021 72.3961 177.095 72.5327C177.14 72.6079 177.201 72.6726 177.273 72.7223C177.346 72.7721 177.428 72.8057 177.515 72.8209C177.712 72.8561 177.916 72.8361 178.103 72.7633C178.313 72.686 178.518 72.5962 178.716 72.4943C179.556 72.1051 180.314 71.7544 180.869 71.5046L181.53 71.2212C181.607 71.1788 181.69 71.148 181.776 71.1299Z" fill="#A86C4C"/>
<path d="M182.119 73.1383C181.874 73.2232 181.622 73.2891 181.366 73.3353C180.884 73.441 180.246 73.5803 179.527 73.7244L179.001 73.8301C178.835 73.8706 178.665 73.89 178.494 73.8878C178.331 73.8876 178.173 73.8316 178.046 73.7292C177.99 73.683 177.945 73.6249 177.915 73.5592C177.885 73.4935 177.87 73.4219 177.872 73.3497C177.88 73.2497 177.91 73.1527 177.96 73.0655C178.01 72.9784 178.079 72.9032 178.161 72.8453C178.216 72.7979 178.283 72.7678 178.354 72.7588C178.354 72.7588 178.287 72.7972 178.19 72.8837C178.12 72.9431 178.063 73.0166 178.023 73.0993C177.983 73.1821 177.961 73.2723 177.959 73.3641C177.959 73.4226 177.972 73.4802 177.998 73.5327C178.024 73.5851 178.062 73.631 178.108 73.6668C178.219 73.7505 178.355 73.7945 178.494 73.7917C178.657 73.7889 178.819 73.768 178.977 73.7292L179.503 73.6187C180.222 73.4746 180.874 73.3497 181.347 73.2632C181.601 73.2036 181.859 73.1618 182.119 73.1383Z" fill="#A86C4C"/>
<path d="M176.969 72.1767C176.524 72.088 176.072 72.043 175.618 72.0422C175.167 72.084 174.722 72.1726 174.29 72.3064C174.686 72.0563 175.144 71.9231 175.613 71.9221C176.08 71.8807 176.549 71.9688 176.969 72.1767Z" fill="#A86C4C"/>
<path d="M106.053 67.6515C106.053 67.6515 99.3732 62.0451 100.918 58.1826C102.462 54.3201 106.753 52.4177 108.862 45.3796C110.547 39.7684 120.581 28.9399 132.473 37.1069C132.473 37.1069 136.499 36.4776 138.787 38.3032C141.074 40.1287 141.629 43.7703 142.6 47.9739C144.096 54.4546 144.916 59.4365 142.02 62.6072C139.124 65.7779 138.063 66.6283 138.217 70.2313C138.42 74.9346 140.505 74.3052 138.7 77.7354L128.728 74.4974L128.622 71.7639L127.613 74.3341L121.821 72.2587L106.053 67.6515Z" fill="#171717"/>
<path d="M139.264 44.0059C138.618 45.4855 139.149 47.1958 139.747 48.6947C140.346 50.1936 141.074 51.7741 140.765 53.3595C140.215 56.1699 136.706 57.736 136.32 60.5657C136.113 62.0838 136.875 63.6307 136.581 65.1392C136.286 66.6477 135.07 67.695 133.772 68.4252C132.474 69.1554 131.04 69.6454 129.819 70.5006C129.819 70.5006 127.135 72.6912 122.512 69.0834" fill="#171717"/>
<path d="M120.32 40.3307C119.721 40.1925 119.09 40.283 118.554 40.5845C118.018 40.886 117.615 41.3765 117.424 41.9593L107.844 73.6185C106.603 77.3224 111.285 81.2762 115.277 82.5637C119.312 83.8656 120.127 81.9584 121.406 78.4706C123.549 72.648 124.302 70.4477 124.302 70.4814C124.302 70.515 129.65 71.3942 132.99 65.1968C134.65 62.1078 136.369 56.6936 137.609 52.2257C138.738 48.1999 137.802 42.4542 133.714 41.5077L120.32 40.3307Z" fill="#FFBE9D"/>
<path d="M134.23 55.5311C134.156 55.7523 133.998 55.9356 133.789 56.0417C133.581 56.1477 133.339 56.1679 133.115 56.098C133.005 56.0691 132.901 56.0186 132.81 55.9492C132.72 55.8799 132.644 55.7933 132.587 55.6944C132.531 55.5955 132.494 55.4864 132.481 55.3734C132.467 55.2604 132.476 55.1458 132.507 55.0363C132.582 54.8159 132.741 54.6334 132.949 54.5275C133.157 54.4216 133.399 54.4008 133.622 54.4694C133.733 54.4983 133.837 54.5489 133.927 54.6182C134.018 54.6875 134.094 54.7741 134.151 54.873C134.207 54.9719 134.243 55.0811 134.257 55.1941C134.271 55.3071 134.262 55.4217 134.23 55.5311Z" fill="#263238"/>
<path d="M135.553 54.4021C135.413 54.4741 134.935 53.7823 134.023 53.4701C133.111 53.1578 132.285 53.3788 132.227 53.2347C132.194 53.1674 132.372 53.0041 132.71 52.8936C133.199 52.7591 133.718 52.7776 134.197 52.9464C134.671 53.1107 135.082 53.42 135.369 53.8304C135.596 54.1186 135.625 54.354 135.553 54.4021Z" fill="#263238"/>
<path d="M125.195 52.6583C125.121 52.8785 124.964 53.0613 124.756 53.168C124.549 53.2747 124.308 53.2969 124.085 53.23C123.974 53.2011 123.871 53.1505 123.78 53.0812C123.689 53.0119 123.613 52.9252 123.557 52.8264C123.5 52.7275 123.464 52.6183 123.45 52.5053C123.436 52.3923 123.446 52.2777 123.477 52.1682C123.551 51.9481 123.708 51.7652 123.916 51.6585C124.123 51.5518 124.364 51.5296 124.587 51.5966C124.698 51.6254 124.801 51.676 124.892 51.7453C124.983 51.8146 125.059 51.9013 125.115 52.0002C125.172 52.099 125.208 52.2082 125.222 52.3212C125.236 52.4342 125.227 52.5488 125.195 52.6583Z" fill="#263238"/>
<path d="M126.469 51.6687C126.325 51.7455 125.847 51.0489 124.935 50.7367C124.022 50.4244 123.197 50.6454 123.139 50.5013C123.105 50.434 123.284 50.2755 123.646 50.165C124.135 50.028 124.655 50.0465 125.132 50.2178C125.608 50.3787 126.019 50.6868 126.305 51.097C126.508 51.4044 126.537 51.6398 126.469 51.6687Z" fill="#263238"/>
<path d="M127.425 59.5369C127.958 59.5518 128.486 59.6341 128.998 59.782C129.24 59.8396 129.481 59.8684 129.568 59.7243C129.669 59.4915 129.698 59.2337 129.65 58.9845C129.65 58.3503 129.607 57.6826 129.582 56.986C129.5 54.1419 129.529 51.8407 129.645 51.8359C129.761 51.8311 129.92 54.1371 129.997 56.9763C129.997 57.6729 130.022 58.3407 130.036 58.9797C130.088 59.3132 130.018 59.6543 129.838 59.9405C129.779 60.0089 129.704 60.063 129.621 60.0988C129.537 60.1346 129.446 60.1511 129.356 60.1471C129.216 60.1386 129.078 60.1111 128.945 60.0654C128.418 59.9547 127.907 59.7771 127.425 59.5369Z" fill="#263238"/>
<path d="M124.307 70.4808C121.183 69.4546 118.407 67.5833 116.29 65.0762C116.29 65.0762 116.942 70.3607 123.762 72.0373L124.307 70.4808Z" fill="#EB996E"/>
<path d="M129.08 63.4998C128.806 63.3932 128.509 63.359 128.218 63.4003C127.926 63.4417 127.65 63.5573 127.415 63.736C127.241 63.8598 127.094 64.0174 126.983 64.1992C126.871 64.381 126.798 64.5832 126.766 64.7939C126.734 64.9977 126.767 65.2062 126.859 65.3902C126.951 65.5743 127.098 65.7248 127.28 65.8209C127.499 65.8915 127.736 65.8943 127.958 65.8291C128.18 65.764 128.377 65.6337 128.525 65.4553C128.838 65.0873 129.073 64.6599 129.216 64.1992C129.272 64.0771 129.305 63.9458 129.313 63.812C129.315 63.7488 129.3 63.6862 129.268 63.6319C129.236 63.5775 129.188 63.5337 129.132 63.5058" fill="#EB996E"/>
<path d="M127.145 49.074C127.005 49.3143 126.083 49.0116 124.944 48.9347C123.805 48.8579 122.854 48.9876 122.748 48.733C122.705 48.608 122.907 48.3967 123.318 48.2189C123.857 47.9986 124.441 47.9113 125.021 47.9643C125.603 48.0026 126.168 48.1789 126.667 48.4783C127.044 48.7185 127.213 48.9587 127.145 49.074Z" fill="#263238"/>
<path d="M136.866 51.3751C136.615 51.5288 135.9 51.0965 134.988 50.8274C134.076 50.5584 133.246 50.4912 133.125 50.2221C133.077 50.0924 133.26 49.9147 133.656 49.8138C134.197 49.7074 134.755 49.7365 135.282 49.8983C135.808 50.0602 136.286 50.3497 136.673 50.741C136.938 51.0388 136.982 51.2934 136.866 51.3751Z" fill="#263238"/>
<path d="M109.161 61.1274C110.957 55.1415 112.754 49.1523 114.553 43.16C114.919 41.9302 115.344 40.6186 116.372 39.8452C117.4 39.0717 118.645 39.0285 119.862 39.0044C125.117 38.8957 130.367 39.4118 135.5 40.5418C135.741 41.7572 134.684 42.915 133.497 43.3137C132.309 43.7125 131.026 43.5684 129.78 43.5828C128.535 43.5972 127.169 43.8182 126.324 44.7358C125.48 45.6533 125.335 47.2147 124.486 48.2332C123.038 49.9819 119.963 49.6119 118.51 51.3702C117.415 52.701 117.709 54.6466 117.347 56.3281C116.937 58.2497 116.937 58.2497 115.417 61.0457C114.495 62.7656 116.811 66.0516 114.504 70.3129L110.025 69.0446L111.99 62.4629L109.325 68.6362L109.161 61.1274Z" fill="#171717"/>
<path d="M126.412 63.2684C126.512 63.2329 126.663 63.4254 126.924 63.6533C127.23 63.9532 127.615 64.1617 128.034 64.2557C128.453 64.3496 128.89 64.3253 129.298 64.1855C129.628 64.0933 129.849 63.983 129.91 64.0735C129.972 64.1641 129.882 64.4107 129.527 64.6723C129.285 64.8399 129.012 64.9555 128.724 65.0119C128.436 65.0682 128.139 65.064 127.854 64.9995C127.568 64.935 127.299 64.8116 127.064 64.6372C126.829 64.4628 126.633 64.2411 126.488 63.9864C126.29 63.5826 126.319 63.2966 126.412 63.2684Z" fill="#263238"/>
<path d="M123.39 44.9854C123.314 45.044 123.229 45.091 123.139 45.1247C122.895 45.2429 122.659 45.3744 122.43 45.5186C121.381 46.1664 120.485 47.0318 119.802 48.0557C119.12 49.0796 118.668 50.238 118.477 51.4517C118.361 52.3078 118.361 53.1754 118.477 54.0315C118.619 54.966 118.676 55.9116 118.646 56.8563C118.615 57.3488 118.512 57.8343 118.341 58.2976C118.161 58.7315 117.946 59.1508 117.7 59.5514C117.203 60.2566 116.857 61.0564 116.686 61.9007C116.592 62.6746 116.613 63.458 116.749 64.2258C116.85 64.9609 116.98 65.6671 117.029 66.2772C117.164 67.2851 117.012 68.3106 116.589 69.2365C116.459 69.4795 116.297 69.704 116.107 69.9043C115.967 70.034 115.89 70.0965 115.885 70.0869C116.126 69.8157 116.332 69.5155 116.498 69.1933C116.869 68.2805 116.991 67.2858 116.85 66.3108C116.787 65.6863 116.647 65.0089 116.536 64.2739C116.388 63.4818 116.361 62.6721 116.454 61.8718C116.643 60.1039 118.356 58.8068 118.385 56.8659C118.415 55.9359 118.362 55.005 118.226 54.0844C118.105 53.2077 118.105 52.3187 118.226 51.4421C118.463 49.9559 119.095 48.5595 120.055 47.397C120.694 46.6184 121.475 45.9665 122.357 45.4754C122.594 45.3393 122.841 45.2221 123.096 45.1247C123.186 45.0629 123.285 45.0159 123.39 44.9854Z" fill="#263238"/>
<path d="M145.022 71.9992L144.94 72.0664C144.882 72.1048 144.8 72.1721 144.685 72.2394C144.343 72.4393 143.974 72.5882 143.589 72.6813C142.975 72.8333 142.335 72.8562 141.711 72.7486C140.876 72.6166 140.101 72.2326 139.491 71.6484C138.756 70.9329 138.287 69.9889 138.164 68.9726C138.084 68.4089 138.121 67.8347 138.275 67.2863C138.444 66.71 138.712 66.1671 139.067 65.6817C139.874 64.7016 140.767 63.7948 141.736 62.9722C142.22 62.5244 142.66 62.0304 143.048 61.4974C143.432 60.9398 143.736 60.3318 143.951 59.691C144.346 58.4084 144.518 57.0679 144.458 55.7276C144.41 54.473 144.279 53.2228 144.067 51.9852C143.722 49.8864 143.186 47.8233 142.464 45.8215C141.979 44.469 141.415 43.1457 140.775 41.8581C140.548 41.4017 140.365 41.051 140.239 40.8156C140.166 40.7061 140.103 40.5904 140.051 40.4697C140.135 40.5787 140.209 40.6944 140.273 40.8156C140.413 41.0414 140.611 41.3873 140.852 41.8389C141.53 43.1129 142.122 44.4306 142.624 45.7831C143.375 47.7887 143.934 49.8604 144.294 51.9708C144.516 53.2188 144.653 54.4804 144.704 55.7468C144.769 57.1148 144.594 58.4836 144.187 59.7919C143.968 60.456 143.655 61.0853 143.256 61.6607C142.856 62.2074 142.403 62.7142 141.905 63.174C140.945 63.9843 140.058 64.8764 139.255 65.8403C138.912 66.3015 138.652 66.8184 138.487 67.368C138.34 67.8895 138.299 68.435 138.367 68.9726C138.482 69.9461 138.922 70.853 139.617 71.5476C140.198 72.1134 140.936 72.4932 141.736 72.6381C142.341 72.7536 142.964 72.7438 143.565 72.6093C144.079 72.4813 144.571 72.2755 145.022 71.9992Z" fill="#263238"/>
<path d="M103.963 65.4851C104.528 65.3395 105.056 65.0777 105.513 64.7164C106.71 63.6582 107.447 62.1786 107.569 60.5897C107.673 59.4992 107.702 58.4029 107.656 57.3085C107.586 56.036 107.685 54.7599 107.95 53.5132C108.113 52.8382 108.375 52.1907 108.727 51.5915C109.102 50.958 109.625 50.424 110.252 50.035C111.56 49.2375 113.148 49.276 114.596 48.7811C115.302 48.5351 115.936 48.1211 116.445 47.5753C116.934 47.0333 117.37 46.4461 117.748 45.8218C118.52 44.6112 119.263 43.3381 120.441 42.5838C121.007 42.2255 121.644 41.9943 122.309 41.9064C122.925 41.8242 123.547 41.7985 124.167 41.8296C125.265 41.9148 126.368 41.9051 127.464 41.8008C129.045 41.5848 130.549 40.9878 131.846 40.0617C132.195 39.8074 132.53 39.5348 132.85 39.245L133.096 39.0144L133.188 38.9375C132.814 39.3919 132.383 39.7957 131.904 40.1385C130.609 41.108 129.091 41.7405 127.488 41.9785C126.383 42.0929 125.27 42.1122 124.162 42.0362C122.994 42.0362 121.667 42.0362 120.566 42.7808C119.466 43.5254 118.728 44.7313 117.955 45.9515C117.57 46.5916 117.124 47.1933 116.623 47.7483C116.092 48.3205 115.43 48.7558 114.693 49.0165C113.206 49.5258 111.623 49.497 110.402 50.2464C109.255 51.0216 108.462 52.2165 108.196 53.5708C107.928 54.7961 107.823 56.0511 107.882 57.3036C107.924 58.4083 107.885 59.5146 107.767 60.6137C107.624 62.2374 106.844 63.7395 105.595 64.7933C105.249 65.065 104.854 65.2688 104.431 65.3938C104.322 65.4253 104.211 65.451 104.098 65.4706C104.055 65.484 104.009 65.4889 103.963 65.4851Z" fill="#455A64"/>
<path d="M108.799 45.5865C109.114 45.6964 109.437 45.7816 109.765 45.8411C110.657 45.9494 111.561 45.801 112.371 45.4135C113.552 44.7952 114.609 43.9663 115.489 42.9682C116.02 42.4302 116.575 41.8537 117.202 41.3108C117.846 40.7325 118.581 40.2649 119.379 39.9272C120.19 39.6122 121.052 39.4493 121.923 39.4468C122.721 39.4448 123.519 39.4881 124.312 39.5765C125.065 39.6486 125.76 39.7254 126.445 39.7302C127.065 39.7403 127.684 39.6905 128.294 39.5813C129.178 39.4432 130.011 39.0753 130.707 38.5148C130.946 38.2915 131.173 38.0558 131.388 37.8086C131.352 37.8868 131.309 37.961 131.257 38.0296C131.201 38.1177 131.138 38.2012 131.069 38.2794C130.978 38.3902 130.878 38.4931 130.77 38.5869C130.075 39.1938 129.224 39.5978 128.313 39.7543C127.693 39.8777 127.063 39.9389 126.431 39.9368C125.75 39.9368 125.031 39.8696 124.273 39.8071C123.489 39.724 122.701 39.6855 121.913 39.6918C121.073 39.6907 120.24 39.8438 119.456 40.1434C117.859 40.8016 116.71 42.065 115.639 43.1171C114.735 44.1271 113.646 44.9555 112.429 45.5576C111.588 45.9449 110.65 46.0721 109.736 45.9227C109.489 45.8763 109.25 45.8005 109.021 45.697C108.944 45.6675 108.87 45.6305 108.799 45.5865Z" fill="#455A64"/>
<path d="M143.719 59.0566C143.838 58.7624 143.918 58.4539 143.956 58.139C144 57.2775 143.76 56.4251 143.27 55.713C142.711 54.7521 141.673 53.945 140.621 52.9218C140.054 52.3877 139.579 51.7645 139.216 51.077C138.863 50.322 138.66 49.5064 138.618 48.6749C138.507 46.9695 138.801 45.3745 138.762 43.9285C138.818 42.6496 138.444 41.3887 137.701 40.3446C137.181 39.6547 136.429 39.1752 135.582 38.9946C135.262 38.9489 134.938 38.9408 134.616 38.9706C134.695 38.9357 134.778 38.913 134.863 38.9033C135.101 38.8708 135.343 38.8708 135.582 38.9033C136.472 39.052 137.273 39.5288 137.826 40.2389C138.574 41.0988 138.96 42.4632 138.98 43.9285C138.999 45.3937 138.743 46.9983 138.854 48.6605C138.893 49.4647 139.086 50.254 139.424 50.9857C139.77 51.6529 140.225 52.2583 140.77 52.7776C141.793 53.7961 142.851 54.6512 143.406 55.6601C143.9 56.4076 144.123 57.3009 144.038 58.1919C144.007 58.4301 143.939 58.6619 143.835 58.8789C143.804 58.9426 143.765 59.0023 143.719 59.0566Z" fill="#455A64"/>
<path d="M101.005 61.9346C100.898 61.8849 100.795 61.8287 100.696 61.7664C100.416 61.5784 100.164 61.3519 99.9476 61.0938C99.549 60.6099 99.2598 60.0462 99.0999 59.441C98.94 58.8358 98.913 58.2033 99.0209 57.5868C99.0987 57.1765 99.237 56.7799 99.4312 56.4098C99.6622 56.0218 99.9483 55.6691 100.281 55.3625C101.043 54.7386 101.887 54.2214 102.79 53.8252C103.772 53.4075 104.678 52.8331 105.474 52.1245C106.242 51.2833 106.768 50.2508 106.994 49.1364C107.284 47.9978 107.477 46.8448 107.858 45.7735C108.216 44.7493 108.687 43.768 109.263 42.8478C110.23 41.2861 111.473 39.9109 112.931 38.7883C113.91 38.0316 114.984 37.405 116.126 36.9243C116.433 36.7899 116.747 36.6729 117.067 36.5736C117.176 36.5289 117.289 36.4966 117.405 36.4775C117.405 36.5064 116.951 36.6505 116.165 37.0156C115.048 37.5247 113.999 38.1702 113.042 38.9372C111.618 40.0631 110.406 41.4309 109.461 42.9775C108.899 43.8849 108.441 44.8517 108.095 45.86C107.728 46.9073 107.535 48.0459 107.236 49.2229C107 50.3806 106.451 51.4521 105.648 52.3215C104.833 53.0461 103.903 53.6321 102.897 54.0558C102.008 54.4384 101.176 54.9377 100.421 55.5403C100.102 55.8305 99.826 56.1636 99.6001 56.5299C99.4101 56.8793 99.2734 57.255 99.1947 57.6445C99.0747 58.3214 99.1126 59.0167 99.3057 59.6766C99.4537 60.1772 99.6961 60.6451 100.02 61.0554C100.309 61.3893 100.64 61.6848 101.005 61.9346Z" fill="#263238"/>
<path d="M145.08 59.5038C145.056 59.5038 145.283 59.2732 145.592 58.8168C146.018 58.1713 146.31 57.4478 146.451 56.6886C146.653 55.5623 146.612 54.4062 146.33 53.2969C145.955 51.943 145.372 50.6547 144.603 49.4776C143.806 48.2046 142.947 47.0516 142.223 45.961C141.567 45.0006 140.997 43.9846 140.519 42.9248C140.198 42.2069 139.963 41.4539 139.819 40.6813C139.782 40.4715 139.756 40.2598 139.742 40.0472C139.732 39.9739 139.732 39.8995 139.742 39.8262C139.742 39.8262 139.8 40.1288 139.921 40.6621C140.096 41.4228 140.35 42.1634 140.679 42.872C141.177 43.9092 141.758 44.9053 142.416 45.8505C143.145 46.9315 144.014 48.0796 144.829 49.3672C145.613 50.5662 146.201 51.8812 146.572 53.2633C146.848 54.4056 146.871 55.5942 146.639 56.7463C146.475 57.5224 146.146 58.2545 145.674 58.8937C145.546 59.0656 145.404 59.2264 145.249 59.3741C145.199 59.4246 145.142 59.4682 145.08 59.5038Z" fill="#263238"/>
<path d="M94.9473 126.464L90.9847 133.329C90.9847 133.329 71.2877 126.156 59.7572 128.246C55.3699 129.039 50.6785 138.94 57.0688 145.301C63.2998 151.503 74.4443 160.275 95.3576 163.114C95.8788 163.182 104.446 165.012 103.915 164.95C103.384 164.887 115.923 166.871 115.923 166.871L118.868 155.793L142.223 159.439C155.988 158.507 162.726 143.855 154.434 139.137C146.712 134.741 132.165 134.386 132.165 134.386L126.894 126.161L94.9473 126.464Z" fill="#171717"/>
<path d="M116.401 167.298C116.459 166.924 116.628 165.915 116.966 163.844C117.154 162.739 117.381 161.394 117.675 159.847C117.825 159.069 117.989 158.247 118.187 157.378C118.288 156.941 118.395 156.499 118.525 156.042C118.588 155.817 118.655 155.591 118.737 155.36C118.811 155.112 118.933 154.881 119.094 154.678L119.128 154.846C114.157 153.088 107.94 150.767 101.318 147.986C97.2447 146.261 93.4028 144.522 90.0194 142.701C88.4058 141.864 86.8571 140.909 85.3859 139.843C84.0152 138.834 82.7893 137.825 81.6406 136.96C79.3721 135.173 77.2967 134.02 75.7667 133.53C75.4297 133.411 75.0865 133.31 74.7386 133.228C74.4865 133.157 74.2302 133.103 73.9712 133.064L73.4886 132.978L73.3245 132.939C73.3806 132.933 73.4373 132.933 73.4934 132.939L73.976 133.002C74.2396 133.03 74.5009 133.076 74.7579 133.141C75.1109 133.215 75.459 133.309 75.8005 133.425C76.7411 133.728 77.647 134.129 78.5033 134.621C79.6361 135.273 80.7215 136.003 81.7516 136.807C82.9099 137.676 84.1359 138.675 85.5114 139.689C86.9788 140.743 88.5227 141.687 90.1304 142.514C93.509 144.311 97.346 146.045 101.415 147.765C108.032 150.542 114.239 152.881 119.196 154.664L119.336 154.716L119.229 154.832C119.094 155.015 118.991 155.219 118.925 155.437C118.843 155.658 118.776 155.884 118.708 156.105C118.578 156.552 118.467 156.998 118.366 157.426C118.163 158.291 117.989 159.112 117.835 159.886C117.526 161.433 117.284 162.768 117.082 163.873C116.879 164.978 116.715 165.819 116.599 166.419C116.541 166.712 116.498 166.938 116.459 167.087C116.445 167.159 116.425 167.229 116.401 167.298Z" fill="#455A64"/>
<path d="M149.907 140.482H149.777L149.415 140.424C149.096 140.381 148.633 140.265 148.02 140.203C146.303 139.978 144.569 139.917 142.841 140.02C140.276 140.185 137.735 140.603 135.254 141.269C133.854 141.639 132.396 142.081 130.91 142.595C129.423 143.109 127.898 143.7 126.339 144.32C124.818 144.921 123.263 145.432 121.681 145.853C120.151 146.27 118.66 146.597 117.231 146.871C114.374 147.428 111.773 147.769 109.591 148.034C107.409 148.298 105.638 148.476 104.417 148.6L103.008 148.74L102.641 148.769C102.599 148.775 102.557 148.775 102.515 148.769H102.636L103.003 148.716L104.402 148.528L109.567 147.885C111.748 147.596 114.34 147.236 117.183 146.669C118.607 146.391 120.079 146.059 121.614 145.636C123.186 145.216 124.733 144.707 126.247 144.113C127.801 143.494 129.331 142.898 130.832 142.389C132.333 141.88 133.791 141.428 135.2 141.068C137.698 140.409 140.256 140.008 142.836 139.871C144.575 139.781 146.318 139.868 148.039 140.131C148.652 140.208 149.11 140.342 149.429 140.4L149.791 140.482C149.829 140.476 149.868 140.476 149.907 140.482Z" fill="#455A64"/>
<path d="M113.92 136.495C113.92 136.658 112.878 136.923 111.126 137.086C106.551 137.458 101.947 136.969 97.5536 135.645C95.8788 135.116 94.899 134.631 94.9473 134.472C95.0583 134.127 99.1946 135.222 104.407 135.76C109.62 136.298 113.887 136.13 113.92 136.495Z" fill="#263238"/>
<path d="M132.387 134.549C132.135 134.637 131.877 134.706 131.614 134.755C131.31 134.817 131.008 134.894 130.712 134.986C130.364 135.087 129.964 135.193 129.534 135.346C128.519 135.684 127.523 136.077 126.551 136.523C125.461 137.042 124.283 137.657 123.081 138.368C121.045 139.604 119.093 140.972 117.236 142.461C116.522 143.028 115.948 143.499 115.557 143.826C115.36 144.004 115.149 144.164 114.924 144.306C115.098 144.105 115.287 143.917 115.489 143.744C115.865 143.393 116.421 142.903 117.125 142.303C118.958 140.763 120.907 139.368 122.956 138.128C124.088 137.455 125.256 136.842 126.455 136.293C127.438 135.85 128.449 135.469 129.481 135.154C129.915 135.01 130.321 134.914 130.678 134.827C130.98 134.745 131.286 134.681 131.595 134.635C131.856 134.584 132.121 134.555 132.387 134.549Z" fill="#455A64"/>
<path d="M110.489 144.316C110.012 144.245 109.546 144.112 109.103 143.922C108.023 143.511 106.967 143.038 105.942 142.505L102.887 140.905C102.452 140.705 102.032 140.477 101.627 140.223C102.091 140.351 102.541 140.526 102.969 140.746C103.775 141.111 104.866 141.669 106.068 142.279C107.269 142.889 108.365 143.417 109.181 143.758C109.996 144.1 110.498 144.277 110.489 144.316Z" fill="#455A64"/>
<path d="M112.617 127.29C112.656 127.29 112.588 128.011 112.516 129.168C112.443 130.326 112.376 131.926 112.41 133.694C112.443 135.462 112.574 137.057 112.69 138.219C112.781 138.841 112.84 139.466 112.868 140.093C112.805 139.939 112.762 139.778 112.743 139.613C112.675 139.296 112.598 138.83 112.516 138.253C112.307 136.748 112.187 135.232 112.159 133.713C112.13 132.196 112.19 130.679 112.337 129.168C112.4 128.587 112.458 128.121 112.511 127.799C112.525 127.626 112.561 127.455 112.617 127.29Z" fill="#455A64"/>
<path d="M114.813 128.001C114.813 128.001 114.726 128.077 114.606 128.222C114.437 128.423 114.329 128.668 114.297 128.928C114.27 129.115 114.283 129.305 114.335 129.486C114.388 129.668 114.478 129.836 114.601 129.98C114.77 130.129 114.976 130.23 115.198 130.271C115.419 130.313 115.648 130.294 115.86 130.216C116.072 130.138 116.258 130.004 116.399 129.829C116.541 129.654 116.631 129.443 116.662 129.221C116.657 129.03 116.611 128.843 116.528 128.672C116.445 128.5 116.326 128.348 116.179 128.226C115.985 128.05 115.743 127.933 115.484 127.89C115.296 127.861 115.19 127.89 115.185 127.856C115.18 127.823 115.286 127.794 115.494 127.794C115.787 127.803 116.068 127.907 116.295 128.092C116.471 128.225 116.615 128.396 116.714 128.592C116.814 128.789 116.867 129.005 116.869 129.226C116.847 129.499 116.747 129.761 116.58 129.979C116.414 130.198 116.188 130.365 115.929 130.46C115.671 130.556 115.39 130.576 115.121 130.518C114.851 130.46 114.604 130.327 114.408 130.134C114.268 129.964 114.167 129.764 114.115 129.551C114.062 129.337 114.058 129.114 114.104 128.899C114.155 128.61 114.301 128.347 114.519 128.149C114.693 128.02 114.808 127.991 114.813 128.001Z" fill="#455A64"/>
<path d="M120.808 120.089C120.701 120.262 120.574 120.424 120.431 120.569C120.069 120.998 119.682 121.405 119.273 121.789C118.667 122.363 118.022 122.895 117.342 123.38C116.506 123.97 115.626 124.498 114.712 124.96C113.793 125.41 112.841 125.791 111.864 126.099C111.064 126.346 110.248 126.539 109.422 126.675C108.868 126.772 108.309 126.834 107.747 126.863C107.542 126.882 107.335 126.882 107.129 126.863C107.129 126.815 108.003 126.767 109.393 126.497C110.209 126.336 111.015 126.128 111.806 125.873C114.522 124.99 117.023 123.555 119.152 121.66C120.204 120.728 120.769 120.06 120.808 120.089Z" fill="#263238"/>
<path d="M129.616 125.421C129.616 125.493 128.747 125.493 127.724 125.753C126.701 126.012 125.929 126.397 125.89 126.334C126.961 125.55 128.302 125.222 129.616 125.421Z" fill="#263238"/>
<g opacity="0.3">
<path d="M109.359 126.622C113.555 125.857 117.356 123.671 120.118 120.435C120.369 121.195 120.403 122.01 120.216 122.789C120.03 123.567 119.63 124.279 119.061 124.845C120.287 125.421 121.725 125.037 123.067 124.845C124.408 124.653 126.049 124.845 126.691 126.031C120.688 126.584 114.656 126.756 108.63 126.545" fill="black"/>
</g>
<path d="M97.3751 117.206C96.7702 116.635 96.0651 116.181 95.2948 115.865C94.454 115.541 93.556 115.389 92.6547 115.418C91.5532 115.458 90.4752 115.747 89.503 116.264C87.3986 117.35 86.1244 119.204 85.1977 120.391C84.8388 120.889 84.5162 121.413 84.2324 121.957C84.1387 122.161 84.0273 122.358 83.8994 122.543C83.96 122.325 84.0425 122.115 84.1456 121.914C84.3934 121.348 84.6905 120.804 85.0336 120.29C85.4825 119.646 86.0617 118.925 86.7278 118.138C87.4746 117.284 88.3708 116.573 89.3727 116.038C90.3803 115.505 91.4993 115.214 92.6402 115.188C93.5705 115.169 94.4944 115.344 95.3527 115.702C95.93 115.937 96.4598 116.274 96.9165 116.696C97.0434 116.807 97.1597 116.929 97.264 117.061C97.3461 117.153 97.3847 117.201 97.3751 117.206Z" fill="#263238"/>
<path d="M110.016 71.1299L103.273 72.5567L106.647 85.1051L118.573 87.6561L126.759 81.8767L127.883 74.954L120.866 72.3165L110.016 71.1299Z" fill="#FFBE9D"/>
<path d="M105.266 72.0381C105.266 72.0381 109.827 85.2206 118.255 84.0003C126.682 82.7801 125.977 74.2384 125.977 74.2384C125.977 74.2384 134.771 76.9095 137.488 79.7487C140.206 82.5879 138.603 88.7612 138.603 88.7612L136.325 99.9164L131.363 121.285C131.363 121.285 133.26 127.117 128.41 128.559L126.88 126.156L97.7901 126.973C97.7901 126.973 91.5688 134.112 89.6285 131.652C87.6882 129.193 85.8252 124.389 85.8252 124.389L99.1898 73.6186L105.266 72.0381Z" fill="#5E46E9"/>
<path d="M135.191 78.0625C135.427 78.197 155.843 92.9553 155.843 92.9553C155.843 92.9553 154.241 105.1 164.049 103.169C164.049 103.169 160.091 113.325 154.733 111.192C153.208 110.586 134.39 98.7346 134.39 98.7346L130.398 90.2746L135.191 78.0625Z" fill="#6850F3"/>
<path d="M105.266 72.6865C105.266 72.6865 104.784 72.6865 104.026 72.773C100.03 73.1573 85.2798 76.1983 83.9139 86.5608C83.1996 91.9799 82.9969 107.829 82.2246 114.473C82.2246 114.473 83.4554 123.706 83.9139 125.417C84.7296 128.462 99.5084 123.581 99.5084 123.581L99.5373 94.2762L104.818 72.7009" fill="#6850F3"/>
<g opacity="0.3">
<path d="M101.54 107.064L98.7602 96.9757C98.6251 96.4953 98.3982 95.9044 97.8914 95.8131C97.6531 95.8048 97.4201 95.8847 97.2374 96.0373C97.0547 96.1898 96.9353 96.4043 96.902 96.6394C96.8344 97.1287 96.8344 97.6249 96.902 98.1142C97.1192 100.31 97.293 101.799 98.321 103.5C100.324 106.815 99.0064 108.424 99.0064 108.424C99.1656 112.459 98.823 117.965 97.5584 122.111L98.7506 127.112C99.88 123.394 102.462 120.295 102.897 116.432C103.23 113.266 102.404 110.129 101.54 107.064Z" fill="black" fill-opacity="0.38"/>
</g>
<g opacity="0.3">
<path d="M136.335 99.9836C139.641 101.694 142.58 104.058 145.8 105.888C144.54 103.27 142.421 100.68 139.873 99.2919C139.207 98.8645 138.424 98.6577 137.633 98.7009C136.851 98.8114 136.291 99.2486 136.412 100.022" fill="black" fill-opacity="0.38"/>
</g>
<g opacity="0.3">
<path d="M155.279 92.7439C154.149 92.7151 153.3 93.7384 152.745 94.7184C151.184 97.507 150.546 100.714 150.92 103.885C150.988 104.452 151.2 105.134 151.765 105.244C151.974 105.267 152.184 105.222 152.364 105.115C152.544 105.009 152.685 104.846 152.764 104.653C152.919 104.268 152.983 103.852 152.952 103.438C152.952 101.516 152.817 99.5706 153.097 97.6729C153.377 95.7753 154.096 93.8537 155.51 92.5518" fill="black" fill-opacity="0.38"/>
</g>
<path d="M105.735 152.679L102.786 147.174L96.1539 116.278C96.1539 116.278 90.0532 112.791 85.0529 120.434C84.855 120.742 91.9259 142.869 93.8999 149.023L94.175 154.913C94.175 154.913 93.8275 161.884 94.175 162.494C94.4858 162.922 94.9104 163.255 95.401 163.455C95.401 163.455 95.1403 165.199 97.153 165.377C97.153 165.377 97.3267 167.298 98.8133 167.034C99.2174 166.985 99.6064 166.851 99.9543 166.641C100.302 166.43 100.601 166.148 100.831 165.814C100.831 165.814 100.831 168.249 102.144 167.99C103.456 167.731 103.669 166.683 103.91 166.337C104.151 165.991 104.431 162.412 104.431 162.412L104.407 156.513L107.824 159.271C108.79 159.751 110.262 160.366 111.082 159.631L105.735 152.679Z" fill="#FFBE9D"/>
<path d="M104.412 156.211C104.637 157.255 104.702 158.328 104.605 159.391C104.567 160.208 104.533 160.953 104.499 161.635C104.51 161.946 104.481 162.258 104.412 162.562C104.277 161.507 104.258 160.441 104.354 159.382C104.441 157.633 104.335 156.221 104.412 156.211Z" fill="#EB996E"/>
<path d="M100.647 160.323C100.841 162.263 100.866 164.216 100.725 166.16C100.532 164.22 100.506 162.268 100.647 160.323Z" fill="#EB996E"/>
<path d="M97.4909 161.395C97.7133 162.751 97.5786 164.141 97.0999 165.43C97.0323 165.43 97.2061 164.522 97.3075 163.412C97.3314 162.737 97.3926 162.063 97.4909 161.395Z" fill="#EB996E"/>
<path d="M95.459 160.712C95.5402 161.596 95.4517 162.488 95.1984 163.34C95.1134 162.902 95.1134 162.452 95.1984 162.014C95.2047 161.568 95.293 161.126 95.459 160.712Z" fill="#EB996E"/>
<path d="M102.086 40.3401L97.6453 32.5478C100.39 28.1119 101.369 22.8146 100.389 17.6969C99.4093 12.5792 96.5418 8.01142 92.3503 4.89123C88.1588 1.77105 82.9464 0.324169 77.7376 0.834977C72.5288 1.34579 67.7002 3.77734 64.2011 7.65171C60.7019 11.5261 58.7852 16.5631 58.8276 21.7727C58.87 26.9822 60.8685 31.9876 64.4303 35.8051C67.9921 39.6225 72.8596 41.9758 78.0761 42.4025C83.2926 42.8292 88.4807 41.2984 92.6209 38.111L102.086 40.3401Z" fill="white"/>
<path opacity="0.3" d="M161.442 46.3213L162.359 47.9883L164.034 48.9011L162.359 49.8139L161.442 51.4809L160.53 49.8139L158.855 48.9011L160.53 47.9883L161.442 46.3213Z" fill="#7500FD"/>
<path opacity="0.3" d="M213.197 51.8697L214.153 51.8072L214.92 51.2451L214.983 52.1915L215.548 52.9554L214.597 53.0178L213.829 53.5847L213.767 52.6335L213.197 51.8697Z" fill="#7500FD"/>
<path opacity="0.3" d="M189.774 36.4729L191.222 35.6418L191.994 34.1621L192.824 35.6033L194.311 36.372L192.863 37.2031L192.091 38.678L191.256 37.2367L189.774 36.4729Z" fill="#7500FD"/>
<path d="M191.892 97.5652C191.377 97.5652 190.976 97.1559 190.741 96.6985C190.593 96.4101 190.382 96.1649 190.108 95.9629C189.591 95.5822 188.889 95.3919 188.003 95.3919C187.401 95.3919 186.892 95.4771 186.477 95.6476C186.062 95.8123 185.744 96.0424 185.523 96.3379C185.307 96.6333 185.199 96.9686 185.199 97.3436C185.187 97.6561 185.253 97.9288 185.395 98.1618C185.543 98.3947 185.744 98.5964 186 98.7669C186.256 98.9316 186.551 99.0765 186.886 99.2015C187.222 99.3208 187.58 99.4231 187.96 99.5083L189.528 99.8833C190.29 100.054 190.989 100.281 191.625 100.565C192.261 100.849 192.812 101.199 193.278 101.613C193.744 102.028 194.105 102.517 194.361 103.079C194.622 103.642 194.756 104.287 194.761 105.014C194.756 106.082 194.483 107.008 193.943 107.792C193.409 108.571 192.636 109.176 191.625 109.608C190.619 110.034 189.406 110.247 187.986 110.247C186.577 110.247 185.349 110.031 184.304 109.599C183.264 109.167 182.452 108.528 181.866 107.682C181.451 107.071 181.177 106.356 181.045 105.538C180.955 104.984 181.416 104.52 181.977 104.52H183.591C184.117 104.52 184.528 104.94 184.72 105.43C184.799 105.633 184.902 105.818 185.028 105.986C185.33 106.372 185.73 106.665 186.23 106.863C186.736 107.057 187.307 107.153 187.943 107.153C188.568 107.153 189.111 107.062 189.571 106.881C190.037 106.699 190.398 106.446 190.653 106.122C190.909 105.798 191.037 105.426 191.037 105.006C191.037 104.613 190.92 104.284 190.687 104.017C190.46 103.75 190.125 103.523 189.682 103.335C189.244 103.148 188.707 102.977 188.071 102.824L186.17 102.346C184.699 101.988 183.537 101.429 182.685 100.667C181.832 99.9061 181.409 98.8805 181.415 97.5907C181.409 96.5339 181.69 95.6106 182.259 94.8208C182.832 94.0311 183.619 93.4146 184.619 92.9714C185.619 92.5282 186.756 92.3066 188.028 92.3066C189.324 92.3066 190.455 92.5282 191.42 92.9714C192.392 93.4146 193.148 94.0311 193.687 94.8208C194.045 95.3442 194.288 95.9225 194.416 96.5556C194.527 97.1032 194.065 97.5652 193.506 97.5652H191.892Z" fill="white"/>
<path d="M200.078 109.309C199.944 109.721 199.561 110 199.127 110H197.302C196.615 110 196.133 109.323 196.357 108.674L201.692 93.219C201.831 92.8158 202.211 92.5453 202.637 92.5453H205.967C206.394 92.5453 206.774 92.816 206.913 93.2194L212.24 108.674C212.464 109.323 211.982 110 211.295 110H209.47C209.036 110 208.652 109.721 208.518 109.309L204.392 96.5988C204.379 96.5601 204.343 96.5339 204.303 96.5339C204.262 96.5339 204.226 96.5601 204.213 96.5987L200.078 109.309ZM199.607 104.139C199.607 103.587 200.054 103.139 200.607 103.139H207.947C208.5 103.139 208.947 103.587 208.947 104.139V105.02C208.947 105.572 208.5 106.02 207.947 106.02H200.607C200.054 106.02 199.607 105.572 199.607 105.02V104.139Z" fill="white"/>
<path d="M215.798 110C215.246 110 214.798 109.552 214.798 109V93.5453C214.798 92.993 215.246 92.5453 215.798 92.5453H217.489C218.041 92.5453 218.489 92.993 218.489 93.5453V105.957C218.489 106.509 218.936 106.957 219.489 106.957H224.972C225.524 106.957 225.972 107.405 225.972 107.957V109C225.972 109.552 225.524 110 224.972 110H215.798Z" fill="white"/>
<path d="M229.415 110C228.863 110 228.415 109.552 228.415 109V93.5453C228.415 92.993 228.863 92.5453 229.415 92.5453H239.177C239.729 92.5453 240.177 92.993 240.177 93.5453V94.5879C240.177 95.1402 239.729 95.5879 239.177 95.5879H233.106C232.554 95.5879 232.106 96.0356 232.106 96.5879V98.747C232.106 99.2993 232.554 99.747 233.106 99.747H238.572C239.124 99.747 239.572 100.195 239.572 100.747V101.79C239.572 102.342 239.124 102.79 238.572 102.79H233.106C232.554 102.79 232.106 103.237 232.106 103.79V105.957C232.106 106.509 232.554 106.957 233.106 106.957H239.211C239.763 106.957 240.211 107.405 240.211 107.957V109C240.211 109.552 239.763 110 239.211 110H229.415Z" fill="white"/>
<path d="M192.79 138.239C191.585 138.239 190.511 138.017 189.568 137.574C188.631 137.131 187.886 136.52 187.335 135.742C186.977 135.236 186.73 134.682 186.595 134.079C186.473 133.532 186.936 133.065 187.497 133.065H189.111C189.641 133.065 190.05 133.499 190.29 133.971C190.433 134.251 190.638 134.497 190.906 134.71C191.435 135.131 192.062 135.341 192.79 135.341C193.369 135.341 193.881 135.213 194.324 134.957C194.773 134.696 195.122 134.335 195.372 133.875C195.628 133.409 195.756 132.875 195.756 132.273C195.756 131.659 195.625 131.119 195.364 130.653C195.108 130.188 194.753 129.824 194.298 129.563C193.844 129.301 193.324 129.168 192.739 129.162C192.227 129.162 191.73 129.267 191.247 129.477C190.987 129.592 190.758 129.729 190.561 129.889C190.264 130.129 189.893 130.296 189.517 130.228L187.751 129.912C187.241 129.82 186.885 129.354 186.931 128.838L187.594 121.456C187.641 120.941 188.073 120.546 188.59 120.546H197.347C197.899 120.546 198.347 120.993 198.347 121.546V122.563C198.347 123.115 197.899 123.563 197.347 123.563H191.621C191.108 123.563 190.679 123.95 190.626 124.46L190.274 127.865C190.27 127.902 190.3 127.935 190.337 127.935C190.357 127.935 190.376 127.925 190.388 127.908C190.695 127.488 191.152 127.139 191.759 126.861C192.378 126.577 193.071 126.435 193.838 126.435C194.889 126.435 195.827 126.682 196.651 127.176C197.474 127.671 198.125 128.35 198.602 129.213C199.08 130.071 199.315 131.06 199.31 132.179C199.315 133.355 199.043 134.401 198.491 135.315C197.946 136.225 197.182 136.94 196.199 137.463C195.222 137.98 194.085 138.239 192.79 138.239Z" fill="white"/>
<path d="M208.727 138.384C207.261 138.378 206 138.017 204.943 137.301C203.892 136.585 203.082 135.548 202.514 134.19C201.952 132.832 201.673 131.199 201.679 129.29C201.679 127.386 201.96 125.764 202.523 124.423C203.091 123.082 203.901 122.063 204.952 121.364C206.009 120.659 207.267 120.307 208.727 120.307C210.187 120.307 211.443 120.659 212.494 121.364C213.551 122.068 214.364 123.091 214.932 124.432C215.5 125.767 215.781 127.386 215.776 129.29C215.776 131.205 215.491 132.841 214.923 134.199C214.361 135.557 213.554 136.594 212.503 137.31C211.452 138.026 210.193 138.384 208.727 138.384ZM208.727 135.324C209.727 135.324 210.526 134.821 211.122 133.815C211.719 132.81 212.014 131.301 212.009 129.29C212.009 127.966 211.872 126.864 211.599 125.983C211.332 125.102 210.952 124.44 210.457 123.997C209.969 123.554 209.392 123.332 208.727 123.332C207.733 123.332 206.937 123.83 206.341 124.824C205.744 125.818 205.443 127.307 205.437 129.29C205.437 130.631 205.571 131.75 205.838 132.648C206.111 133.54 206.494 134.21 206.989 134.659C207.483 135.102 208.062 135.324 208.727 135.324Z" fill="white"/>
<path d="M227.961 134.727V133.807C227.961 133.108 228.109 132.466 228.404 131.881C228.705 131.29 229.14 130.818 229.708 130.466C230.282 130.108 230.981 129.929 231.805 129.929C232.64 129.929 233.342 130.105 233.91 130.457C234.484 130.81 234.915 131.281 235.205 131.872C235.501 132.457 235.648 133.102 235.648 133.807V134.727C235.648 135.426 235.501 136.071 235.205 136.662C234.91 137.247 234.475 137.716 233.901 138.068C233.327 138.426 232.629 138.605 231.805 138.605C230.969 138.605 230.268 138.426 229.7 138.068C229.131 137.716 228.7 137.247 228.404 136.662C228.109 136.071 227.961 135.426 227.961 134.727ZM230.441 133.807V134.727C230.441 135.131 230.538 135.511 230.731 135.869C230.93 136.227 231.288 136.406 231.805 136.406C232.322 136.406 232.674 136.23 232.861 135.878C233.055 135.526 233.151 135.142 233.151 134.727V133.807C233.151 133.392 233.06 133.006 232.879 132.648C232.697 132.29 232.339 132.111 231.805 132.111C231.293 132.111 230.938 132.29 230.739 132.648C230.54 133.006 230.441 133.392 230.441 133.807ZM219.004 124.739V123.818C219.004 123.114 219.154 122.469 219.455 121.884C219.756 121.293 220.191 120.821 220.759 120.469C221.333 120.117 222.026 119.94 222.839 119.94C223.68 119.94 224.384 120.117 224.952 120.469C225.521 120.821 225.952 121.293 226.248 121.884C226.543 122.469 226.691 123.114 226.691 123.818V124.739C226.691 125.443 226.54 126.088 226.239 126.673C225.944 127.259 225.509 127.727 224.935 128.08C224.367 128.426 223.668 128.6 222.839 128.6C222.009 128.6 221.308 128.423 220.734 128.071C220.165 127.713 219.734 127.244 219.438 126.665C219.148 126.08 219.004 125.438 219.004 124.739ZM221.501 123.818V124.739C221.501 125.153 221.597 125.537 221.79 125.889C221.989 126.242 222.339 126.418 222.839 126.418C223.361 126.418 223.717 126.242 223.904 125.889C224.097 125.537 224.194 125.153 224.194 124.739V123.818C224.194 123.403 224.103 123.017 223.921 122.659C223.739 122.301 223.379 122.122 222.839 122.122C222.333 122.122 221.984 122.304 221.79 122.668C221.597 123.031 221.501 123.415 221.501 123.818ZM221.878 138C221.137 138 220.7 137.169 221.119 136.559L231.854 120.944C232.026 120.695 232.31 120.546 232.613 120.546C233.353 120.546 233.79 121.376 233.371 121.987L222.636 137.601C222.464 137.851 222.181 138 221.878 138Z" fill="white"/>
</g>
<defs>
<linearGradient id="paint0_linear_550_6983" x1="37.2149" y1="88.3818" x2="37.2149" y2="99.9164" gradientUnits="userSpaceOnUse">
<stop stop-color="#7D9FFF"/>
<stop offset="1" stop-color="#CFDCFF"/>
</linearGradient>
<linearGradient id="paint1_linear_550_6983" x1="37.6209" y1="31.1211" x2="37.6209" y2="58.8745" gradientUnits="userSpaceOnUse">
<stop stop-color="#7D9FFF"/>
<stop offset="1" stop-color="#CFDCFF"/>
</linearGradient>
<linearGradient id="paint2_linear_550_6983" x1="36.2471" y1="54.4502" x2="36.2471" y2="77.361" gradientUnits="userSpaceOnUse">
<stop stop-color="#7D9FFF"/>
<stop offset="1" stop-color="#CFDCFF"/>
</linearGradient>
<linearGradient id="paint3_linear_550_6983" x1="33.1413" y1="70.3799" x2="33.1413" y2="80.8709" gradientUnits="userSpaceOnUse">
<stop stop-color="#7D9FFF"/>
<stop offset="1" stop-color="#CFDCFF"/>
</linearGradient>
<linearGradient id="paint4_linear_550_6983" x1="54.8893" y1="43.9385" x2="54.8893" y2="69.1217" gradientUnits="userSpaceOnUse">
<stop stop-color="#7D9FFF"/>
<stop offset="1" stop-color="#CFDCFF"/>
</linearGradient>
<linearGradient id="paint5_linear_550_6983" x1="63.6595" y1="73.0752" x2="63.6595" y2="88.4051" gradientUnits="userSpaceOnUse">
<stop stop-color="#7D9FFF"/>
<stop offset="1" stop-color="#CFDCFF"/>
</linearGradient>
<linearGradient id="paint6_linear_550_6983" x1="79.6303" y1="57.9375" x2="79.6303" y2="78.9747" gradientUnits="userSpaceOnUse">
<stop stop-color="#7D9FFF"/>
<stop offset="1" stop-color="#CFDCFF"/>
</linearGradient>
<linearGradient id="paint7_linear_550_6983" x1="77.1929" y1="88.9199" x2="77.1929" y2="97.0417" gradientUnits="userSpaceOnUse">
<stop stop-color="#7D9FFF"/>
<stop offset="1" stop-color="#CFDCFF"/>
</linearGradient>
<linearGradient id="paint8_linear_550_6983" x1="79.9875" y1="118.314" x2="79.9875" y2="135.505" gradientUnits="userSpaceOnUse">
<stop stop-color="#7D9FFF"/>
<stop offset="1" stop-color="#CFDCFF"/>
</linearGradient>
<linearGradient id="paint9_linear_550_6983" x1="48.2661" y1="111.259" x2="48.2661" y2="129.716" gradientUnits="userSpaceOnUse">
<stop stop-color="#7D9FFF"/>
<stop offset="1" stop-color="#CFDCFF"/>
</linearGradient>
<linearGradient id="paint10_linear_550_6983" x1="34.4809" y1="107.92" x2="34.4809" y2="126.493" gradientUnits="userSpaceOnUse">
<stop stop-color="#7D9FFF"/>
<stop offset="1" stop-color="#CFDCFF"/>
</linearGradient>
<linearGradient id="paint11_linear_550_6983" x1="22.7643" y1="106.288" x2="22.7643" y2="113.083" gradientUnits="userSpaceOnUse">
<stop stop-color="#7D9FFF"/>
<stop offset="1" stop-color="#CFDCFF"/>
</linearGradient>
<clipPath id="clip0_550_6983">
<rect width="334" height="168" fill="white"/>
</clipPath>
</defs>
</svg>
