<svg width="32" height="32" viewBox="0 0 32 32" fill="none" xmlns="http://www.w3.org/2000/svg">
<path d="M11.92 17.4697C13.33 17.4697 14.46 18.6107 14.46 20.0307V23.4397C14.46 24.8497 13.33 25.9997 11.92 25.9997H8.54C7.14 25.9997 6 24.8497 6 23.4397V20.0307C6 18.6107 7.14 17.4697 8.54 17.4697H11.92ZM23.4601 17.4697C24.8601 17.4697 26.0001 18.6107 26.0001 20.0307V23.4397C26.0001 24.8497 24.8601 25.9997 23.4601 25.9997H20.0801C18.6701 25.9997 17.5401 24.8497 17.5401 23.4397V20.0307C17.5401 18.6107 18.6701 17.4697 20.0801 17.4697H23.4601ZM11.92 6C13.33 6 14.46 7.15 14.46 8.561V11.97C14.46 13.39 13.33 14.53 11.92 14.53H8.54C7.14 14.53 6 13.39 6 11.97V8.561C6 7.15 7.14 6 8.54 6H11.92ZM23.4601 6C24.8601 6 26.0001 7.15 26.0001 8.561V11.97C26.0001 13.39 24.8601 14.53 23.4601 14.53H20.0801C18.6701 14.53 17.5401 13.39 17.5401 11.97V8.561C17.5401 7.15 18.6701 6 20.0801 6H23.4601Z" fill="#6850F3"/>
</svg>
