<svg width="32" height="32" viewBox="0 0 32 32" fill="none" xmlns="http://www.w3.org/2000/svg">
<path d="M15.949 18.5396C19.3802 18.5396 22.31 19.0836 22.31 21.2604C22.31 23.4362 19.399 24 15.949 24C12.5178 24 9.58809 23.456 9.58809 21.2802C9.58809 19.1034 12.499 18.5396 15.949 18.5396ZM21.4351 17.2289C22.7468 17.2046 24.1571 17.3847 24.6782 17.5126C25.7823 17.7296 26.5084 18.1727 26.8093 18.8166C27.0636 19.3453 27.0636 19.9586 26.8093 20.4864C26.349 21.4851 24.8654 21.8058 24.2887 21.8886C24.1696 21.9066 24.0738 21.8031 24.0864 21.6833C24.3809 18.9157 22.0377 17.6035 21.4315 17.3018C21.4055 17.2883 21.4002 17.2676 21.4028 17.255C21.4046 17.246 21.4154 17.2316 21.4351 17.2289ZM10.5656 17.2292C10.5853 17.2319 10.5951 17.2464 10.5969 17.2545C10.5996 17.268 10.5943 17.2878 10.5692 17.3022C9.9621 17.6039 7.61883 18.9161 7.91342 21.6827C7.92595 21.8034 7.83104 21.9061 7.71195 21.889C7.13531 21.8061 5.65163 21.4855 5.19139 20.4867C4.9362 19.9581 4.9362 19.3457 5.19139 18.817C5.49225 18.1731 6.21752 17.73 7.32156 17.512C7.84358 17.385 9.25294 17.2049 10.5656 17.2292ZM15.949 8C18.2851 8 20.1583 9.88227 20.1583 12.2329C20.1583 14.5825 18.2851 16.4666 15.949 16.4666C13.6129 16.4666 11.7397 14.5825 11.7397 12.2329C11.7397 9.88227 13.6129 8 15.949 8ZM21.6634 8.7059C23.9198 8.7059 25.6918 10.8412 25.0883 13.2197C24.6809 14.821 23.2062 15.8846 21.5631 15.8414C21.3984 15.8369 21.2363 15.8216 21.0796 15.7946C20.9659 15.7748 20.9086 15.646 20.973 15.5505C21.5998 14.6229 21.9571 13.507 21.9571 12.3092C21.9571 11.0592 21.5667 9.8938 20.8889 8.93825C20.8674 8.90853 20.8513 8.8626 20.8728 8.82838C20.8907 8.80046 20.9238 8.78605 20.9551 8.77884C21.1835 8.73201 21.4181 8.7059 21.6634 8.7059ZM10.3359 8.70581C10.5813 8.70581 10.8159 8.73192 11.0451 8.77875C11.0755 8.78596 11.1096 8.80127 11.1275 8.82829C11.1481 8.86251 11.1328 8.90844 11.1113 8.93816C10.4335 9.89371 10.0431 11.0591 10.0431 12.3091C10.0431 13.5069 10.4004 14.6228 11.0272 15.5504C11.0916 15.6459 11.0343 15.7747 10.9206 15.7945C10.763 15.8224 10.6019 15.8368 10.4371 15.8413C8.79404 15.8845 7.31932 14.8209 6.91191 13.2196C6.30751 10.8411 8.07951 8.70581 10.3359 8.70581Z" fill="#6850F3"/>
</svg>
