<svg width="32" height="32" viewBox="0 0 32 32" fill="none" xmlns="http://www.w3.org/2000/svg">
<path d="M20.5156 7C23.9644 7 26 8.98459 26 12.3818H21.7689V12.4165C19.8052 12.4165 18.2133 13.9685 18.2133 15.883C18.2133 17.7975 19.8052 19.3495 21.7689 19.3495H26V19.6615C26 23.0154 23.9644 25 20.5156 25H11.4844C8.03556 25 6 23.0154 6 19.6615V12.3385C6 8.98459 8.03556 7 11.4844 7H20.5156ZM25.2533 13.8724C25.6657 13.8724 26 14.1983 26 14.6004V17.131C25.9952 17.5311 25.6637 17.8543 25.2533 17.8589H21.8489C20.8548 17.872 19.9855 17.2084 19.76 16.2643C19.6471 15.6783 19.8056 15.0736 20.1931 14.6122C20.5805 14.1509 21.1573 13.8801 21.7689 13.8724H25.2533ZM22.2489 15.0424H21.92C21.7181 15.0401 21.5236 15.1166 21.38 15.255C21.2364 15.3934 21.1556 15.5821 21.1556 15.779C21.1555 16.1921 21.4964 16.5282 21.92 16.533H22.2489C22.6711 16.533 23.0133 16.1993 23.0133 15.7877C23.0133 15.3761 22.6711 15.0424 22.2489 15.0424ZM16.3822 10.8912H10.7378C10.319 10.8912 9.9782 11.2196 9.97333 11.6278C9.97333 12.0409 10.3142 12.3771 10.7378 12.3818H16.3822C16.8044 12.3818 17.1467 12.0481 17.1467 11.6365C17.1467 11.2249 16.8044 10.8912 16.3822 10.8912Z" fill="#6850F3"/>
</svg>
