<svg width="32" height="32" viewBox="0 0 32 32" fill="none" xmlns="http://www.w3.org/2000/svg">
<path d="M21.856 7C24.14 7 25.999 8.84201 25.999 11.1051L26 13.7825C26 13.9786 25.921 14.1689 25.781 14.3076C25.64 14.4473 25.45 14.5256 25.25 14.5256C24.429 14.5256 23.761 15.1875 23.761 16.001C23.761 16.8145 24.429 17.4764 25.25 17.4764C25.664 17.4764 26 17.8093 26 18.2195V20.8958C26 23.159 24.142 25 21.858 25H10.143C7.859 25 6 23.159 6 20.8958V18.2195C6 17.8093 6.336 17.4764 6.75 17.4764C7.572 17.4764 8.24 16.8145 8.24 16.001C8.24 15.2083 7.599 14.6118 6.75 14.6118C6.551 14.6118 6.361 14.5335 6.22 14.3938C6.079 14.2541 6 14.0648 6 13.8687L6.002 11.1051C6.002 8.84201 7.86 7 10.144 7H21.856ZM16.002 12.1535C15.718 12.1535 15.464 12.31 15.337 12.5617L14.608 14.0252L12.982 14.26C12.701 14.2997 12.471 14.4899 12.382 14.7575C12.294 15.025 12.365 15.3143 12.569 15.5105L13.748 16.648L13.47 18.2562C13.422 18.5336 13.535 18.8091 13.765 18.9746C13.895 19.0667 14.046 19.1143 14.199 19.1143C14.316 19.1143 14.434 19.0855 14.542 19.0291L16 18.2701L17.455 19.0271C17.707 19.1608 18.006 19.14 18.235 18.9736C18.466 18.8091 18.579 18.5336 18.531 18.2562L18.252 16.648L19.431 15.5105C19.636 15.3143 19.707 15.025 19.618 14.7575C19.53 14.4899 19.3 14.2997 19.022 14.261L17.393 14.0252L16.664 12.5627C16.539 12.311 16.285 12.1545 16.002 12.1535Z" fill="#6850F3"/>
</svg>
