<svg width="32" height="32" viewBox="0 0 32 32" fill="none" xmlns="http://www.w3.org/2000/svg">
<path d="M16.7172 6C17.4735 6 18.1582 6.42 18.5363 7.04C18.7203 7.34 18.8429 7.71 18.8122 8.1C18.7918 8.4 18.8838 8.7 19.0473 8.98C19.5685 9.83 20.7233 10.15 21.6226 9.67C22.6344 9.09 23.9118 9.44 24.4943 10.43L25.179 11.61C25.7718 12.6 25.4447 13.87 24.4228 14.44C23.5541 14.95 23.2475 16.08 23.7687 16.94C23.9322 17.21 24.1162 17.44 24.4023 17.58C24.76 17.77 25.036 18.07 25.2301 18.37C25.6083 18.99 25.5776 19.75 25.2097 20.42L24.4943 21.62C24.1162 22.26 23.411 22.66 22.6855 22.66C22.3278 22.66 21.9292 22.56 21.6022 22.36C21.3365 22.19 21.0299 22.13 20.7029 22.13C19.6911 22.13 18.8429 22.96 18.8122 23.95C18.8122 25.1 17.872 26 16.6968 26H15.3069C14.1215 26 13.1813 25.1 13.1813 23.95C13.1608 22.96 12.3126 22.13 11.3009 22.13C10.9636 22.13 10.657 22.19 10.4015 22.36C10.0745 22.56 9.66572 22.66 9.31825 22.66C8.58245 22.66 7.87729 22.26 7.49917 21.62L6.79402 20.42C6.4159 19.77 6.39546 18.99 6.77358 18.37C6.93709 18.07 7.24368 17.77 7.59115 17.58C7.87729 17.44 8.06125 17.21 8.23498 16.94C8.74596 16.08 8.43937 14.95 7.57071 14.44C6.55897 13.87 6.23194 12.6 6.81446 11.61L7.49917 10.43C8.09191 9.44 9.35913 9.09 10.3811 9.67C11.2702 10.15 12.425 9.83 12.9462 8.98C13.1097 8.7 13.2017 8.4 13.1813 8.1C13.1608 7.71 13.2732 7.34 13.4674 7.04C13.8455 6.42 14.5302 6.02 15.2763 6H16.7172ZM16.0121 13.18C14.4076 13.18 13.1097 14.44 13.1097 16.01C13.1097 17.58 14.4076 18.83 16.0121 18.83C17.6165 18.83 18.8838 17.58 18.8838 16.01C18.8838 14.44 17.6165 13.18 16.0121 13.18Z" fill="#6850F3"/>
</svg>
