<svg width="32" height="32" viewBox="0 0 32 32" fill="none" xmlns="http://www.w3.org/2000/svg">
<path d="M5.92773 15.3107C5.96113 15.0651 5.99157 14.8224 6.02594 14.5793C6.3741 12.2814 7.37485 10.3195 9.05177 8.70636C9.0918 8.67281 9.1345 8.64258 9.17944 8.61597L9.15783 8.55703L7.5747 8.36054C7.62381 7.96316 7.66653 7.58394 7.71416 7.18164L11.3587 7.61243C11.2114 8.85126 11.0641 10.0714 10.9168 11.3058L9.73825 11.1624C9.80307 10.6172 9.86543 10.0896 9.92976 9.54878C7.81826 11.3756 6.42664 14.9133 7.47011 18.4308C8.14775 20.7145 9.52023 22.4764 11.5949 23.6588C13.6617 24.8377 15.867 25.097 18.195 24.5454L18.4985 25.6993C18.1607 25.7666 17.8385 25.8363 17.5164 25.8928C17.236 25.9419 16.9527 25.9753 16.6708 26.0156H15.2959C15.2399 26.0028 15.184 25.9861 15.127 25.9773C14.6517 25.9026 14.1685 25.8599 13.703 25.7508C11.6298 25.267 9.8728 24.232 8.45957 22.6385C7.13374 21.1418 6.32646 19.3965 6.04362 17.4111C5.99992 17.1031 5.96604 16.7941 5.92773 16.4851V15.3107Z" fill="#6850F3"/>
<path d="M10.6826 20.1734C10.6335 19.3471 10.715 18.5701 11.1368 17.8514C11.5503 17.1465 12.1322 16.6406 12.8943 16.3071C12.4077 15.6552 12.2324 14.9469 12.4032 14.1698C12.522 13.6065 12.8394 13.1047 13.2974 12.7561C14.2476 12.0158 15.5636 12.0375 16.4573 12.8052C16.9685 13.2473 17.2739 13.7994 17.3368 14.4753C17.3982 15.1404 17.2175 15.7392 16.8074 16.2825C18.4303 17.0758 19.1507 18.3706 19.0137 20.1665L10.6826 20.1734Z" fill="#6850F3"/>
<path d="M21.4143 22.9242C24.3513 20.6646 25.6781 16.5473 24.1966 12.7395C23.6619 11.347 22.7751 10.1173 21.623 9.17033C20.4754 8.21254 19.1028 7.56289 17.6347 7.28261C16.1518 6.99329 14.6885 7.09399 13.231 7.5572C13.1078 7.18142 12.9885 6.82038 12.8691 6.45591C15.8321 5.34184 20.5992 5.8247 23.6997 9.58147C25.4561 11.7109 26.2069 14.1836 25.9516 16.928C25.6962 19.6724 24.4426 21.9265 22.3178 23.7519C22.5909 23.7877 22.8231 23.8192 23.0544 23.8501C23.2857 23.8811 23.5297 23.9061 23.7871 23.9361C23.738 24.3394 23.6957 24.7186 23.6496 25.115L20.0045 24.6832C20.1518 23.4498 20.2992 22.235 20.4499 20.9923L21.6284 21.1318C21.5543 21.7261 21.4855 22.3121 21.4143 22.9242Z" fill="#6850F3"/>
<path d="M19.2586 13.8287C21.0338 14.6146 21.68 16.1703 21.5071 17.7382C20.9699 17.7382 20.4298 17.7382 19.8896 17.7333C19.8498 17.7333 19.7944 17.6734 19.7732 17.6282C19.4676 16.9681 19.0173 16.3854 18.4558 15.9232C18.431 15.895 18.413 15.8615 18.403 15.8252C18.3931 15.789 18.3915 15.7509 18.3983 15.714C18.8992 13.7241 17.8449 11.8103 15.8984 11.2007C15.6578 11.1251 15.4044 11.0917 15.124 11.0318C15.4987 10.3966 16.0369 9.98451 16.7499 9.83665C17.7501 9.62985 18.5952 9.93195 19.2493 10.7208C19.6145 11.1555 19.8099 11.7078 19.7993 12.2755C19.7986 12.8393 19.6081 13.3864 19.2586 13.8287Z" fill="#6850F3"/>
</svg>
