<svg width="20" height="20" viewBox="0 0 20 20" fill="none" xmlns="http://www.w3.org/2000/svg">
<g opacity="0.7">
<path d="M16.6665 3.3335H3.33317C2.4127 3.3335 1.6665 3.89314 1.6665 4.5835V7.0835C1.6665 7.77385 2.4127 8.3335 3.33317 8.3335H16.6665C17.587 8.3335 18.3332 7.77385 18.3332 7.0835V4.5835C18.3332 3.89314 17.587 3.3335 16.6665 3.3335Z" stroke="#6F6F6F" stroke-width="1.5" stroke-linecap="round" stroke-linejoin="round"/>
<path d="M16.6665 12.5H3.33317C2.4127 12.5 1.6665 13.0596 1.6665 13.75V16.25C1.6665 16.9404 2.4127 17.5 3.33317 17.5H16.6665C17.587 17.5 18.3332 16.9404 18.3332 16.25V13.75C18.3332 13.0596 17.587 12.5 16.6665 12.5Z" stroke="#6F6F6F" stroke-width="1.5" stroke-linecap="round" stroke-linejoin="round"/>
</g>
</svg>
