<svg width="21" height="16" viewBox="0 0 21 16" fill="none" xmlns="http://www.w3.org/2000/svg">
<path d="M21 2.08211V13.9173C20.9834 13.9461 20.97 13.9768 20.96 14.0086C20.7068 15.2144 19.7589 15.9999 18.5489 15.9999C13.1701 15.9999 7.79137 15.9999 2.41287 15.9999C2.09451 16.0023 1.7789 15.9401 1.48446 15.8171C1.19003 15.694 0.922682 15.5126 0.698049 15.2834C0.473417 15.0542 0.296002 14.7818 0.176174 14.4822C0.0563462 14.1825 -0.00349171 13.8616 0.00015739 13.5382C0.00015739 9.83712 0.00015739 6.13609 0.00015739 2.43506C-5.85628e-05 2.11541 0.0617188 1.79885 0.181957 1.50346C0.302194 1.20807 0.478536 0.939643 0.700912 0.713511C0.923288 0.48738 1.18734 0.307976 1.47798 0.18555C1.76862 0.0631229 2.08015 7.30548e-05 2.39479 0C7.80142 0 13.2081 0 18.6147 0C19.4038 0 20.0328 0.346276 20.5194 0.972578C20.7726 1.30215 20.8899 1.69018 21 2.08211ZM6.54073 12.4414H8.07504C8.64219 12.4414 9.20934 12.4453 9.77375 12.4414C10.2368 12.4364 10.496 12.1681 10.4932 11.6982C10.4949 11.4488 10.4823 11.1996 10.4554 10.9517C10.3245 9.89391 9.37647 8.95696 8.3293 8.91966C7.19665 8.87902 6.0618 8.89127 4.92805 8.90463C4.22939 8.91298 3.65128 9.22251 3.19647 9.75863C2.79645 10.2302 2.64027 10.788 2.61288 11.4059C2.57726 12.2182 2.85343 12.472 3.62607 12.4498C4.60036 12.4197 5.57301 12.4414 6.54073 12.4414ZM6.55497 3.56129C6.12219 3.56153 5.69923 3.69239 5.33977 3.93725C4.98031 4.18212 4.70055 4.52995 4.53599 4.93662C4.37144 5.34329 4.3295 5.79046 4.41552 6.22138C4.50153 6.6523 4.71161 7.04754 5.0191 7.35696C5.32659 7.66638 5.71762 7.87601 6.14257 7.95927C6.56753 8.04252 7.00725 7.99565 7.40594 7.82458C7.80463 7.65352 8.1443 7.36598 8.38187 6.99845C8.61944 6.63093 8.74418 6.19999 8.74028 5.76031C8.73738 5.17434 8.50554 4.61351 8.09575 4.20115C7.68596 3.78878 7.13175 3.55863 6.55497 3.56129ZM15.3269 11.1192C14.5418 11.1192 13.7564 11.1192 12.9706 11.1192C12.5487 11.1192 12.2676 11.3714 12.2582 11.7522C12.2489 12.1503 12.5213 12.4364 12.9432 12.4381C14.5203 12.4437 16.0973 12.4437 17.6744 12.4381C18.0837 12.4381 18.3719 12.1542 18.3741 11.7806C18.3763 11.4071 18.0755 11.1198 17.6618 11.1192C16.8829 11.1181 16.1046 11.1181 15.3269 11.1192ZM15.3269 5.33331C16.1127 5.33331 16.8979 5.33665 17.6831 5.33331C18.081 5.33331 18.3785 5.03881 18.378 4.66526C18.3774 4.2917 18.0799 4.00054 17.6815 3.99999C16.1039 3.99664 14.5268 3.99442 12.9492 4.00555C12.7876 4.01445 12.6316 4.06901 12.4988 4.1631C12.2752 4.31842 12.2067 4.61404 12.2911 4.87013C12.3854 5.15516 12.6287 5.33109 12.9487 5.3322C13.7378 5.33554 14.5312 5.33331 15.323 5.33331H15.3269ZM15.3104 8.88013C16.0957 8.88013 16.8809 8.8857 17.6667 8.87512C17.815 8.87273 17.9603 8.83294 18.0897 8.75933C18.201 8.68951 18.2871 8.58499 18.3351 8.46137C18.3831 8.33775 18.3905 8.20167 18.356 8.07346C18.2832 7.78786 18.0821 7.57241 17.7999 7.57241C16.1417 7.56239 14.483 7.5674 12.8243 7.57241C12.7632 7.57598 12.7034 7.59188 12.6484 7.61918C12.5124 7.67857 12.4007 7.78358 12.3318 7.91664C12.2629 8.04971 12.2411 8.20277 12.27 8.35022C12.2988 8.49768 12.3767 8.63059 12.4904 8.72675C12.6042 8.8229 12.747 8.87645 12.895 8.87846C13.6956 8.88292 14.5011 8.88013 15.3066 8.88013H15.3104Z" fill="white"/>
</svg>
