<svg width="150" height="123" viewBox="0 0 150 123" fill="none" xmlns="http://www.w3.org/2000/svg">
<path d="M124.13 1.98248C104.104 2.29712 21.5979 2.46825 0.960963 2.20656C-0.264424 2.19121 -0.357501 0.107716 0.910963 0.107716C22.1841 0.133808 95.7234 -0.270613 124.09 0.337937C125.455 0.365564 125.084 1.96713 124.13 1.98248Z" fill="#1C1C1C"/>
<path d="M99.5562 61.8182C98.1746 62.4133 96.7067 62.7845 95.2078 62.9179C95.3516 64.6753 95.3325 66.4422 95.1508 68.1961C95.1311 68.2908 95.0783 68.3754 95.002 68.435C94.9257 68.4947 94.8308 68.5255 94.7339 68.522C94.637 68.5185 94.5445 68.4809 94.4727 68.416C94.401 68.351 94.3545 68.2628 94.3416 68.167C94.1978 66.9675 94.5339 65.6683 94.2916 62.977C92.4924 63.0254 91.6493 62.469 90.0685 62.2549C86.1376 61.7194 82.3594 60.3819 78.9693 58.3258C78.8685 58.2488 78.8023 58.1353 78.7848 58.0099C78.7674 57.8845 78.8002 57.7573 78.8762 57.6558C82.3545 53.4183 85.0292 48.5837 86.7693 43.3891C86.9747 42.802 87.6554 42.0131 87.6585 43.0238C87.667 45.6145 87.3639 48.2037 87.3639 50.7983C87.3639 55.5071 87.4893 60.5443 92.0878 61.7277C94.9078 62.4513 97.5324 61.5335 99.2778 61.0685C99.6924 60.9541 100 61.6041 99.5562 61.8182Z" fill="#1C1C1C"/>
<path d="M92.8999 51.7434C92.4968 52.5223 93.8706 52.4302 94.6945 52.4693C94.7985 52.478 94.8961 52.5231 94.9699 52.5967C95.0437 52.6703 95.089 52.7676 95.0978 52.8713C95.1065 52.9751 95.0782 53.0786 95.0177 53.1635C94.9573 53.2483 94.8686 53.3091 94.7676 53.335C94.2228 53.4081 93.669 53.3768 93.136 53.2429C92.1837 53.0457 91.4568 52.6957 91.9752 51.6313C92.3105 50.9129 92.6912 50.2165 93.1152 49.5463C93.1673 49.4651 93.2471 49.4056 93.3399 49.3789C93.4327 49.3521 93.532 49.36 93.6194 49.4009C93.7068 49.4419 93.7763 49.5132 93.8149 49.6015C93.8535 49.6898 93.8585 49.7891 93.8291 49.8809C93.567 50.5243 93.2564 51.1469 92.8999 51.7434Z" fill="#1C1C1C"/>
<path d="M98.1187 48.7436C98.128 49.2363 98.1649 49.983 97.4372 50.0021C96.851 50.0183 96.6864 49.501 96.6895 48.8096C96.6926 47.5641 98.0887 47.2172 98.1187 48.7436Z" fill="#1C1C1C"/>
<path d="M91.256 48.7123C91.2437 49.1835 91.0429 49.6278 90.4975 49.6055C90.0421 49.5871 89.8783 48.9732 89.8913 48.5688C89.9106 47.9717 90.099 47.6671 90.4775 47.5842C91.0583 47.4568 91.2721 48.1214 91.256 48.7123Z" fill="#1C1C1C"/>
<path d="M90.7302 45.1971C90.4254 45.162 90.1169 45.2125 89.8394 45.3429C89.5618 45.4734 89.3263 45.6786 89.1594 45.9353C88.7379 46.5569 88.2871 46.0466 88.4471 45.6783C88.6525 45.2304 88.9965 44.8601 89.4285 44.6217C89.8604 44.3833 90.3577 44.2894 90.8471 44.3537C90.9565 44.3723 91.0543 44.4326 91.1198 44.5219C91.1854 44.6111 91.2136 44.7223 91.1984 44.832C91.1832 44.9416 91.1258 45.041 91.0384 45.1091C90.951 45.1773 90.8405 45.2088 90.7302 45.1971Z" fill="#1C1C1C"/>
<path d="M96.9958 45.0915C96.8998 45.0909 96.807 45.0562 96.7343 44.9937C96.6615 44.9311 96.6134 44.8448 96.5986 44.7501C96.5838 44.6554 96.6032 44.5585 96.6535 44.4768C96.7037 44.3951 96.7814 44.3339 96.8728 44.3042C97.4599 44.1786 98.0727 44.2692 98.5981 44.5592C99.1235 44.8492 99.526 45.319 99.7312 45.8819C99.8581 46.3217 99.2697 46.6823 99.0466 46.1889C98.8697 45.8093 98.5742 45.4972 98.2045 45.2994C97.8347 45.1015 97.4106 45.0286 96.9958 45.0915Z" fill="#1C1C1C"/>
<path d="M93.3319 55.8706C93.6626 56.6137 94.2496 57.2137 94.9861 57.5617C95.7227 57.9097 96.56 57.9825 97.3457 57.7668C98.1562 57.5059 98.8372 56.9479 99.2512 56.2055C99.6653 55.4632 99.7815 54.5917 99.5765 53.7671C99.4827 53.3834 99.1381 53.2499 98.7242 53.5753C96.9927 54.9367 95.7111 55.1492 93.665 55.183C93.3327 55.1884 93.138 55.4853 93.3319 55.8706Z" fill="#1C1C1C"/>
<path d="M37.3754 70.6503C37.5585 70.9964 37.0462 71.3678 36.76 71.1108C35.1039 69.6151 32.0716 67.504 31.2162 65.5087C30.0623 62.8228 30.6923 59.4593 28.4092 57.286C28.3269 57.2158 28.2749 57.1166 28.2639 57.0091C28.2529 56.9016 28.2838 56.794 28.3502 56.7087C28.4166 56.6233 28.5133 56.5667 28.6204 56.5506C28.7275 56.5345 28.8367 56.5601 28.9254 56.6222C31.4485 58.3926 30.97 61.859 32.1385 64.373C33.3231 66.9184 36.0769 68.2015 37.3754 70.6503Z" fill="#1C1C1C"/>
<path d="M20.501 66.7302C18.1474 66.2645 15.946 65.2246 14.0932 63.7035C13.4986 63.1809 14.2109 62.7596 14.6448 63.052C16.4873 64.3507 18.5961 65.2249 20.8186 65.6113C22.9879 65.9315 25.1964 65.8749 27.3463 65.444C27.8764 65.3734 27.8648 66.1469 27.5002 66.3649C25.8417 67.3587 22.3625 67.1392 20.501 66.7302Z" fill="#1C1C1C"/>
<path d="M10.7197 65.5346C10.3905 65.1747 10.9443 64.6966 11.3059 64.9575C13.7746 66.8472 16.6091 68.206 19.6305 68.948C21.9905 69.4852 21.3359 70.5872 19.2174 70.1513C15.9715 69.5343 13.0003 67.9201 10.7197 65.5346Z" fill="#1C1C1C"/>
<path d="M19.8895 73.9429C17.0857 73.781 13.2026 72.4917 11.098 70.6515C11.024 70.5842 10.9765 70.4927 10.9641 70.3936C10.9518 70.2944 10.9753 70.1941 11.0306 70.1108C11.0858 70.0274 11.1691 69.9665 11.2654 69.939C11.3616 69.9115 11.4646 69.9193 11.5557 69.9608C14.7549 71.5248 16.4611 72.3191 20.0365 72.7619C22.1119 73.0197 22.0511 74.068 19.8895 73.9429Z" fill="#1C1C1C"/>
<path d="M32.2816 77.5246C32.8454 77.9083 32.2046 78.853 31.63 78.5138C28.5977 76.7326 25.1446 77.8231 21.8508 77.8178C18.6391 77.8721 15.4928 76.9094 12.8638 75.0681C12.4846 74.785 12.9023 74.2186 13.3031 74.402C16.3131 75.9186 19.6565 76.6574 23.0269 76.5508C26.14 76.3628 29.5139 75.6445 32.2816 77.5246Z" fill="#1C1C1C"/>
<path d="M148.98 122.899C118.191 123.273 30.5288 122.503 11.8041 122.286C10.598 122.272 9.64105 120.913 11.7695 120.904C35.8465 120.781 113.124 120.81 148.935 121.139C150.345 121.148 150.349 122.883 148.98 122.899Z" fill="#6850F3"/>
<path d="M89.6536 67.376C82.8844 68.4503 69.9182 75.6708 62.8574 84.9863C69.5497 83.9757 89.2882 83.803 94.9606 84.4668C92.8264 81.874 90.463 79.4778 87.899 77.3069C88.8836 76.1812 89.8098 75.3055 90.6198 74.5351C88.999 73.5374 86.3344 71.9459 85.1582 71.3979C86.4906 69.8832 87.9997 68.533 89.6536 67.376Z" fill="#6850F3"/>
<path d="M104.454 74.8811C105.322 75.7441 106.062 76.726 106.653 77.7972C104.279 79.154 99.6771 81.6949 96.8994 84.6394C99.5517 84.9863 101.284 86.2701 102.207 90.1647C102.604 91.8353 103.152 94.5159 103.695 97.5249C108.72 96.4292 113.829 95.7553 118.967 95.5104C118.066 93.2073 116.86 91.0343 115.383 89.0489C115.066 88.6307 115.654 88.0996 116.004 88.5056C117.788 90.5484 119.169 92.9095 120.073 95.4644C122.374 95.3287 124.683 95.3613 126.979 95.5618C127.503 95.6209 127.509 96.4014 126.967 96.3883C119.21 96.1362 111.453 96.8654 103.879 98.5586C104.653 102.957 105.38 107.873 105.609 111.314C117.532 111.198 136.875 117.076 139.873 109.986C146.586 94.1076 126.196 69.0465 111.687 66.8525C112.912 68.5436 113.769 70.4709 114.205 72.5114C112.616 73.0616 106.539 74.5051 104.454 74.8811Z" fill="#6850F3"/>
<path d="M95.5285 79.3861C93.0901 73.3152 93.1562 70.0836 92.4608 67.1077C92.4448 67.005 92.3899 66.9124 92.3074 66.8489C92.2249 66.7855 92.1211 66.7561 92.0175 66.7669C91.9139 66.7776 91.8184 66.8276 91.7507 66.9066C91.683 66.9856 91.6484 67.0875 91.6539 67.1913C91.6293 70.7835 93.4639 76.767 94.9539 80.2072C95.0011 80.2905 95.0673 80.3615 95.1471 80.4145C95.227 80.4675 95.3182 80.501 95.4135 80.5122C95.5087 80.5234 95.6053 80.5121 95.6953 80.4791C95.7853 80.4461 95.8663 80.3924 95.9316 80.3223C100.757 73.6375 103.168 71.2225 108.701 66.935C108.787 66.8742 108.846 66.7825 108.866 66.6791C108.886 66.5758 108.864 66.4688 108.807 66.3807C108.749 66.2926 108.659 66.2302 108.557 66.2066C108.454 66.1831 108.346 66.2001 108.255 66.2543C103.121 69.6731 98.7806 74.1512 95.5285 79.3861Z" fill="#6850F3"/>
<path d="M56.2969 85.6797C51.5508 82.7927 43.5054 75.6904 40.2069 71.1973C36.8921 74.5704 33.9432 78.2829 31.4092 82.2732C37.4138 91.1075 46.9231 100.638 52.8823 103.407C52.19 100.461 52.0138 92.32 52.19 89.7216C52.3661 87.1232 54.3292 86.0841 56.2969 85.6797Z" fill="#6850F3"/>
<path d="M29.1008 85.5447C30.5731 85.4833 29.8161 84.4535 29.1884 84.4412C20.8038 84.277 11.8176 84.0728 5.4961 84.1711C5.98456 47.7294 5.69225 24.7357 5.89225 4.20231C5.89764 3.65822 5.07994 3.74187 5.05533 4.25987C4.25686 20.9532 4.74763 65.9076 4.13225 84.0467C4.11071 84.6683 4.15379 85.0651 5.50148 85.1249C9.2761 85.2938 12.9546 85.3007 16.7507 85.3659C20.2392 85.4265 25.72 85.6859 29.1008 85.5447Z" fill="#6850F3"/>
<path d="M120.96 49.3751C121.33 41.893 121.215 34.3118 121.249 26.8135C121.269 22.381 121.47 10.4801 121.42 4.6394C121.412 3.62796 120.367 4.20428 120.356 4.71614C120.154 14.6333 119.63 39.3958 120.01 49.3859C120.042 50.227 120.923 50.2147 120.96 49.3751Z" fill="#6850F3"/>
<path d="M17.6505 26.5064C17.6505 24.0737 17.6713 21.6426 17.6505 19.2099C28.6336 19.147 39.6237 19.0849 50.6052 18.8869C50.6144 21.0156 50.6052 23.1444 50.6052 25.2732C40.1152 25.541 29.3883 25.9355 18.8667 26.1235C18.189 26.1357 18.299 27.1456 18.9544 27.1541C29.5783 27.2822 40.5283 26.6062 51.1852 26.3307C51.3262 26.3161 51.4561 26.2476 51.5476 26.1396C51.6391 26.0316 51.6851 25.8924 51.676 25.7513C51.676 23.2657 51.6675 20.7793 51.6844 18.2937C51.6694 18.1519 51.6 18.0214 51.4908 17.9296C51.3815 17.8378 51.2409 17.7917 51.0983 17.801C39.7513 17.8079 28.3967 17.9621 17.0498 18.1133C16.9047 18.1283 16.7711 18.1988 16.677 18.31C16.5829 18.4211 16.5356 18.5644 16.5452 18.7096C16.6082 21.3341 16.7421 23.9525 16.8328 26.5755C16.8459 27.1088 17.6498 27.0336 17.6505 26.5064Z" fill="#6850F3"/>
<path d="M17.011 44.0468C28.4818 43.6002 40.2918 43.548 51.6926 42.7645C51.7761 42.7664 51.8589 42.7498 51.9352 42.7158C52.0114 42.6818 52.079 42.6313 52.1332 42.5679C52.1875 42.5046 52.2268 42.43 52.2486 42.3496C52.2703 42.2691 52.2738 42.1849 52.2588 42.103C52.0572 40.4807 51.8549 38.8584 51.6434 37.2376C51.5549 36.5646 50.5426 36.7949 50.6165 37.4556C50.7703 38.8638 50.9411 40.2712 51.1088 41.6763C39.9718 42.1452 28.7364 42.4621 17.6472 42.8167C17.6472 40.6165 17.6357 38.4133 17.698 36.217C28.9095 36.1011 39.9288 35.92 51.2634 36.0121C51.3727 36.0139 51.4785 35.9733 51.5584 35.8988C51.6382 35.8242 51.6859 35.7217 51.6914 35.6127C51.6969 35.5038 51.6598 35.397 51.5878 35.3148C51.5158 35.2327 51.4147 35.1817 51.3057 35.1726C39.9272 34.65 28.5011 34.8802 17.0749 34.9032C16.9863 34.8985 16.8977 34.9112 16.8141 34.9408C16.7305 34.9704 16.6536 35.0161 16.5878 35.0755C16.522 35.1348 16.4687 35.2066 16.4308 35.2866C16.3929 35.3666 16.3713 35.4533 16.3672 35.5417C16.4618 38.1608 16.4264 40.7892 16.4356 43.4114C16.4297 43.5712 16.4865 43.727 16.594 43.8457C16.7014 43.9644 16.8511 44.0365 17.011 44.0468Z" fill="#6850F3"/>
<path d="M50.7496 59.4151C45.2419 59.488 38.235 59.379 32.585 59.6453C32.1119 59.6676 32.1334 60.6299 32.5973 60.6376C37.6842 60.7243 45.3827 60.4733 51.2635 60.5969C51.9135 60.6107 51.9435 59.983 51.8673 59.5164C51.4876 57.2262 51.4671 54.8909 51.8066 52.5944C51.8222 52.5116 51.8191 52.4263 51.7974 52.3449C51.7757 52.2634 51.7359 52.1879 51.6811 52.1238C51.6263 52.0596 51.5578 52.0086 51.4806 51.9744C51.4034 51.9402 51.3195 51.9236 51.235 51.926C40.0442 52.19 28.8504 52.6029 17.6603 52.7817C17.5099 52.7919 17.3693 52.8599 17.268 52.9714C17.1668 53.0828 17.1127 53.2291 17.1173 53.3795C17.0973 55.7952 17.1019 58.2141 17.085 60.6268C17.0955 60.7857 17.1674 60.9343 17.2857 61.0413C17.404 61.1483 17.5593 61.2052 17.7188 61.2001C20.9496 61.0819 23.4934 61.0995 26.725 60.9008C27.2634 60.8678 27.2181 59.8986 26.6842 59.897C23.886 59.8905 21.0878 59.9197 18.2903 59.9845C18.2788 57.9578 18.2765 55.9311 18.2627 53.9044C29.0488 53.5207 39.8435 53.3518 50.6319 53.051C50.3795 55.1678 50.4191 57.3091 50.7496 59.4151Z" fill="#6850F3"/>
<path d="M76.8994 66.5701C77.4086 66.6906 77.5471 65.8748 77.0532 65.7305C71.6664 64.0184 67.1482 60.3011 64.4378 55.3514C58.1832 44.2072 62.0532 29.6028 72.2148 22.1943C81.2148 15.6322 100.549 15.7657 106.783 26.4917C107.159 27.1402 108.139 26.7856 107.825 26.0957C102.951 15.3789 83.1694 13.8441 73.4686 19.7531C62.0463 26.7135 56.7486 41.7669 62.4071 54.1044C65.2532 60.3111 70.5394 65.0675 76.8994 66.5701Z" fill="#6850F3"/>
<path d="M120.87 68.8166C121.066 67.162 120.892 62.7541 120.899 60.1748C120.899 59.2493 120.028 59.5893 119.996 59.9768C119.811 62.9208 119.804 65.8732 119.973 68.8181C120.008 69.2578 120.819 69.2509 120.87 68.8166Z" fill="#6850F3"/>
<path d="M123.63 114.204C119.039 113.667 109.517 113.078 103.334 112.976C103.334 109.434 99.9387 89.1864 97.778 87.4928C95.7087 85.8705 56.4533 85.5681 54.8325 88.6439C52.7017 92.6927 56.2233 117.776 58.1679 118.438C61.3317 119.513 121.467 119.334 124.091 119.129C125.463 119.025 125.658 114.439 123.63 114.204ZM66.9502 89.9086C64.6702 90.1465 62.4887 90.4611 60.2148 90.7934C58.2464 91.0812 58.1071 91.4925 57.8933 93.3772C57.6222 95.6151 57.4922 97.8678 57.504 100.122C57.504 100.602 56.8048 100.727 56.741 100.222C56.4466 97.6357 56.4663 95.023 56.7994 92.441C57.0194 90.7466 57.6456 89.9853 59.3379 89.6407C61.8401 89.1365 64.3944 88.9365 66.9448 89.0452C67.0484 89.0603 67.1431 89.1119 67.2118 89.1907C67.2805 89.2695 67.3186 89.3702 67.3193 89.4746C67.32 89.579 67.2831 89.6802 67.2154 89.7598C67.1476 89.8394 67.0536 89.8922 66.9502 89.9086ZM77.001 107.044C75.3741 107.351 73.6118 106.473 72.9772 103.997C72.4256 101.849 73.4387 100.227 75.2279 99.7705C79.5126 98.6777 81.0779 106.267 77.001 107.044Z" fill="#1C1C1C"/>
<path d="M121.477 55.8101C114.161 48.5789 118.522 38.4407 113.843 33.5347C112.959 32.5832 111.764 31.9761 110.472 31.8215C109.18 31.6669 107.876 31.9749 106.79 32.6906C103.187 26.8437 95.8358 25.4286 89.5773 27.374C82.7565 29.4943 80.3127 37.8015 85.788 40.4751C88.6573 41.8764 98.7304 41.9953 101.88 41.3868C102.132 43.9882 103.107 46.4677 104.696 48.5459C104.859 48.7416 105.087 49.0125 105.357 48.7761C105.65 48.5129 105.995 48.3132 106.369 48.1897C106.743 48.0662 107.139 48.0215 107.531 48.0586C107.923 48.0957 108.304 48.2137 108.648 48.4051C108.992 48.5965 109.293 48.8572 109.531 49.1705C109.75 49.4932 109.903 49.8559 109.981 50.2377C110.059 50.6195 110.06 51.0129 109.986 51.3953C109.911 51.7777 109.761 52.1416 109.545 52.4661C109.329 52.7906 109.05 53.0693 108.726 53.2861C107.785 53.907 107.114 53.8164 106.06 53.7635C105.73 53.7473 105.669 54.0228 105.647 54.2745C105.321 57.9305 104.96 62.1021 105.52 65.738C105.534 65.8389 105.587 65.9303 105.668 65.9926C105.749 66.0549 105.851 66.0833 105.953 66.0717C106.054 66.0601 106.147 66.0095 106.212 65.9305C106.276 65.8516 106.308 65.7506 106.299 65.649C106.307 64.6636 106.27 63.6783 106.237 62.6922C111.387 63.267 117.908 60.2618 121.492 56.8262C122.06 56.2882 121.653 55.9851 121.477 55.8101ZM93.7688 30.7959C92.5132 30.7733 91.2708 31.0548 90.1481 31.6162C88.9011 32.2132 86.7842 33.6974 86.9265 35.2537C86.9688 35.7203 86.2965 36.0058 86.1219 35.5246C85.2796 33.2055 87.6242 31.3937 89.1873 30.5426C90.5797 29.7846 92.1396 29.385 93.7258 29.38C95.755 29.3823 94.9173 30.8442 93.7688 30.7959Z" fill="#1C1C1C"/>
</svg>
