<svg width="24" height="24" viewBox="0 0 24 24" fill="none" xmlns="http://www.w3.org/2000/svg">
<path d="M4.43876 3.08594H10.3194C10.3395 3.09751 10.3608 3.10691 10.3829 3.11398C11.1067 3.25942 11.6037 3.8193 11.6919 4.62627C11.7995 5.61592 11.9305 6.6025 12.054 7.5904C12.189 8.67029 12.3279 9.74975 12.4624 10.8296C12.5854 11.8175 12.7036 12.8059 12.8271 13.7933C12.9727 14.9543 13.1222 16.1152 13.2682 17.2753C13.3043 17.5649 13.0512 17.8448 12.7636 17.8448H4.7713C3.73003 17.8448 3.06804 17.1877 3.0676 16.1533V8.33734C3.0676 7.12529 3.0676 5.91324 3.0676 4.70118C3.06134 4.32523 3.18842 3.95908 3.4266 3.66685C3.68769 3.33959 4.04272 3.17881 4.43876 3.08594ZM8.58443 11.0312C8.60075 11.1043 8.6153 11.1665 8.62853 11.2292C8.72424 11.708 8.81729 12.1877 8.91608 12.6657C8.98047 12.9759 9.2495 13.1699 9.52558 13.1143C9.83827 13.0517 10.0107 12.7879 9.94456 12.4607C9.60144 10.7451 9.25744 9.02953 8.91255 7.31396C8.84949 7.00029 8.64794 6.83206 8.32025 6.82899C7.99257 6.82593 7.67459 6.82374 7.3522 6.82899C7.0298 6.83425 6.82649 7.00423 6.76298 7.31703C6.41839 9.0326 6.07424 10.7483 5.73053 12.4642C5.66703 12.7831 5.83109 13.0407 6.13672 13.1108C6.41457 13.1748 6.68536 12.9903 6.75637 12.6801C6.80047 12.4874 6.83311 12.2924 6.87192 12.0984C6.94366 11.7423 7.01598 11.3865 7.0889 11.0307L8.58443 11.0312Z" fill="#6850F3"/>
<path d="M21.0944 7.66792V19.6309C21.0837 19.6513 21.0752 19.6727 21.0688 19.6949C20.9286 20.4795 20.2247 21.0052 19.4 21.0004C16.8773 20.9846 14.3546 20.9947 11.8319 20.9947H11.6167C11.682 20.9149 11.7234 20.8606 11.7684 20.8098C12.4595 20.0247 13.1462 19.2353 13.8452 18.4577C14.2421 18.0161 14.3647 17.5092 14.2862 16.9362C14.217 16.4232 14.1539 15.9093 14.0891 15.3954C13.978 14.5067 13.8674 13.6175 13.7575 12.7279C13.6451 11.8272 13.5319 10.9266 13.4179 10.0262C13.3058 9.13713 13.1935 8.24825 13.0809 7.3595C13.0368 7.0029 12.9927 6.64629 12.9486 6.26953H13.14C15.2405 6.26953 17.3408 6.26953 19.441 6.26953C19.9804 6.26953 20.4377 6.45835 20.7438 6.89995C20.903 7.12731 20.9806 7.41032 21.0944 7.66792ZM15.3928 12.0826C15.6568 12.9149 16.0756 13.6906 16.6277 14.3694C16.5681 14.4224 16.5267 14.4632 16.4817 14.5008C16.1465 14.7748 15.8109 15.0483 15.4748 15.3214C15.3138 15.4528 15.2221 15.6162 15.2583 15.8252C15.3288 16.2313 15.7716 16.4043 16.1086 16.1472C16.4848 15.8594 16.8508 15.5571 17.2111 15.2478C17.3302 15.1453 17.3951 15.151 17.5128 15.2478C17.8811 15.5544 18.2586 15.851 18.6405 16.1411C18.9003 16.3386 19.2077 16.301 19.3903 16.0692C19.5799 15.8304 19.5332 15.5282 19.273 15.3144C19.2324 15.2811 19.1892 15.2509 19.1477 15.2184L18.08 14.3808C18.6423 13.6996 19.0683 12.9754 19.3382 12.1636C19.3515 12.1229 19.4264 12.0834 19.4789 12.0786C19.8119 12.0466 20.0421 11.8285 20.0346 11.5402C20.0267 11.2397 19.785 11.0276 19.441 11.025C19.097 11.0224 18.7486 11.025 18.4024 11.025H17.889C17.889 10.8568 17.889 10.7118 17.889 10.5668C17.8846 10.2189 17.6575 9.97141 17.3518 9.97798C17.0462 9.98455 16.8363 10.2251 16.8319 10.5663C16.8319 10.7153 16.8319 10.8647 16.8319 11.025H16.6184C16.1663 11.025 15.7147 11.0198 15.2627 11.0276C15.123 11.0258 14.9882 11.0784 14.887 11.1741C14.7859 11.2699 14.7265 11.4011 14.7215 11.5398C14.714 11.8166 14.9394 12.0484 15.242 12.0742C15.2891 12.0786 15.3359 12.0795 15.3928 12.0826Z" fill="#6850F3"/>
<path d="M12.0045 18.9121C11.7743 19.1649 11.56 19.4015 11.343 19.6376C11.0082 20.0038 10.6704 20.3679 10.3401 20.7385C10.2673 20.8204 10.2126 20.831 10.1196 20.7749C9.63442 20.4831 9.3698 20.0538 9.30762 19.4978C9.28557 19.3077 9.26351 19.1171 9.23926 18.9121H12.0045Z" fill="#6850F3"/>
<path d="M8.37459 9.96829H7.2998C7.44005 9.27173 7.57809 8.58436 7.71834 7.88867H7.95385C8.09189 8.56947 8.23126 9.2599 8.37459 9.96829Z" fill="#6850F3"/>
<path d="M16.5029 12.084H18.2556C18.0531 12.6417 17.7413 13.1245 17.3647 13.5932C16.9954 13.1409 16.7042 12.6309 16.5029 12.084Z" fill="#6850F3"/>
</svg>
