<svg width="20" height="20" viewBox="0 0 20 20" fill="none" xmlns="http://www.w3.org/2000/svg">
<path d="M16.6665 3.33301H3.33317C2.4127 3.33301 1.6665 3.89265 1.6665 4.58301V7.08301C1.6665 7.77336 2.4127 8.33301 3.33317 8.33301H16.6665C17.587 8.33301 18.3332 7.77336 18.3332 7.08301V4.58301C18.3332 3.89265 17.587 3.33301 16.6665 3.33301Z" stroke="#6850F3" stroke-width="1.5" stroke-linecap="round" stroke-linejoin="round"/>
<path d="M16.6665 12.5H3.33317C2.4127 12.5 1.6665 13.0596 1.6665 13.75V16.25C1.6665 16.9404 2.4127 17.5 3.33317 17.5H16.6665C17.587 17.5 18.3332 16.9404 18.3332 16.25V13.75C18.3332 13.0596 17.587 12.5 16.6665 12.5Z" stroke="#6850F3" stroke-width="1.5" stroke-linecap="round" stroke-linejoin="round"/>
</svg>
