<svg width="61" height="46" viewBox="0 0 61 46" fill="none" xmlns="http://www.w3.org/2000/svg">
<path d="M61 5.98606V40.0122C60.9519 40.0951 60.9129 40.1832 60.8838 40.2747C60.1484 43.7414 57.3948 45.9998 53.8802 45.9998C38.2559 45.9998 22.6321 45.9998 7.0088 45.9998C6.08405 46.0065 5.16727 45.8277 4.31201 45.474C3.45675 45.1203 2.68017 44.5987 2.02767 43.9398C1.37516 43.2808 0.859814 42.4977 0.511743 41.6362C0.163672 40.7747 -0.0101426 39.852 0.00045718 38.9222C0.00045718 28.2817 0.00045718 17.6413 0.00045718 7.00081C-0.000170111 6.08181 0.179278 5.17169 0.528541 4.32245C0.877803 3.4732 1.39003 2.70147 2.03598 2.05135C2.68193 1.40122 3.44894 0.885432 4.29318 0.533455C5.13742 0.181478 6.04235 0.000210032 6.95628 0C22.6613 0 38.3662 0 54.0712 0C56.3633 0 58.1906 0.995543 59.6041 2.79616C60.3394 3.74369 60.6801 4.85927 61 5.98606ZM18.9993 35.7691H23.4561C25.1035 35.7691 26.7509 35.7803 28.3904 35.7691C29.7354 35.7547 30.4883 34.9832 30.4803 33.6324C30.4852 32.9154 30.4485 32.1987 30.3705 31.486C29.9901 28.445 27.2364 25.7513 24.1946 25.644C20.9045 25.5272 17.6081 25.5624 14.3148 25.6008C12.2854 25.6248 10.6061 26.5147 9.28497 28.056C8.12301 29.4117 7.66937 31.0155 7.58978 32.7921C7.48632 35.1273 8.28855 35.8571 10.5329 35.7931C13.363 35.7067 16.1883 35.7691 18.9993 35.7691ZM19.0406 10.2387C17.7835 10.2394 16.5549 10.6156 15.5108 11.3196C14.4666 12.0236 13.654 13.0236 13.176 14.1928C12.698 15.362 12.5762 16.6476 12.826 17.8865C13.0759 19.1253 13.6861 20.2617 14.5793 21.1513C15.4725 22.0408 16.6083 22.6435 17.8427 22.8829C19.0771 23.1223 20.3544 22.9875 21.5125 22.4957C22.6706 22.0039 23.6573 21.1772 24.3473 20.1205C25.0374 19.0639 25.3998 17.825 25.3884 16.5609C25.38 14.8762 24.7066 13.2638 23.5162 12.0783C22.3259 10.8927 20.716 10.2311 19.0406 10.2387ZM44.5209 31.9678C42.2405 31.9678 39.959 31.9678 37.6765 31.9678C36.4509 31.9678 35.6343 32.6928 35.6073 33.7876C35.5802 34.932 36.3713 35.7547 37.5969 35.7595C42.1779 35.7755 46.7589 35.7755 51.3398 35.7595C52.5288 35.7595 53.3661 34.9432 53.3725 33.8692C53.3788 32.7953 52.505 31.9694 51.3032 31.9678C49.0409 31.9646 46.7801 31.9646 44.5209 31.9678ZM44.5209 15.3333C46.8034 15.3333 49.0844 15.3429 51.3653 15.3333C52.5209 15.3333 53.3852 14.4866 53.3836 13.4126C53.382 12.3386 52.5177 11.5016 51.3605 11.5C46.778 11.4904 42.197 11.4839 37.6144 11.516C37.1449 11.5415 36.6917 11.6984 36.306 11.9689C35.6566 12.4155 35.4576 13.2654 35.7028 14.0016C35.9765 14.8211 36.6833 15.3269 37.6128 15.3301C39.9049 15.3397 42.2097 15.3333 44.5098 15.3333H44.5209ZM44.4731 25.5304C46.7541 25.5304 49.035 25.5464 51.3175 25.516C51.7483 25.5091 52.1705 25.3947 52.5464 25.1831C52.8697 24.9823 53.1197 24.6818 53.2591 24.3264C53.3986 23.971 53.4199 23.5798 53.3199 23.2112C53.1082 22.3901 52.5241 21.7707 51.7043 21.7707C46.8878 21.7419 42.0696 21.7563 37.2515 21.7707C37.074 21.7809 36.9003 21.8266 36.7406 21.9051C36.3457 22.0759 36.021 22.3778 35.821 22.7603C35.6209 23.1429 35.5575 23.583 35.6413 24.0069C35.7252 24.4308 35.9513 24.813 36.2817 25.0894C36.6122 25.3658 37.027 25.5198 37.4568 25.5256C39.7823 25.5384 42.1222 25.5304 44.462 25.5304H44.4731Z" fill="#567DF4"/>
</svg>
