<svg width="20" height="23" viewBox="0 0 20 23" fill="none" xmlns="http://www.w3.org/2000/svg">
<path d="M19.9976 5.68302C19.9419 9.41807 19.2439 12.9919 17.4631 16.2829C15.8402 19.2825 13.497 21.4738 10.4781 22.893C10.1343 23.0542 9.79264 23.0254 9.44956 22.8592C4.95671 20.6851 2.24611 16.986 0.889762 12.1276C0.224599 9.7228 -0.0708293 7.22483 0.0142964 4.72515C0.035174 4.02564 0.275962 3.68884 0.91899 3.4384C3.80983 2.30997 6.70207 1.17506 9.59848 0.067505C9.86864 -0.0246682 10.1606 -0.0223925 10.4294 0.0739817C13.3363 1.1837 16.232 2.3222 19.1346 3.44415C19.7018 3.66005 19.9809 4.07098 19.9962 4.68485C20.0039 5.01734 19.9976 5.34982 19.9976 5.68302ZM9.67364 11.5461C9.19694 11.0495 8.74737 10.5746 8.29085 10.1068C7.81624 9.62101 7.13006 9.61237 6.69024 10.078C6.25042 10.5436 6.25529 11.2295 6.72225 11.7181C7.43998 12.4742 8.16304 13.2244 8.89143 13.9685C9.373 14.4615 10.0348 14.4543 10.5129 13.9548C10.8122 13.6425 11.101 13.3186 11.3953 13.0005C12.6615 11.6303 13.9271 10.2615 15.1923 8.89415C15.5145 8.54655 15.6363 8.14498 15.4985 7.68368C15.4426 7.49626 15.3405 7.32711 15.2023 7.19285C15.0641 7.0586 14.8944 6.96387 14.71 6.91798C14.5256 6.87209 14.3329 6.87662 14.1507 6.93113C13.9685 6.98564 13.8032 7.08824 13.671 7.22885C12.9994 7.93052 12.3488 8.6545 11.6883 9.36913L9.67364 11.5461Z" fill="white"/>
</svg>
