<svg width="24" height="24" viewBox="0 0 24 24" fill="none" xmlns="http://www.w3.org/2000/svg">
<path d="M21.9976 6.68302C21.9419 10.4181 21.2439 13.9919 19.4631 17.2829C17.8402 20.2825 15.497 22.4738 12.4781 23.893C12.1343 24.0542 11.7926 24.0254 11.4496 23.8592C6.95671 21.6851 4.24611 17.986 2.88976 13.1276C2.2246 10.7228 1.92917 8.22483 2.0143 5.72515C2.03517 5.02564 2.27596 4.68884 2.91899 4.4384C5.80983 3.30997 8.70207 2.17506 11.5985 1.06751C11.8686 0.975332 12.1606 0.977607 12.4294 1.07398C15.3363 2.1837 18.232 3.3222 21.1346 4.44415C21.7018 4.66005 21.9809 5.07098 21.9962 5.68485C22.0039 6.01734 21.9976 6.34982 21.9976 6.68302ZM11.6736 12.5461C11.1969 12.0495 10.7474 11.5746 10.2909 11.1068C9.81624 10.621 9.13006 10.6124 8.69024 11.078C8.25042 11.5436 8.25529 12.2295 8.72225 12.7181C9.43998 13.4742 10.163 14.2244 10.8914 14.9685C11.373 15.4615 12.0348 15.4543 12.5129 14.9548C12.8122 14.6425 13.101 14.3186 13.3953 14.0005C14.6615 12.6303 15.9271 11.2615 17.1923 9.89415C17.5145 9.54655 17.6363 9.14498 17.4985 8.68368C17.4426 8.49626 17.3405 8.32711 17.2023 8.19285C17.0641 8.0586 16.8944 7.96387 16.71 7.91798C16.5256 7.87209 16.3329 7.87662 16.1507 7.93113C15.9685 7.98564 15.8032 8.08824 15.671 8.22885C14.9994 8.93052 14.3488 9.6545 13.6883 10.3691L11.6736 12.5461Z" fill="white"/>
</svg>
