<svg width="20" height="20" viewBox="0 0 20 20" fill="none" xmlns="http://www.w3.org/2000/svg">
<path d="M9.95769 12.116C12.817 12.116 15.2585 12.5693 15.2585 14.3833C15.2585 16.1965 12.8327 16.6663 9.95769 16.6663C7.09837 16.6663 4.6569 16.213 4.6569 14.3998C4.6569 12.5858 7.0827 12.116 9.95769 12.116ZM14.5294 11.0237C15.6225 11.0035 16.7977 11.1536 17.232 11.2601C18.152 11.441 18.7572 11.8103 19.0079 12.3469C19.2198 12.7874 19.2198 13.2985 19.0079 13.7383C18.6244 14.5706 17.388 14.8378 16.9074 14.9069C16.8082 14.9219 16.7283 14.8356 16.7388 14.7357C16.9843 12.4294 15.0316 11.3359 14.5264 11.0845C14.5048 11.0733 14.5003 11.056 14.5025 11.0455C14.504 11.038 14.513 11.026 14.5294 11.0237ZM5.4715 11.024C5.48791 11.0263 5.49612 11.0383 5.49761 11.0451C5.49985 11.0563 5.49537 11.0728 5.47448 11.0848C4.96858 11.3362 3.01585 12.4297 3.26134 14.7353C3.27179 14.8359 3.1927 14.9214 3.09346 14.9072C2.61292 14.8381 1.37652 14.5709 0.99299 13.7386C0.780332 13.2981 0.780332 12.7877 0.99299 12.3472C1.2437 11.8106 1.8481 11.4413 2.76813 11.2597C3.20314 11.1539 4.37761 11.0038 5.4715 11.024ZM9.95769 3.33301C11.9044 3.33301 13.4654 4.90156 13.4654 6.86038C13.4654 8.81845 11.9044 10.3885 9.95769 10.3885C8.01093 10.3885 6.44995 8.81845 6.44995 6.86038C6.44995 4.90156 8.01093 3.33301 9.95769 3.33301ZM14.7197 3.92125C16.6 3.92125 18.0767 5.7007 17.5738 7.68279C17.2343 9.01719 16.0053 9.90353 14.6361 9.86751C14.4988 9.86376 14.3637 9.851 14.2332 9.82848C14.1384 9.81197 14.0906 9.70465 14.1444 9.6251C14.6667 8.85208 14.9644 7.9222 14.9644 6.92403C14.9644 5.88233 14.6391 4.91117 14.0742 4.11488C14.0563 4.09012 14.0429 4.05184 14.0608 4.02332C14.0757 4.00006 14.1033 3.98805 14.1294 3.98205C14.3197 3.94302 14.5152 3.92125 14.7197 3.92125ZM5.2801 3.92118C5.48455 3.92118 5.68005 3.94294 5.87107 3.98197C5.89644 3.98797 5.92479 4.00073 5.93972 4.02325C5.95688 4.05177 5.94419 4.09004 5.92629 4.11481C5.36144 4.9111 5.03611 5.88225 5.03611 6.92395C5.03611 7.92212 5.33383 8.852 5.85615 9.62502C5.90987 9.70458 5.86212 9.8119 5.76735 9.82841C5.63603 9.85167 5.50172 9.86368 5.36442 9.86743C3.9952 9.90346 2.76626 9.01711 2.42675 7.68271C1.92309 5.70063 3.39976 3.92118 5.2801 3.92118Z" fill="white"/>
</svg>
